<svg version="1.1" xmlns="http://www.w3.org/2000/svg" xmlns:xlink="http://www.w3.org/1999/xlink" width="1644" height="1108"><defs/><g><g transform="translate(-110,-118) scale(1,1)"><rect fill="#C0C0C0" stroke="none" x="343" y="135" width="1408" height="1088" opacity="0.2"/></g><g transform="translate(-110,-118) scale(1,1)"><rect fill="#ffffff" stroke="none" x="336" y="128" width="1408" height="1088"/></g><g transform="translate(-110,-118) scale(1,1)"><path fill="none" stroke="#000000" d="M 336 128 L 1744 128 L 1744 1216 L 336 1216 L 336 128 Z Z" stroke-miterlimit="10"/></g><g transform="translate(-110,-118) scale(1,1)"><g><path fill="none" stroke="none"/><text fill="#000000" stroke="none" font-family="Arial" font-size="13px" font-style="normal" font-weight="bold" text-decoration="none" x="980.754150390625" y="147.5">Subscription System</text></g></g><g transform="translate(-110,-118) scale(1,1)"><path fill="#ffffff" stroke="none" d="M 154.10285582386365 469.92 C 154.10285582386365 458.366201984 163.16982124873638 449 174.3544921875 449 C 185.53916312626362 449 194.60612855113635 458.366201984 194.60612855113635 469.92 C 194.60612855113635 481.47379801600005 185.53916312626362 490.84000000000003 174.3544921875 490.84000000000003 C 163.16982124873638 490.84000000000003 154.10285582386365 481.47379801600005 154.10285582386365 469.92 Z"/></g><g transform="translate(-110,-118) scale(1,1)"><path fill="none" stroke="#000000" d="M 154.10285582386365 469.92 C 154.10285582386365 458.366201984 163.16982124873638 449 174.3544921875 449 C 185.53916312626362 449 194.60612855113635 458.366201984 194.60612855113635 469.92 C 194.60612855113635 481.47379801600005 185.53916312626362 490.84000000000003 174.3544921875 490.84000000000003 C 163.16982124873638 490.84000000000003 154.10285582386365 481.47379801600005 154.10285582386365 469.92 Z" stroke-miterlimit="10"/></g><g transform="translate(-110,-118) scale(1,1)"><path fill="none" stroke="#000000" d="M 174.3544921875 490.84000000000003 L 174.3544921875 531.16" stroke-miterlimit="10"/></g><g transform="translate(-110,-118) scale(1,1)"><path fill="none" stroke="#000000" d="M 152.9115830965909 505.96 L 195.7974012784091 505.96" stroke-miterlimit="10"/></g><g transform="translate(-110,-118) scale(1,1)"><path fill="none" stroke="#000000" d="M 174.3544921875 531.16 L 144.57267400568182 573" stroke-miterlimit="10"/></g><g transform="translate(-110,-118) scale(1,1)"><path fill="none" stroke="#000000" d="M 174.3544921875 531.16 L 204.13631036931818 573" stroke-miterlimit="10"/></g><g transform="translate(-110,-118) scale(1,1)"><g><path fill="none" stroke="none"/><text fill="#000000" stroke="none" font-family="Arial" font-size="13px" font-style="normal" font-weight="bold" text-decoration="none" x="127.391357421875" y="593.5">Registered User</text></g></g><g transform="translate(-110,-118) scale(1,1)"><path fill="#C0C0C0" stroke="none" d="M 694 399.5 C 694 368.8481936 765.6344320000001 344 854 344 C 942.3655679999999 344 1014 368.8481936 1014 399.5 C 1014 430.1518064 942.3655679999999 455 854 455 C 765.6344320000001 455 694 430.1518064 694 399.5 Z" opacity="0.2"/></g><g transform="translate(-110,-118) scale(1,1)"><path fill="#ffffff" stroke="none" d="M 687 392.5 C 687 361.8481936 758.6344320000001 337 847 337 C 935.3655679999999 337 1007 361.8481936 1007 392.5 C 1007 423.1518064 935.3655679999999 448 847 448 C 758.6344320000001 448 687 423.1518064 687 392.5 Z"/></g><g transform="translate(-110,-118) scale(1,1)"><path fill="none" stroke="#000000" d="M 687 392.5 C 687 361.8481936 758.6344320000001 337 847 337 C 935.3655679999999 337 1007 361.8481936 1007 392.5 C 1007 423.1518064 935.3655679999999 448 847 448 C 758.6344320000001 448 687 423.1518064 687 392.5 Z" stroke-miterlimit="10"/></g><g transform="translate(-110,-118) scale(1,1)"><g><path fill="none" stroke="none"/><text fill="#000000" stroke="none" font-family="Arial" font-size="13px" font-style="normal" font-weight="bold" text-decoration="none" x="760.29736328125" y="399.5">Subscribe to community posts</text></g></g><g transform="translate(-110,-118) scale(1,1)"><path fill="#C0C0C0" stroke="none" d="M 694 544.5 C 694 513.8481936 765.6344320000001 489 854 489 C 942.3655679999999 489 1014 513.8481936 1014 544.5 C 1014 575.1518064 942.3655679999999 600 854 600 C 765.6344320000001 600 694 575.1518064 694 544.5 Z" opacity="0.2"/></g><g transform="translate(-110,-118) scale(1,1)"><path fill="#ffffff" stroke="none" d="M 687 537.5 C 687 506.8481936 758.6344320000001 482 847 482 C 935.3655679999999 482 1007 506.8481936 1007 537.5 C 1007 568.1518064 935.3655679999999 593 847 593 C 758.6344320000001 593 687 568.1518064 687 537.5 Z"/></g><g transform="translate(-110,-118) scale(1,1)"><path fill="none" stroke="#000000" d="M 687 537.5 C 687 506.8481936 758.6344320000001 482 847 482 C 935.3655679999999 482 1007 506.8481936 1007 537.5 C 1007 568.1518064 935.3655679999999 593 847 593 C 758.6344320000001 593 687 568.1518064 687 537.5 Z" stroke-miterlimit="10"/></g><g transform="translate(-110,-118) scale(1,1)"><g><path fill="none" stroke="none"/><text fill="#000000" stroke="none" font-family="Arial" font-size="13px" font-style="normal" font-weight="bold" text-decoration="none" x="750.734619140625" y="544.5">Subscribe to another user's posts</text></g></g><g transform="translate(-110,-118) scale(1,1)"><path fill="#C0C0C0" stroke="none" d="M 694 254.5 C 694 223.8481936 765.6344320000001 199 854 199 C 942.3655679999999 199 1014 223.8481936 1014 254.5 C 1014 285.1518064 942.3655679999999 310 854 310 C 765.6344320000001 310 694 285.1518064 694 254.5 Z" opacity="0.2"/></g><g transform="translate(-110,-118) scale(1,1)"><path fill="#ffffff" stroke="none" d="M 687 247.5 C 687 216.8481936 758.6344320000001 192 847 192 C 935.3655679999999 192 1007 216.8481936 1007 247.5 C 1007 278.1518064 935.3655679999999 303 847 303 C 758.6344320000001 303 687 278.1518064 687 247.5 Z"/></g><g transform="translate(-110,-118) scale(1,1)"><path fill="none" stroke="#000000" d="M 687 247.5 C 687 216.8481936 758.6344320000001 192 847 192 C 935.3655679999999 192 1007 216.8481936 1007 247.5 C 1007 278.1518064 935.3655679999999 303 847 303 C 758.6344320000001 303 687 278.1518064 687 247.5 Z" stroke-miterlimit="10"/></g><g transform="translate(-110,-118) scale(1,1)"><g><path fill="none" stroke="none"/><text fill="#000000" stroke="none" font-family="Arial" font-size="13px" font-style="normal" font-weight="bold" text-decoration="none" x="779.79736328125" y="254.5">Subscribe to own posts</text></g></g><g transform="translate(-110,-118) scale(1,1)"><path fill="#C0C0C0" stroke="none" d="M 694 689.5 C 694 658.8481936 765.6344320000001 634 854 634 C 942.3655679999999 634 1014 658.8481936 1014 689.5 C 1014 720.1518064 942.3655679999999 745 854 745 C 765.6344320000001 745 694 720.1518064 694 689.5 Z" opacity="0.2"/></g><g transform="translate(-110,-118) scale(1,1)"><path fill="#ffffff" stroke="none" d="M 687 682.5 C 687 651.8481936 758.6344320000001 627 847 627 C 935.3655679999999 627 1007 651.8481936 1007 682.5 C 1007 713.1518064 935.3655679999999 738 847 738 C 758.6344320000001 738 687 713.1518064 687 682.5 Z"/></g><g transform="translate(-110,-118) scale(1,1)"><path fill="none" stroke="#000000" d="M 687 682.5 C 687 651.8481936 758.6344320000001 627 847 627 C 935.3655679999999 627 1007 651.8481936 1007 682.5 C 1007 713.1518064 935.3655679999999 738 847 738 C 758.6344320000001 738 687 713.1518064 687 682.5 Z" stroke-miterlimit="10"/></g><g transform="translate(-110,-118) scale(1,1)"><g><path fill="none" stroke="none"/><text fill="#000000" stroke="none" font-family="Arial" font-size="13px" font-style="normal" font-weight="bold" text-decoration="none" x="751.261474609375" y="683">Subscribe to posts with a specific</text><text fill="#000000" stroke="none" font-family="Arial" font-size="13px" font-style="normal" font-weight="bold" text-decoration="none" x="820.622314453125" y="696">post type</text></g></g><g transform="translate(-110,-118) scale(1,1)"><path fill="#C0C0C0" stroke="none" d="M 1443 254.5 C 1443 230.4756112 1503.8892672 211 1579 211 C 1654.1107328 211 1715 230.4756112 1715 254.5 C 1715 278.5243888 1654.1107328 298 1579 298 C 1503.8892672 298 1443 278.5243888 1443 254.5 Z" opacity="0.2"/></g><g transform="translate(-110,-118) scale(1,1)"><path fill="#ffffff" stroke="none" d="M 1436 247.5 C 1436 223.4756112 1496.8892672 204 1572 204 C 1647.1107328 204 1708 223.4756112 1708 247.5 C 1708 271.5243888 1647.1107328 291 1572 291 C 1496.8892672 291 1436 271.5243888 1436 247.5 Z"/></g><g transform="translate(-110,-118) scale(1,1)"><path fill="none" stroke="#000000" d="M 1436 247.5 C 1436 223.4756112 1496.8892672 204 1572 204 C 1647.1107328 204 1708 223.4756112 1708 247.5 C 1708 271.5243888 1647.1107328 291 1572 291 C 1496.8892672 291 1436 271.5243888 1436 247.5 Z" stroke-miterlimit="10"/></g><g transform="translate(-110,-118) scale(1,1)"><g><path fill="none" stroke="none"/><text fill="#000000" stroke="none" font-family="Arial" font-size="13px" font-style="normal" font-weight="bold" text-decoration="none" x="1492.146484375" y="248">Get notification when a new</text><text fill="#000000" stroke="none" font-family="Arial" font-size="13px" font-style="normal" font-weight="bold" text-decoration="none" x="1529.727783203125" y="261">post is created</text></g></g><g transform="translate(-110,-118) scale(1,1)"><path fill="#C0C0C0" stroke="none" d="M 1443 471.5 C 1443 447.4756112 1503.8892672 428 1579 428 C 1654.1107328 428 1715 447.4756112 1715 471.5 C 1715 495.5243888 1654.1107328 515 1579 515 C 1503.8892672 515 1443 495.5243888 1443 471.5 Z" opacity="0.2"/></g><g transform="translate(-110,-118) scale(1,1)"><path fill="#ffffff" stroke="none" d="M 1436 464.5 C 1436 440.4756112 1496.8892672 421 1572 421 C 1647.1107328 421 1708 440.4756112 1708 464.5 C 1708 488.5243888 1647.1107328 508 1572 508 C 1496.8892672 508 1436 488.5243888 1436 464.5 Z"/></g><g transform="translate(-110,-118) scale(1,1)"><path fill="none" stroke="#000000" d="M 1436 464.5 C 1436 440.4756112 1496.8892672 421 1572 421 C 1647.1107328 421 1708 440.4756112 1708 464.5 C 1708 488.5243888 1647.1107328 508 1572 508 C 1496.8892672 508 1436 488.5243888 1436 464.5 Z" stroke-miterlimit="10"/></g><g transform="translate(-110,-118) scale(1,1)"><g><path fill="none" stroke="none"/><text fill="#000000" stroke="none" font-family="Arial" font-size="13px" font-style="normal" font-weight="bold" text-decoration="none" x="1491.78466796875" y="465">Get notification when a post</text><text fill="#000000" stroke="none" font-family="Arial" font-size="13px" font-style="normal" font-weight="bold" text-decoration="none" x="1547.7900390625" y="478">is edited</text></g></g><g transform="translate(-110,-118) scale(1,1)"><path fill="#C0C0C0" stroke="none" d="M 1443 688.5 C 1443 664.4756112 1503.8892672 645 1579 645 C 1654.1107328 645 1715 664.4756112 1715 688.5 C 1715 712.5243888 1654.1107328 732 1579 732 C 1503.8892672 732 1443 712.5243888 1443 688.5 Z" opacity="0.2"/></g><g transform="translate(-110,-118) scale(1,1)"><path fill="#ffffff" stroke="none" d="M 1436 681.5 C 1436 657.4756112 1496.8892672 638 1572 638 C 1647.1107328 638 1708 657.4756112 1708 681.5 C 1708 705.5243888 1647.1107328 725 1572 725 C 1496.8892672 725 1436 705.5243888 1436 681.5 Z"/></g><g transform="translate(-110,-118) scale(1,1)"><path fill="none" stroke="#000000" d="M 1436 681.5 C 1436 657.4756112 1496.8892672 638 1572 638 C 1647.1107328 638 1708 657.4756112 1708 681.5 C 1708 705.5243888 1647.1107328 725 1572 725 C 1496.8892672 725 1436 705.5243888 1436 681.5 Z" stroke-miterlimit="10"/></g><g transform="translate(-110,-118) scale(1,1)"><g><path fill="none" stroke="none"/><text fill="#000000" stroke="none" font-family="Arial" font-size="13px" font-style="normal" font-weight="bold" text-decoration="none" x="1492.146484375" y="682">Get notification when a new</text><text fill="#000000" stroke="none" font-family="Arial" font-size="13px" font-style="normal" font-weight="bold" text-decoration="none" x="1515.28369140625" y="695">comment is created</text></g></g><g transform="translate(-110,-118) scale(1,1)"><path fill="#C0C0C0" stroke="none" d="M 694 834.5 C 694 803.8481936 765.6344320000001 779 854 779 C 942.3655679999999 779 1014 803.8481936 1014 834.5 C 1014 865.1518064 942.3655679999999 890 854 890 C 765.6344320000001 890 694 865.1518064 694 834.5 Z" opacity="0.2"/></g><g transform="translate(-110,-118) scale(1,1)"><path fill="#ffffff" stroke="none" d="M 687 827.5 C 687 796.8481936 758.6344320000001 772 847 772 C 935.3655679999999 772 1007 796.8481936 1007 827.5 C 1007 858.1518064 935.3655679999999 883 847 883 C 758.6344320000001 883 687 858.1518064 687 827.5 Z"/></g><g transform="translate(-110,-118) scale(1,1)"><path fill="none" stroke="#000000" d="M 687 827.5 C 687 796.8481936 758.6344320000001 772 847 772 C 935.3655679999999 772 1007 796.8481936 1007 827.5 C 1007 858.1518064 935.3655679999999 883 847 883 C 758.6344320000001 883 687 858.1518064 687 827.5 Z" stroke-miterlimit="10"/></g><g transform="translate(-110,-118) scale(1,1)"><g><path fill="none" stroke="none"/><text fill="#000000" stroke="none" font-family="Arial" font-size="13px" font-style="normal" font-weight="bold" text-decoration="none" x="753.273681640625" y="828">Unsubscribe from another user's</text><text fill="#000000" stroke="none" font-family="Arial" font-size="13px" font-style="normal" font-weight="bold" text-decoration="none" x="831.464111328125" y="841">posts</text></g></g><g transform="translate(-110,-118) scale(1,1)"><path fill="#C0C0C0" stroke="none" d="M 1443 938.5 C 1443 914.4756112 1503.8892672 895 1579 895 C 1654.1107328 895 1715 914.4756112 1715 938.5 C 1715 962.5243888 1654.1107328 982 1579 982 C 1503.8892672 982 1443 962.5243888 1443 938.5 Z" opacity="0.2"/></g><g transform="translate(-110,-118) scale(1,1)"><path fill="#ffffff" stroke="none" d="M 1436 931.5 C 1436 907.4756112 1496.8892672 888 1572 888 C 1647.1107328 888 1708 907.4756112 1708 931.5 C 1708 955.5243888 1647.1107328 975 1572 975 C 1496.8892672 975 1436 955.5243888 1436 931.5 Z"/></g><g transform="translate(-110,-118) scale(1,1)"><path fill="none" stroke="#000000" d="M 1436 931.5 C 1436 907.4756112 1496.8892672 888 1572 888 C 1647.1107328 888 1708 907.4756112 1708 931.5 C 1708 955.5243888 1647.1107328 975 1572 975 C 1496.8892672 975 1436 955.5243888 1436 931.5 Z" stroke-miterlimit="10"/></g><g transform="translate(-110,-118) scale(1,1)"><g><path fill="none" stroke="none"/><text fill="#000000" stroke="none" font-family="Arial" font-size="13px" font-style="normal" font-weight="bold" text-decoration="none" x="1492.517822265625" y="938.5">Add user to subscription list</text></g></g><g transform="translate(-110,-118) scale(1,1)"><path fill="#C0C0C0" stroke="none" d="M 1443 1098.5 C 1443 1074.4756112 1503.8892672 1055 1579 1055 C 1654.1107328 1055 1715 1074.4756112 1715 1098.5 C 1715 1122.5243888 1654.1107328 1142 1579 1142 C 1503.8892672 1142 1443 1122.5243888 1443 1098.5 Z" opacity="0.2"/></g><g transform="translate(-110,-118) scale(1,1)"><path fill="#ffffff" stroke="none" d="M 1436 1091.5 C 1436 1067.4756112 1496.8892672 1048 1572 1048 C 1647.1107328 1048 1708 1067.4756112 1708 1091.5 C 1708 1115.5243888 1647.1107328 1135 1572 1135 C 1496.8892672 1135 1436 1115.5243888 1436 1091.5 Z"/></g><g transform="translate(-110,-118) scale(1,1)"><path fill="none" stroke="#000000" d="M 1436 1091.5 C 1436 1067.4756112 1496.8892672 1048 1572 1048 C 1647.1107328 1048 1708 1067.4756112 1708 1091.5 C 1708 1115.5243888 1647.1107328 1135 1572 1135 C 1496.8892672 1135 1436 1115.5243888 1436 1091.5 Z" stroke-miterlimit="10"/></g><g transform="translate(-110,-118) scale(1,1)"><g><path fill="none" stroke="none"/><text fill="#000000" stroke="none" font-family="Arial" font-size="13px" font-style="normal" font-weight="bold" text-decoration="none" x="1518.5400390625" y="1092">Remove user from</text><text fill="#000000" stroke="none" font-family="Arial" font-size="13px" font-style="normal" font-weight="bold" text-decoration="none" x="1527.56640625" y="1105">subscription list</text></g></g><g transform="translate(-110,-118) scale(1,1)"><path fill="#C0C0C0" stroke="none" d="M 407 254.5 C 407 234.8938896 446.17508 219 494.5 219 C 542.82492 219 582 234.8938896 582 254.5 C 582 274.1061104 542.82492 290 494.5 290 C 446.17508 290 407 274.1061104 407 254.5 Z" opacity="0.2"/></g><g transform="translate(-110,-118) scale(1,1)"><path fill="#ffffff" stroke="none" d="M 400 247.5 C 400 227.8938896 439.17508 212 487.5 212 C 535.82492 212 575 227.8938896 575 247.5 C 575 267.1061104 535.82492 283 487.5 283 C 439.17508 283 400 267.1061104 400 247.5 Z"/></g><g transform="translate(-110,-118) scale(1,1)"><path fill="none" stroke="#000000" d="M 400 247.5 C 400 227.8938896 439.17508 212 487.5 212 C 535.82492 212 575 227.8938896 575 247.5 C 575 267.1061104 535.82492 283 487.5 283 C 439.17508 283 400 267.1061104 400 247.5 Z" stroke-miterlimit="10"/></g><g transform="translate(-110,-118) scale(1,1)"><g><path fill="none" stroke="none"/><text fill="#000000" stroke="none" font-family="Arial" font-size="13px" font-style="normal" font-weight="bold" text-decoration="none" x="438.724609375" y="254.5">Register account</text></g></g><g transform="translate(-110,-118) scale(1,1)"><path fill="#C0C0C0" stroke="none" d="M 415 400.5 C 415 380.8938896 450.5933584 365 494.5 365 C 538.4066416000001 365 574 380.8938896 574 400.5 C 574 420.1061104 538.4066416000001 436 494.5 436 C 450.5933584 436 415 420.1061104 415 400.5 Z" opacity="0.2"/></g><g transform="translate(-110,-118) scale(1,1)"><path fill="#ffffff" stroke="none" d="M 408 393.5 C 408 373.8938896 443.5933584 358 487.5 358 C 531.4066416000001 358 567 373.8938896 567 393.5 C 567 413.1061104 531.4066416000001 429 487.5 429 C 443.5933584 429 408 413.1061104 408 393.5 Z"/></g><g transform="translate(-110,-118) scale(1,1)"><path fill="none" stroke="#000000" d="M 408 393.5 C 408 373.8938896 443.5933584 358 487.5 358 C 531.4066416000001 358 567 373.8938896 567 393.5 C 567 413.1061104 531.4066416000001 429 487.5 429 C 443.5933584 429 408 413.1061104 408 393.5 Z" stroke-miterlimit="10"/></g><g transform="translate(-110,-118) scale(1,1)"><g><path fill="none" stroke="none"/><text fill="#000000" stroke="none" font-family="Arial" font-size="13px" font-style="normal" font-weight="bold" text-decoration="none" x="442.345947265625" y="400.5">Join community</text></g></g><g transform="translate(-110,-118) scale(1,1)"><path fill="#C0C0C0" stroke="none" d="M 694 974.5 C 694 943.8481936 765.6344320000001 919 854 919 C 942.3655679999999 919 1014 943.8481936 1014 974.5 C 1014 1005.1518064 942.3655679999999 1030 854 1030 C 765.6344320000001 1030 694 1005.1518064 694 974.5 Z" opacity="0.2"/></g><g transform="translate(-110,-118) scale(1,1)"><path fill="#ffffff" stroke="none" d="M 687 967.5 C 687 936.8481936 758.6344320000001 912 847 912 C 935.3655679999999 912 1007 936.8481936 1007 967.5 C 1007 998.1518064 935.3655679999999 1023 847 1023 C 758.6344320000001 1023 687 998.1518064 687 967.5 Z"/></g><g transform="translate(-110,-118) scale(1,1)"><path fill="none" stroke="#000000" d="M 687 967.5 C 687 936.8481936 758.6344320000001 912 847 912 C 935.3655679999999 912 1007 936.8481936 1007 967.5 C 1007 998.1518064 935.3655679999999 1023 847 1023 C 758.6344320000001 1023 687 998.1518064 687 967.5 Z" stroke-miterlimit="10"/></g><g transform="translate(-110,-118) scale(1,1)"><g><path fill="none" stroke="none"/><text fill="#000000" stroke="none" font-family="Arial" font-size="13px" font-style="normal" font-weight="bold" text-decoration="none" x="759.938720703125" y="968">Unsubscribe from posts with a</text><text fill="#000000" stroke="none" font-family="Arial" font-size="13px" font-style="normal" font-weight="bold" text-decoration="none" x="797.142333984375" y="981">specific post type</text></g></g><g transform="translate(-110,-118) scale(1,1)"><path fill="none" stroke="#000000" d="M 230 474 L 445 284" stroke-miterlimit="10"/></g><g transform="translate(-110,-118) scale(1,1)"><path fill="none" stroke="#000000" d="M 440.17234552513656 293.8840149874093 L 445 284 L 434.59727876065193 287.57538680654505" stroke-miterlimit="10"/></g><g transform="translate(-110,-118) scale(1,1)"><path fill="none" stroke="#000000" d="M 230 500 L 407 426" stroke-miterlimit="10"/></g><g transform="translate(-110,-118) scale(1,1)"><path fill="none" stroke="#000000" d="M 399.2474960793775 433.8037608215996 L 407 426 L 396.0000597108416 426.0362441022636" stroke-miterlimit="10"/></g><g transform="translate(-110,-118) scale(1,1)"><path fill="none" stroke="#000000" d="M 230 524 L 686 534" stroke-miterlimit="10"/></g><g transform="translate(-110,-118) scale(1,1)"><path fill="none" stroke="#000000" d="M 675.7474761677216 537.9856938001514 L 686 534 L 675.9320597600992 529.5686819877395" stroke-miterlimit="10"/></g><g transform="translate(-110,-118) scale(1,1)"><path fill="none" stroke="#000000" d="M 230 560 L 762 911" stroke-miterlimit="10"/></g><g transform="translate(-110,-118) scale(1,1)"><path fill="none" stroke="#000000" d="M 751.1990284547777 908.916970072395 L 762 911 L 755.8354843641944 901.8896351897464" stroke-miterlimit="10"/></g><g transform="translate(-110,-118) scale(1,1)"><path fill="none" stroke="#000000" d="M 230 536 L 686 644" stroke-miterlimit="10"/></g><g transform="translate(-110,-118) scale(1,1)"><path fill="none" stroke="#000000" d="M 675.1407490927712 645.7540438232415 L 686 644 L 677.08105376298 637.5616463268049" stroke-miterlimit="10"/></g><g transform="translate(-110,-118) scale(1,1)"><path fill="none" stroke="#000000" d="M 230 548 L 723 771" stroke-miterlimit="10"/></g><g transform="translate(-110,-118) scale(1,1)"><path fill="none" stroke="#000000" d="M 712.0056642937816 770.6470377088534 L 723 771 L 715.4754126970645 762.9762486379187" stroke-miterlimit="10"/></g><g transform="translate(-110,-118) scale(1,1)"><path fill="none" stroke="#000000" d="M 576 247 L 686 247" stroke-miterlimit="10" stroke-dasharray="3"/></g><g transform="translate(-110,-118) scale(1,1)"><path fill="none" stroke="#000000" d="M 675.8373251423759 251.209517756016 L 686 247 L 675.8373251423758 242.790482243984" stroke-miterlimit="10"/></g><g transform="translate(-110,-118) scale(1,1)"><g><path fill="none" stroke="none"/><text fill="#000000" stroke="none" font-family="Arial" font-size="13px" font-style="normal" font-weight="normal" text-decoration="none" x="603.5" y="223.5">«include»</text></g></g><g transform="translate(-110,-118) scale(1,1)"><path fill="none" stroke="#000000" d="M 568 393 L 686 392" stroke-miterlimit="10" stroke-dasharray="3"/></g><g transform="translate(-110,-118) scale(1,1)"><path fill="none" stroke="#000000" d="M 675.8733626547987 396.29548787436005 L 686 392 L 675.8020174581267 387.8767546670558" stroke-miterlimit="10"/></g><g transform="translate(-110,-118) scale(1,1)"><g><path fill="none" stroke="none"/><text fill="#000000" stroke="none" font-family="Arial" font-size="13px" font-style="normal" font-weight="normal" text-decoration="none" x="599.5" y="368.5">«include»</text></g></g><g transform="translate(-110,-118) scale(1,1)"><path fill="none" stroke="#000000" d="M 1004 884 L 1451 1047" stroke-miterlimit="10" stroke-dasharray="3"/></g><g transform="translate(-110,-118) scale(1,1)"><path fill="none" stroke="#000000" d="M 1440.010182242535 1047.4731867049127 L 1451 1047 L 1442.894431811881 1039.5636188675032" stroke-miterlimit="10"/></g><g transform="translate(-110,-118) scale(1,1)"><g><path fill="none" stroke="none"/><text fill="#000000" stroke="none" font-family="Arial" font-size="13px" font-style="normal" font-weight="normal" text-decoration="none" x="1209.5" y="942.5">«include»</text></g></g><g transform="translate(-110,-118) scale(1,1)"><path fill="none" stroke="#000000" d="M 1008 995 L 1435 1068" stroke-miterlimit="10" stroke-dasharray="3"/></g><g transform="translate(-110,-118) scale(1,1)"><path fill="none" stroke="#000000" d="M 1424.2732930397176 1070.4367514826567 L 1435 1068 L 1425.6920292711304 1062.1381162660364" stroke-miterlimit="10"/></g><g transform="translate(-110,-118) scale(1,1)"><g><path fill="none" stroke="none"/><text fill="#000000" stroke="none" font-family="Arial" font-size="13px" font-style="normal" font-weight="normal" text-decoration="none" x="1198.5" y="1007.5">«include»</text></g></g><g transform="translate(-110,-118) scale(1,1)"><path fill="none" stroke="#000000" d="M 952 594 L 1491 887" stroke-miterlimit="10" stroke-dasharray="3"/></g><g transform="translate(-110,-118) scale(1,1)"><path fill="none" stroke="#000000" d="M 1480.060831841834 885.8447511058785 L 1491 887 L 1484.0817243418126 878.4479556878293" stroke-miterlimit="10"/></g><g transform="translate(-110,-118) scale(1,1)"><g><path fill="none" stroke="none"/><text fill="#000000" stroke="none" font-family="Arial" font-size="13px" font-style="normal" font-weight="normal" text-decoration="none" x="1176.5" y="761.5">«include»</text></g></g><g transform="translate(-110,-118) scale(1,1)"><path fill="none" stroke="#000000" d="M 1008 737 L 1444 887" stroke-miterlimit="10" stroke-dasharray="3"/></g><g transform="translate(-110,-118) scale(1,1)"><path fill="none" stroke="#000000" d="M 1433.0206922572838 887.6743897172511 L 1444 887 L 1435.7595915001607 879.7133225846221" stroke-miterlimit="10"/></g><g transform="translate(-110,-118) scale(1,1)"><g><path fill="none" stroke="none"/><text fill="#000000" stroke="none" font-family="Arial" font-size="13px" font-style="normal" font-weight="normal" text-decoration="none" x="1166.5" y="825.5">«include»</text></g></g><g transform="translate(-110,-118) scale(1,1)"><path fill="none" stroke="#000000" d="M 1435 274 L 1008 360" stroke-miterlimit="10" stroke-dasharray="3"/></g><g transform="translate(-110,-118) scale(1,1)"><path fill="none" stroke="#000000" d="M 1017.1314922191799 353.86682383661974 L 1008 360 L 1018.7937505258723 362.12012961519645" stroke-miterlimit="10"/></g><g transform="translate(-110,-118) scale(1,1)"><g><path fill="none" stroke="none"/><text fill="#000000" stroke="none" font-family="Arial" font-size="13px" font-style="normal" font-weight="normal" text-decoration="none" x="1354.5" y="265.5">«extend»</text></g></g><g transform="translate(-110,-118) scale(1,1)"><path fill="none" stroke="#000000" d="M 1460 292 L 987 481" stroke-miterlimit="10" stroke-dasharray="3"/></g><g transform="translate(-110,-118) scale(1,1)"><path fill="none" stroke="#000000" d="M 994.875231413511 473.3201087127714 L 987 481 L 997.9991327438818 481.1381263279321" stroke-miterlimit="10"/></g><g transform="translate(-110,-118) scale(1,1)"><g><path fill="none" stroke="none"/><text fill="#000000" stroke="none" font-family="Arial" font-size="13px" font-style="normal" font-weight="normal" text-decoration="none" x="1351.5" y="312.5">«extend»</text></g></g><g transform="translate(-110,-118) scale(1,1)"><path fill="none" stroke="#000000" d="M 1497 292 L 940 626" stroke-miterlimit="10" stroke-dasharray="3"/></g><g transform="translate(-110,-118) scale(1,1)"><path fill="none" stroke="#000000" d="M 946.5509763991014 617.1634447764744 L 940 626 L 950.880627956082 624.3838517143133" stroke-miterlimit="10"/></g><g transform="translate(-110,-118) scale(1,1)"><g><path fill="none" stroke="none"/><text fill="#000000" stroke="none" font-family="Arial" font-size="13px" font-style="normal" font-weight="normal" text-decoration="none" x="1442.5" y="342.5">«extend»</text></g></g><g transform="translate(-110,-118) scale(1,1)"><path fill="none" stroke="#000000" d="M 1435 450 L 1008 408" stroke-miterlimit="10" stroke-dasharray="3"/></g><g transform="translate(-110,-118) scale(1,1)"><path fill="none" stroke="#000000" d="M 1018.5259301162115 404.8055054877756 L 1008 408 L 1017.701805295526 413.1841078314117" stroke-miterlimit="10"/></g><g transform="translate(-110,-118) scale(1,1)"><g><path fill="none" stroke="none"/><text fill="#000000" stroke="none" font-family="Arial" font-size="13px" font-style="normal" font-weight="normal" text-decoration="none" x="1361.5" y="435.5">«extend»</text></g></g><g transform="translate(-110,-118) scale(1,1)"><path fill="none" stroke="#000000" d="M 1435 478 L 1008 521" stroke-miterlimit="10" stroke-dasharray="3"/></g><g transform="translate(-110,-118) scale(1,1)"><path fill="none" stroke="#000000" d="M 1017.6897575512206 515.7934081590197 L 1008 521 L 1018.5333096701494 524.1700768748939" stroke-miterlimit="10"/></g><g transform="translate(-110,-118) scale(1,1)"><g><path fill="none" stroke="none"/><text fill="#000000" stroke="none" font-family="Arial" font-size="13px" font-style="normal" font-weight="normal" text-decoration="none" x="1367.5" y="472.5">«extend»</text></g></g><g transform="translate(-110,-118) scale(1,1)"><path fill="none" stroke="#000000" d="M 1435 505 L 1008 634" stroke-miterlimit="10" stroke-dasharray="3"/></g><g transform="translate(-110,-118) scale(1,1)"><path fill="none" stroke="#000000" d="M 1016.5110295222994 627.0313289308112 L 1008 634 L 1018.9458012589787 635.0906121212149" stroke-miterlimit="10"/></g><g transform="translate(-110,-118) scale(1,1)"><g><path fill="none" stroke="none"/><text fill="#000000" stroke="none" font-family="Arial" font-size="13px" font-style="normal" font-weight="normal" text-decoration="none" x="1388.5" y="530.5">«extend»</text></g></g><g transform="translate(-110,-118) scale(1,1)"><path fill="none" stroke="#000000" d="M 1498 637 L 942 304" stroke-miterlimit="10" stroke-dasharray="3"/></g><g transform="translate(-110,-118) scale(1,1)"><path fill="none" stroke="#000000" d="M 952.8814826633853 305.61038350912 L 942 304 L 948.5556570810338 312.83308328025333" stroke-miterlimit="10"/></g><g transform="translate(-110,-118) scale(1,1)"><g><path fill="none" stroke="none"/><text fill="#000000" stroke="none" font-family="Arial" font-size="13px" font-style="normal" font-weight="normal" text-decoration="none" x="1455.5" y="610.5">«extend»</text></g></g><g transform="translate(-110,-118) scale(1,1)"><path fill="none" stroke="#000000" d="M 1462 637 L 990 449" stroke-miterlimit="10" stroke-dasharray="3"/></g><g transform="translate(-110,-118) scale(1,1)"><path fill="none" stroke="#000000" d="M 1000.9989745375811 448.84980305714964 L 990 449 L 997.8836547584248 456.67124420481883" stroke-miterlimit="10"/></g><g transform="translate(-110,-118) scale(1,1)"><g><path fill="none" stroke="none"/><text fill="#000000" stroke="none" font-family="Arial" font-size="13px" font-style="normal" font-weight="normal" text-decoration="none" x="1316.5" y="614.5">«extend»</text></g></g><g transform="translate(-110,-118) scale(1,1)"><path fill="none" stroke="#000000" d="M 1435 654 L 1008 569" stroke-miterlimit="10" stroke-dasharray="3"/></g><g transform="translate(-110,-118) scale(1,1)"><path fill="none" stroke="#000000" d="M 1018.7889493938613 566.8555721096994 L 1008 569 L 1017.1452787812749 575.1125997752808" stroke-miterlimit="10"/></g><g transform="translate(-110,-118) scale(1,1)"><g><path fill="none" stroke="none"/><text fill="#000000" stroke="none" font-family="Arial" font-size="13px" font-style="normal" font-weight="normal" text-decoration="none" x="1283.5" y="645.5">«extend»</text></g></g><g transform="translate(-110,-118) scale(1,1)"><path fill="none" stroke="#000000" d="M 1435 681 L 1008 682" stroke-miterlimit="10" stroke-dasharray="3"/></g><g transform="translate(-110,-118) scale(1,1)"><path fill="none" stroke="#000000" d="M 1018.152788660315 677.7666936776345 L 1008 682 L 1018.1725053170471 686.185706102278" stroke-miterlimit="10"/></g><g transform="translate(-110,-118) scale(1,1)"><g><path fill="none" stroke="none"/><text fill="#000000" stroke="none" font-family="Arial" font-size="13px" font-style="normal" font-weight="normal" text-decoration="none" x="1368.5" y="695.5">«extend»</text></g></g></g></svg>