<svg version="1.1" xmlns="http://www.w3.org/2000/svg" xmlns:xlink="http://www.w3.org/1999/xlink" width="1061.68359375" height="516"><defs/><g><text fill="#eeeeee" stroke="none" font-family="Arial" font-size="24px" font-style="normal" font-weight="normal" text-decoration="none" x="0" y="0">UNREGISTERED</text><text fill="#eeeeee" stroke="none" font-family="Arial" font-size="24px" font-style="normal" font-weight="normal" text-decoration="none" x="0" y="30">UNREGISTERED</text><text fill="#eeeeee" stroke="none" font-family="Arial" font-size="24px" font-style="normal" font-weight="normal" text-decoration="none" x="0" y="60">UNREGISTERED</text><text fill="#eeeeee" stroke="none" font-family="Arial" font-size="24px" font-style="normal" font-weight="normal" text-decoration="none" x="0" y="90">UNREGISTERED</text><text fill="#eeeeee" stroke="none" font-family="Arial" font-size="24px" font-style="normal" font-weight="normal" text-decoration="none" x="0" y="120">UNREGISTERED</text><text fill="#eeeeee" stroke="none" font-family="Arial" font-size="24px" font-style="normal" font-weight="normal" text-decoration="none" x="0" y="150">UNREGISTERED</text><text fill="#eeeeee" stroke="none" font-family="Arial" font-size="24px" font-style="normal" font-weight="normal" text-decoration="none" x="0" y="180">UNREGISTERED</text><text fill="#eeeeee" stroke="none" font-family="Arial" font-size="24px" font-style="normal" font-weight="normal" text-decoration="none" x="0" y="210">UNREGISTERED</text><text fill="#eeeeee" stroke="none" font-family="Arial" font-size="24px" font-style="normal" font-weight="normal" text-decoration="none" x="0" y="240">UNREGISTERED</text><text fill="#eeeeee" stroke="none" font-family="Arial" font-size="24px" font-style="normal" font-weight="normal" text-decoration="none" x="0" y="270">UNREGISTERED</text><text fill="#eeeeee" stroke="none" font-family="Arial" font-size="24px" font-style="normal" font-weight="normal" text-decoration="none" x="0" y="300">UNREGISTERED</text><text fill="#eeeeee" stroke="none" font-family="Arial" font-size="24px" font-style="normal" font-weight="normal" text-decoration="none" x="0" y="330">UNREGISTERED</text><text fill="#eeeeee" stroke="none" font-family="Arial" font-size="24px" font-style="normal" font-weight="normal" text-decoration="none" x="0" y="360">UNREGISTERED</text><text fill="#eeeeee" stroke="none" font-family="Arial" font-size="24px" font-style="normal" font-weight="normal" text-decoration="none" x="0" y="390">UNREGISTERED</text><text fill="#eeeeee" stroke="none" font-family="Arial" font-size="24px" font-style="normal" font-weight="normal" text-decoration="none" x="0" y="420">UNREGISTERED</text><text fill="#eeeeee" stroke="none" font-family="Arial" font-size="24px" font-style="normal" font-weight="normal" text-decoration="none" x="0" y="450">UNREGISTERED</text><text fill="#eeeeee" stroke="none" font-family="Arial" font-size="24px" font-style="normal" font-weight="normal" text-decoration="none" x="0" y="480">UNREGISTERED</text><text fill="#eeeeee" stroke="none" font-family="Arial" font-size="24px" font-style="normal" font-weight="normal" text-decoration="none" x="0" y="510">UNREGISTERED</text><text fill="#eeeeee" stroke="none" font-family="Arial" font-size="24px" font-style="normal" font-weight="normal" text-decoration="none" x="200" y="0">UNREGISTERED</text><text fill="#eeeeee" stroke="none" font-family="Arial" font-size="24px" font-style="normal" font-weight="normal" text-decoration="none" x="200" y="30">UNREGISTERED</text><text fill="#eeeeee" stroke="none" font-family="Arial" font-size="24px" font-style="normal" font-weight="normal" text-decoration="none" x="200" y="60">UNREGISTERED</text><text fill="#eeeeee" stroke="none" font-family="Arial" font-size="24px" font-style="normal" font-weight="normal" text-decoration="none" x="200" y="90">UNREGISTERED</text><text fill="#eeeeee" stroke="none" font-family="Arial" font-size="24px" font-style="normal" font-weight="normal" text-decoration="none" x="200" y="120">UNREGISTERED</text><text fill="#eeeeee" stroke="none" font-family="Arial" font-size="24px" font-style="normal" font-weight="normal" text-decoration="none" x="200" y="150">UNREGISTERED</text><text fill="#eeeeee" stroke="none" font-family="Arial" font-size="24px" font-style="normal" font-weight="normal" text-decoration="none" x="200" y="180">UNREGISTERED</text><text fill="#eeeeee" stroke="none" font-family="Arial" font-size="24px" font-style="normal" font-weight="normal" text-decoration="none" x="200" y="210">UNREGISTERED</text><text fill="#eeeeee" stroke="none" font-family="Arial" font-size="24px" font-style="normal" font-weight="normal" text-decoration="none" x="200" y="240">UNREGISTERED</text><text fill="#eeeeee" stroke="none" font-family="Arial" font-size="24px" font-style="normal" font-weight="normal" text-decoration="none" x="200" y="270">UNREGISTERED</text><text fill="#eeeeee" stroke="none" font-family="Arial" font-size="24px" font-style="normal" font-weight="normal" text-decoration="none" x="200" y="300">UNREGISTERED</text><text fill="#eeeeee" stroke="none" font-family="Arial" font-size="24px" font-style="normal" font-weight="normal" text-decoration="none" x="200" y="330">UNREGISTERED</text><text fill="#eeeeee" stroke="none" font-family="Arial" font-size="24px" font-style="normal" font-weight="normal" text-decoration="none" x="200" y="360">UNREGISTERED</text><text fill="#eeeeee" stroke="none" font-family="Arial" font-size="24px" font-style="normal" font-weight="normal" text-decoration="none" x="200" y="390">UNREGISTERED</text><text fill="#eeeeee" stroke="none" font-family="Arial" font-size="24px" font-style="normal" font-weight="normal" text-decoration="none" x="200" y="420">UNREGISTERED</text><text fill="#eeeeee" stroke="none" font-family="Arial" font-size="24px" font-style="normal" font-weight="normal" text-decoration="none" x="200" y="450">UNREGISTERED</text><text fill="#eeeeee" stroke="none" font-family="Arial" font-size="24px" font-style="normal" font-weight="normal" text-decoration="none" x="200" y="480">UNREGISTERED</text><text fill="#eeeeee" stroke="none" font-family="Arial" font-size="24px" font-style="normal" font-weight="normal" text-decoration="none" x="200" y="510">UNREGISTERED</text><text fill="#eeeeee" stroke="none" font-family="Arial" font-size="24px" font-style="normal" font-weight="normal" text-decoration="none" x="400" y="0">UNREGISTERED</text><text fill="#eeeeee" stroke="none" font-family="Arial" font-size="24px" font-style="normal" font-weight="normal" text-decoration="none" x="400" y="30">UNREGISTERED</text><text fill="#eeeeee" stroke="none" font-family="Arial" font-size="24px" font-style="normal" font-weight="normal" text-decoration="none" x="400" y="60">UNREGISTERED</text><text fill="#eeeeee" stroke="none" font-family="Arial" font-size="24px" font-style="normal" font-weight="normal" text-decoration="none" x="400" y="90">UNREGISTERED</text><text fill="#eeeeee" stroke="none" font-family="Arial" font-size="24px" font-style="normal" font-weight="normal" text-decoration="none" x="400" y="120">UNREGISTERED</text><text fill="#eeeeee" stroke="none" font-family="Arial" font-size="24px" font-style="normal" font-weight="normal" text-decoration="none" x="400" y="150">UNREGISTERED</text><text fill="#eeeeee" stroke="none" font-family="Arial" font-size="24px" font-style="normal" font-weight="normal" text-decoration="none" x="400" y="180">UNREGISTERED</text><text fill="#eeeeee" stroke="none" font-family="Arial" font-size="24px" font-style="normal" font-weight="normal" text-decoration="none" x="400" y="210">UNREGISTERED</text><text fill="#eeeeee" stroke="none" font-family="Arial" font-size="24px" font-style="normal" font-weight="normal" text-decoration="none" x="400" y="240">UNREGISTERED</text><text fill="#eeeeee" stroke="none" font-family="Arial" font-size="24px" font-style="normal" font-weight="normal" text-decoration="none" x="400" y="270">UNREGISTERED</text><text fill="#eeeeee" stroke="none" font-family="Arial" font-size="24px" font-style="normal" font-weight="normal" text-decoration="none" x="400" y="300">UNREGISTERED</text><text fill="#eeeeee" stroke="none" font-family="Arial" font-size="24px" font-style="normal" font-weight="normal" text-decoration="none" x="400" y="330">UNREGISTERED</text><text fill="#eeeeee" stroke="none" font-family="Arial" font-size="24px" font-style="normal" font-weight="normal" text-decoration="none" x="400" y="360">UNREGISTERED</text><text fill="#eeeeee" stroke="none" font-family="Arial" font-size="24px" font-style="normal" font-weight="normal" text-decoration="none" x="400" y="390">UNREGISTERED</text><text fill="#eeeeee" stroke="none" font-family="Arial" font-size="24px" font-style="normal" font-weight="normal" text-decoration="none" x="400" y="420">UNREGISTERED</text><text fill="#eeeeee" stroke="none" font-family="Arial" font-size="24px" font-style="normal" font-weight="normal" text-decoration="none" x="400" y="450">UNREGISTERED</text><text fill="#eeeeee" stroke="none" font-family="Arial" font-size="24px" font-style="normal" font-weight="normal" text-decoration="none" x="400" y="480">UNREGISTERED</text><text fill="#eeeeee" stroke="none" font-family="Arial" font-size="24px" font-style="normal" font-weight="normal" text-decoration="none" x="400" y="510">UNREGISTERED</text><text fill="#eeeeee" stroke="none" font-family="Arial" font-size="24px" font-style="normal" font-weight="normal" text-decoration="none" x="600" y="0">UNREGISTERED</text><text fill="#eeeeee" stroke="none" font-family="Arial" font-size="24px" font-style="normal" font-weight="normal" text-decoration="none" x="600" y="30">UNREGISTERED</text><text fill="#eeeeee" stroke="none" font-family="Arial" font-size="24px" font-style="normal" font-weight="normal" text-decoration="none" x="600" y="60">UNREGISTERED</text><text fill="#eeeeee" stroke="none" font-family="Arial" font-size="24px" font-style="normal" font-weight="normal" text-decoration="none" x="600" y="90">UNREGISTERED</text><text fill="#eeeeee" stroke="none" font-family="Arial" font-size="24px" font-style="normal" font-weight="normal" text-decoration="none" x="600" y="120">UNREGISTERED</text><text fill="#eeeeee" stroke="none" font-family="Arial" font-size="24px" font-style="normal" font-weight="normal" text-decoration="none" x="600" y="150">UNREGISTERED</text><text fill="#eeeeee" stroke="none" font-family="Arial" font-size="24px" font-style="normal" font-weight="normal" text-decoration="none" x="600" y="180">UNREGISTERED</text><text fill="#eeeeee" stroke="none" font-family="Arial" font-size="24px" font-style="normal" font-weight="normal" text-decoration="none" x="600" y="210">UNREGISTERED</text><text fill="#eeeeee" stroke="none" font-family="Arial" font-size="24px" font-style="normal" font-weight="normal" text-decoration="none" x="600" y="240">UNREGISTERED</text><text fill="#eeeeee" stroke="none" font-family="Arial" font-size="24px" font-style="normal" font-weight="normal" text-decoration="none" x="600" y="270">UNREGISTERED</text><text fill="#eeeeee" stroke="none" font-family="Arial" font-size="24px" font-style="normal" font-weight="normal" text-decoration="none" x="600" y="300">UNREGISTERED</text><text fill="#eeeeee" stroke="none" font-family="Arial" font-size="24px" font-style="normal" font-weight="normal" text-decoration="none" x="600" y="330">UNREGISTERED</text><text fill="#eeeeee" stroke="none" font-family="Arial" font-size="24px" font-style="normal" font-weight="normal" text-decoration="none" x="600" y="360">UNREGISTERED</text><text fill="#eeeeee" stroke="none" font-family="Arial" font-size="24px" font-style="normal" font-weight="normal" text-decoration="none" x="600" y="390">UNREGISTERED</text><text fill="#eeeeee" stroke="none" font-family="Arial" font-size="24px" font-style="normal" font-weight="normal" text-decoration="none" x="600" y="420">UNREGISTERED</text><text fill="#eeeeee" stroke="none" font-family="Arial" font-size="24px" font-style="normal" font-weight="normal" text-decoration="none" x="600" y="450">UNREGISTERED</text><text fill="#eeeeee" stroke="none" font-family="Arial" font-size="24px" font-style="normal" font-weight="normal" text-decoration="none" x="600" y="480">UNREGISTERED</text><text fill="#eeeeee" stroke="none" font-family="Arial" font-size="24px" font-style="normal" font-weight="normal" text-decoration="none" x="600" y="510">UNREGISTERED</text><text fill="#eeeeee" stroke="none" font-family="Arial" font-size="24px" font-style="normal" font-weight="normal" text-decoration="none" x="800" y="0">UNREGISTERED</text><text fill="#eeeeee" stroke="none" font-family="Arial" font-size="24px" font-style="normal" font-weight="normal" text-decoration="none" x="800" y="30">UNREGISTERED</text><text fill="#eeeeee" stroke="none" font-family="Arial" font-size="24px" font-style="normal" font-weight="normal" text-decoration="none" x="800" y="60">UNREGISTERED</text><text fill="#eeeeee" stroke="none" font-family="Arial" font-size="24px" font-style="normal" font-weight="normal" text-decoration="none" x="800" y="90">UNREGISTERED</text><text fill="#eeeeee" stroke="none" font-family="Arial" font-size="24px" font-style="normal" font-weight="normal" text-decoration="none" x="800" y="120">UNREGISTERED</text><text fill="#eeeeee" stroke="none" font-family="Arial" font-size="24px" font-style="normal" font-weight="normal" text-decoration="none" x="800" y="150">UNREGISTERED</text><text fill="#eeeeee" stroke="none" font-family="Arial" font-size="24px" font-style="normal" font-weight="normal" text-decoration="none" x="800" y="180">UNREGISTERED</text><text fill="#eeeeee" stroke="none" font-family="Arial" font-size="24px" font-style="normal" font-weight="normal" text-decoration="none" x="800" y="210">UNREGISTERED</text><text fill="#eeeeee" stroke="none" font-family="Arial" font-size="24px" font-style="normal" font-weight="normal" text-decoration="none" x="800" y="240">UNREGISTERED</text><text fill="#eeeeee" stroke="none" font-family="Arial" font-size="24px" font-style="normal" font-weight="normal" text-decoration="none" x="800" y="270">UNREGISTERED</text><text fill="#eeeeee" stroke="none" font-family="Arial" font-size="24px" font-style="normal" font-weight="normal" text-decoration="none" x="800" y="300">UNREGISTERED</text><text fill="#eeeeee" stroke="none" font-family="Arial" font-size="24px" font-style="normal" font-weight="normal" text-decoration="none" x="800" y="330">UNREGISTERED</text><text fill="#eeeeee" stroke="none" font-family="Arial" font-size="24px" font-style="normal" font-weight="normal" text-decoration="none" x="800" y="360">UNREGISTERED</text><text fill="#eeeeee" stroke="none" font-family="Arial" font-size="24px" font-style="normal" font-weight="normal" text-decoration="none" x="800" y="390">UNREGISTERED</text><text fill="#eeeeee" stroke="none" font-family="Arial" font-size="24px" font-style="normal" font-weight="normal" text-decoration="none" x="800" y="420">UNREGISTERED</text><text fill="#eeeeee" stroke="none" font-family="Arial" font-size="24px" font-style="normal" font-weight="normal" text-decoration="none" x="800" y="450">UNREGISTERED</text><text fill="#eeeeee" stroke="none" font-family="Arial" font-size="24px" font-style="normal" font-weight="normal" text-decoration="none" x="800" y="480">UNREGISTERED</text><text fill="#eeeeee" stroke="none" font-family="Arial" font-size="24px" font-style="normal" font-weight="normal" text-decoration="none" x="800" y="510">UNREGISTERED</text><text fill="#eeeeee" stroke="none" font-family="Arial" font-size="24px" font-style="normal" font-weight="normal" text-decoration="none" x="1000" y="0">UNREGISTERED</text><text fill="#eeeeee" stroke="none" font-family="Arial" font-size="24px" font-style="normal" font-weight="normal" text-decoration="none" x="1000" y="30">UNREGISTERED</text><text fill="#eeeeee" stroke="none" font-family="Arial" font-size="24px" font-style="normal" font-weight="normal" text-decoration="none" x="1000" y="60">UNREGISTERED</text><text fill="#eeeeee" stroke="none" font-family="Arial" font-size="24px" font-style="normal" font-weight="normal" text-decoration="none" x="1000" y="90">UNREGISTERED</text><text fill="#eeeeee" stroke="none" font-family="Arial" font-size="24px" font-style="normal" font-weight="normal" text-decoration="none" x="1000" y="120">UNREGISTERED</text><text fill="#eeeeee" stroke="none" font-family="Arial" font-size="24px" font-style="normal" font-weight="normal" text-decoration="none" x="1000" y="150">UNREGISTERED</text><text fill="#eeeeee" stroke="none" font-family="Arial" font-size="24px" font-style="normal" font-weight="normal" text-decoration="none" x="1000" y="180">UNREGISTERED</text><text fill="#eeeeee" stroke="none" font-family="Arial" font-size="24px" font-style="normal" font-weight="normal" text-decoration="none" x="1000" y="210">UNREGISTERED</text><text fill="#eeeeee" stroke="none" font-family="Arial" font-size="24px" font-style="normal" font-weight="normal" text-decoration="none" x="1000" y="240">UNREGISTERED</text><text fill="#eeeeee" stroke="none" font-family="Arial" font-size="24px" font-style="normal" font-weight="normal" text-decoration="none" x="1000" y="270">UNREGISTERED</text><text fill="#eeeeee" stroke="none" font-family="Arial" font-size="24px" font-style="normal" font-weight="normal" text-decoration="none" x="1000" y="300">UNREGISTERED</text><text fill="#eeeeee" stroke="none" font-family="Arial" font-size="24px" font-style="normal" font-weight="normal" text-decoration="none" x="1000" y="330">UNREGISTERED</text><text fill="#eeeeee" stroke="none" font-family="Arial" font-size="24px" font-style="normal" font-weight="normal" text-decoration="none" x="1000" y="360">UNREGISTERED</text><text fill="#eeeeee" stroke="none" font-family="Arial" font-size="24px" font-style="normal" font-weight="normal" text-decoration="none" x="1000" y="390">UNREGISTERED</text><text fill="#eeeeee" stroke="none" font-family="Arial" font-size="24px" font-style="normal" font-weight="normal" text-decoration="none" x="1000" y="420">UNREGISTERED</text><text fill="#eeeeee" stroke="none" font-family="Arial" font-size="24px" font-style="normal" font-weight="normal" text-decoration="none" x="1000" y="450">UNREGISTERED</text><text fill="#eeeeee" stroke="none" font-family="Arial" font-size="24px" font-style="normal" font-weight="normal" text-decoration="none" x="1000" y="480">UNREGISTERED</text><text fill="#eeeeee" stroke="none" font-family="Arial" font-size="24px" font-style="normal" font-weight="normal" text-decoration="none" x="1000" y="510">UNREGISTERED</text><g transform="translate(-206,-62) scale(1,1)"><rect fill="#C0C0C0" stroke="none" x="303" y="79" width="800" height="496" opacity="0.2"/></g><g transform="translate(-206,-62) scale(1,1)"><rect fill="#ffffff" stroke="none" x="296" y="72" width="800" height="496"/></g><g transform="translate(-206,-62) scale(1,1)"><path fill="none" stroke="#000000" d="M 296 72 L 1096 72 L 1096 568 L 296 568 L 296 72 Z Z" stroke-miterlimit="10"/></g><g transform="translate(-206,-62) scale(1,1)"><g><path fill="none" stroke="none"/><text fill="#000000" stroke="none" font-family="Arial" font-size="13px" font-style="normal" font-weight="bold" text-decoration="none" x="591.94287109375" y="91.5">1.3.3 Annotation Use Case Diagram</text></g></g><g transform="translate(-206,-62) scale(1,1)"><path fill="#ffffff" stroke="none" d="M 227.32072727272728 233.68 C 227.32072727272728 228.886167936 231.20656959767274 225 236 225 C 240.79343040232726 225 244.67927272727272 228.886167936 244.67927272727272 233.68 C 244.67927272727272 238.47383206400002 240.79343040232726 242.36 236 242.36 C 231.20656959767274 242.36 227.32072727272728 238.47383206400002 227.32072727272728 233.68 Z"/></g><g transform="translate(-206,-62) scale(1,1)"><path fill="none" stroke="#000000" d="M 227.32072727272728 233.68 C 227.32072727272728 228.886167936 231.20656959767274 225 236 225 C 240.79343040232726 225 244.67927272727272 228.886167936 244.67927272727272 233.68 C 244.67927272727272 238.47383206400002 240.79343040232726 242.36 236 242.36 C 231.20656959767274 242.36 227.32072727272728 238.47383206400002 227.32072727272728 233.68 Z" stroke-miterlimit="10"/></g><g transform="translate(-206,-62) scale(1,1)"><path fill="none" stroke="#000000" d="M 236 242.36 L 236 259.64" stroke-miterlimit="10"/></g><g transform="translate(-206,-62) scale(1,1)"><path fill="none" stroke="#000000" d="M 226.81018181818183 248.84 L 245.18981818181817 248.84" stroke-miterlimit="10"/></g><g transform="translate(-206,-62) scale(1,1)"><path fill="none" stroke="#000000" d="M 236 259.64 L 223.23636363636365 277" stroke-miterlimit="10"/></g><g transform="translate(-206,-62) scale(1,1)"><path fill="none" stroke="#000000" d="M 236 259.64 L 248.76363636363635 277" stroke-miterlimit="10"/></g><g transform="translate(-206,-62) scale(1,1)"><g><path fill="none" stroke="none"/><text fill="#000000" stroke="none" font-family="Arial" font-size="13px" font-style="normal" font-weight="bold" text-decoration="none" x="222.2763671875" y="297.5">User</text></g></g><g transform="translate(-206,-62) scale(1,1)"><path fill="#C0C0C0" stroke="none" d="M 471 304 C 471 294.6111584 504.3547824 287 545.5 287 C 586.6452176 287 620 294.6111584 620 304 C 620 313.3888416 586.6452176 321 545.5 321 C 504.3547824 321 471 313.3888416 471 304 Z" opacity="0.2"/></g><g transform="translate(-206,-62) scale(1,1)"><path fill="#ffffff" stroke="none" d="M 464 297 C 464 287.6111584 497.3547824 280 538.5 280 C 579.6452176 280 613 287.6111584 613 297 C 613 306.3888416 579.6452176 314 538.5 314 C 497.3547824 314 464 306.3888416 464 297 Z"/></g><g transform="translate(-206,-62) scale(1,1)"><path fill="none" stroke="#000000" d="M 464 297 C 464 287.6111584 497.3547824 280 538.5 280 C 579.6452176 280 613 287.6111584 613 297 C 613 306.3888416 579.6452176 314 538.5 314 C 497.3547824 314 464 306.3888416 464 297 Z" stroke-miterlimit="10"/></g><g transform="translate(-206,-62) scale(1,1)"><g><path fill="none" stroke="none"/><text fill="#000000" stroke="none" font-family="Arial" font-size="13px" font-style="normal" font-weight="bold" text-decoration="none" x="500.563232421875" y="304">Select Target</text></g></g><g transform="translate(-206,-62) scale(1,1)"><path fill="#C0C0C0" stroke="none" d="M 615 210.5 C 615 199.7304464 642.9822 191 677.5 191 C 712.0178 191 740 199.7304464 740 210.5 C 740 221.2695536 712.0178 230 677.5 230 C 642.9822 230 615 221.2695536 615 210.5 Z" opacity="0.2"/></g><g transform="translate(-206,-62) scale(1,1)"><path fill="#ffffff" stroke="none" d="M 608 203.5 C 608 192.7304464 635.9822 184 670.5 184 C 705.0178 184 733 192.7304464 733 203.5 C 733 214.2695536 705.0178 223 670.5 223 C 635.9822 223 608 214.2695536 608 203.5 Z"/></g><g transform="translate(-206,-62) scale(1,1)"><path fill="none" stroke="#000000" d="M 608 203.5 C 608 192.7304464 635.9822 184 670.5 184 C 705.0178 184 733 192.7304464 733 203.5 C 733 214.2695536 705.0178 223 670.5 223 C 635.9822 223 608 214.2695536 608 203.5 Z" stroke-miterlimit="10"/></g><g transform="translate(-206,-62) scale(1,1)"><g><path fill="none" stroke="none"/><text fill="#000000" stroke="none" font-family="Arial" font-size="13px" font-style="normal" font-weight="bold" text-decoration="none" x="632.563232421875" y="210.5">Image Select</text></g></g><g transform="translate(-206,-62) scale(1,1)"><path fill="#C0C0C0" stroke="none" d="M 663 402.5 C 663 391.7304464 687.8481936 383 718.5 383 C 749.1518064 383 774 391.7304464 774 402.5 C 774 413.2695536 749.1518064 422 718.5 422 C 687.8481936 422 663 413.2695536 663 402.5 Z" opacity="0.2"/></g><g transform="translate(-206,-62) scale(1,1)"><path fill="#ffffff" stroke="none" d="M 656 395.5 C 656 384.7304464 680.8481936 376 711.5 376 C 742.1518064 376 767 384.7304464 767 395.5 C 767 406.2695536 742.1518064 415 711.5 415 C 680.8481936 415 656 406.2695536 656 395.5 Z"/></g><g transform="translate(-206,-62) scale(1,1)"><path fill="none" stroke="#000000" d="M 656 395.5 C 656 384.7304464 680.8481936 376 711.5 376 C 742.1518064 376 767 384.7304464 767 395.5 C 767 406.2695536 742.1518064 415 711.5 415 C 680.8481936 415 656 406.2695536 656 395.5 Z" stroke-miterlimit="10"/></g><g transform="translate(-206,-62) scale(1,1)"><g><path fill="none" stroke="none"/><text fill="#000000" stroke="none" font-family="Arial" font-size="13px" font-style="normal" font-weight="bold" text-decoration="none" x="679.707763671875" y="402.5">Text Select</text></g></g><g transform="translate(-206,-62) scale(1,1)"><path fill="#C0C0C0" stroke="none" d="M 663 306.5 C 663 295.7304464 718.0689696 287 786 287 C 853.9310304 287 909 295.7304464 909 306.5 C 909 317.2695536 853.9310304 326 786 326 C 718.0689696 326 663 317.2695536 663 306.5 Z" opacity="0.2"/></g><g transform="translate(-206,-62) scale(1,1)"><path fill="#ffffff" stroke="none" d="M 656 299.5 C 656 288.7304464 711.0689696 280 779 280 C 846.9310304 280 902 288.7304464 902 299.5 C 902 310.2695536 846.9310304 319 779 319 C 711.0689696 319 656 310.2695536 656 299.5 Z"/></g><g transform="translate(-206,-62) scale(1,1)"><path fill="none" stroke="#000000" d="M 656 299.5 C 656 288.7304464 711.0689696 280 779 280 C 846.9310304 280 902 288.7304464 902 299.5 C 902 310.2695536 846.9310304 319 779 319 C 711.0689696 319 656 310.2695536 656 299.5 Z" stroke-miterlimit="10"/></g><g transform="translate(-206,-62) scale(1,1)"><g><path fill="none" stroke="none"/><text fill="#000000" stroke="none" font-family="Arial" font-size="13px" font-style="normal" font-weight="bold" text-decoration="none" x="702.396484375" y="306.5">Create Annotation Context</text></g></g><g transform="translate(-206,-62) scale(1,1)"><path fill="#C0C0C0" stroke="none" d="M 927 282.5 C 927 267.312168 962.3695008 255 1006 255 C 1049.6304992 255 1085 267.312168 1085 282.5 C 1085 297.687832 1049.6304992 310 1006 310 C 962.3695008 310 927 297.687832 927 282.5 Z" opacity="0.2"/></g><g transform="translate(-206,-62) scale(1,1)"><path fill="#ffffff" stroke="none" d="M 920 275.5 C 920 260.312168 955.3695008 248 999 248 C 1042.6304992 248 1078 260.312168 1078 275.5 C 1078 290.687832 1042.6304992 303 999 303 C 955.3695008 303 920 290.687832 920 275.5 Z"/></g><g transform="translate(-206,-62) scale(1,1)"><path fill="none" stroke="#000000" d="M 920 275.5 C 920 260.312168 955.3695008 248 999 248 C 1042.6304992 248 1078 260.312168 1078 275.5 C 1078 290.687832 1042.6304992 303 999 303 C 955.3695008 303 920 290.687832 920 275.5 Z" stroke-miterlimit="10"/></g><g transform="translate(-206,-62) scale(1,1)"><g><path fill="none" stroke="none"/><text fill="#000000" stroke="none" font-family="Arial" font-size="13px" font-style="normal" font-weight="bold" text-decoration="none" x="951.29736328125" y="282.5">Save Annotation</text></g></g><g transform="translate(-206,-62) scale(1,1)"><path fill="none" stroke="#000000" d="M 903 285 L 919 284" stroke-miterlimit="10"/></g><g transform="translate(-206,-62) scale(1,1)"><path fill="none" stroke="#000000" d="M 909.1196986572251 288.8352502909322 L 919 284 L 908.594533650905 280.4326101898097" stroke-miterlimit="10"/></g><g transform="translate(-206,-62) scale(1,1)"><path fill="#ffffff" stroke="none" d="M 1188.1625241477273 241.68 C 1188.1625241477273 236.886167936 1192.0483664726728 233 1196.841796875 233 C 1201.6352272773272 233 1205.5210696022727 236.886167936 1205.5210696022727 241.68 C 1205.5210696022727 246.47383206400002 1201.6352272773272 250.36 1196.841796875 250.36 C 1192.0483664726728 250.36 1188.1625241477273 246.47383206400002 1188.1625241477273 241.68 Z"/></g><g transform="translate(-206,-62) scale(1,1)"><path fill="none" stroke="#000000" d="M 1188.1625241477273 241.68 C 1188.1625241477273 236.886167936 1192.0483664726728 233 1196.841796875 233 C 1201.6352272773272 233 1205.5210696022727 236.886167936 1205.5210696022727 241.68 C 1205.5210696022727 246.47383206400002 1201.6352272773272 250.36 1196.841796875 250.36 C 1192.0483664726728 250.36 1188.1625241477273 246.47383206400002 1188.1625241477273 241.68 Z" stroke-miterlimit="10"/></g><g transform="translate(-206,-62) scale(1,1)"><path fill="none" stroke="#000000" d="M 1196.841796875 250.36 L 1196.841796875 267.64" stroke-miterlimit="10"/></g><g transform="translate(-206,-62) scale(1,1)"><path fill="none" stroke="#000000" d="M 1187.6519786931817 256.84 L 1206.0316150568183 256.84" stroke-miterlimit="10"/></g><g transform="translate(-206,-62) scale(1,1)"><path fill="none" stroke="#000000" d="M 1196.841796875 267.64 L 1184.0781605113636 285" stroke-miterlimit="10"/></g><g transform="translate(-206,-62) scale(1,1)"><path fill="none" stroke="#000000" d="M 1196.841796875 267.64 L 1209.6054332386364 285" stroke-miterlimit="10"/></g><g transform="translate(-206,-62) scale(1,1)"><g><path fill="none" stroke="none"/><text fill="#000000" stroke="none" font-family="Arial" font-size="13px" font-style="normal" font-weight="bold" text-decoration="none" x="1144.81005859375" y="305.5">Annotation Server</text></g></g><g transform="translate(-206,-62) scale(1,1)"><path fill="none" stroke="#000000" d="M 1079 273 L 1135 272" stroke-miterlimit="10"/></g><g transform="translate(-206,-62) scale(1,1)"><path fill="none" stroke="#000000" d="M 1124.9141030571882 276.3902941654267 L 1135 272 L 1124.7637871016123 267.9726006531661" stroke-miterlimit="10"/></g><g transform="translate(-206,-62) scale(1,1)"><path fill="none" stroke="#000000" d="M 641 224 L 563 279" stroke-miterlimit="10" stroke-dasharray="3"/></g><g transform="translate(-206,-62) scale(1,1)"><path fill="none" stroke="#000000" d="M 568.879702478863 269.70327483680126 L 563 279 L 573.7313548998887 276.5838000884379" stroke-miterlimit="10"/></g><g transform="translate(-206,-62) scale(1,1)"><g><path fill="none" stroke="none"/><text fill="#000000" stroke="none" font-family="Arial" font-size="13px" font-style="normal" font-weight="normal" text-decoration="none" x="627.5" y="246.5">«extend»</text></g></g><g transform="translate(-206,-62) scale(1,1)"><path fill="none" stroke="#000000" d="M 676 375 L 570 315" stroke-miterlimit="10" stroke-dasharray="3"/></g><g transform="translate(-206,-62) scale(1,1)"><path fill="none" stroke="#000000" d="M 580.9177384137577 316.34275386008005 L 570 315 L 576.7705365076619 323.6694772275159" stroke-miterlimit="10"/></g><g transform="translate(-206,-62) scale(1,1)"><g><path fill="none" stroke="none"/><text fill="#000000" stroke="none" font-family="Arial" font-size="13px" font-style="normal" font-weight="normal" text-decoration="none" x="581.5" y="377.5">«extend»</text></g></g><g transform="translate(-206,-62) scale(1,1)"><path fill="none" stroke="#000000" d="M 725 375 L 764 320" stroke-miterlimit="10" stroke-dasharray="3"/></g><g transform="translate(-206,-62) scale(1,1)"><path fill="none" stroke="#000000" d="M 761.555458497074 330.7249343513363 L 764 320 L 754.6877743187787 325.85512193399956" stroke-miterlimit="10"/></g><g transform="translate(-206,-62) scale(1,1)"><g><path fill="none" stroke="none"/><text fill="#000000" stroke="none" font-family="Arial" font-size="13px" font-style="normal" font-weight="normal" text-decoration="none" x="691.5" y="335.5">«include»</text></g></g><g transform="translate(-206,-62) scale(1,1)"><path fill="none" stroke="#000000" d="M 694 224 L 756 279" stroke-miterlimit="10" stroke-dasharray="3"/></g><g transform="translate(-206,-62) scale(1,1)"><path fill="none" stroke="#000000" d="M 745.6040632451758 275.40493407714195 L 756 279 L 751.191058116743 269.10686713101177" stroke-miterlimit="10"/></g><g transform="translate(-206,-62) scale(1,1)"><g><path fill="none" stroke="none"/><text fill="#000000" stroke="none" font-family="Arial" font-size="13px" font-style="normal" font-weight="normal" text-decoration="none" x="734.5" y="248.5">«include»</text></g></g><g transform="translate(-206,-62) scale(1,1)"><path fill="none" stroke="#000000" d="M 659 476 L 790 480" stroke-miterlimit="10" stroke-dasharray="3"/></g><g transform="translate(-206,-62) scale(1,1)"><path fill="none" stroke="#000000" d="M 779.7135843841859 483.8973906371744 L 790 480 L 779.9705344154756 475.48227711243356" stroke-miterlimit="10"/></g><g transform="translate(-206,-62) scale(1,1)"><g><path fill="none" stroke="none"/><text fill="#000000" stroke="none" font-family="Arial" font-size="13px" font-style="normal" font-weight="normal" text-decoration="none" x="676.5" y="466.5">«include»</text></g></g><g transform="translate(-206,-62) scale(1,1)"><path fill="#C0C0C0" stroke="none" d="M 798 491 C 798 481.6111584 855.3075456 474 926 474 C 996.6924544 474 1054 481.6111584 1054 491 C 1054 500.3888416 996.6924544 508 926 508 C 855.3075456 508 798 500.3888416 798 491 Z" opacity="0.2"/></g><g transform="translate(-206,-62) scale(1,1)"><path fill="#ffffff" stroke="none" d="M 791 484 C 791 474.6111584 848.3075456 467 919 467 C 989.6924544 467 1047 474.6111584 1047 484 C 1047 493.3888416 989.6924544 501 919 501 C 848.3075456 501 791 493.3888416 791 484 Z"/></g><g transform="translate(-206,-62) scale(1,1)"><path fill="none" stroke="#000000" d="M 791 484 C 791 474.6111584 848.3075456 467 919 467 C 989.6924544 467 1047 474.6111584 1047 484 C 1047 493.3888416 989.6924544 501 919 501 C 848.3075456 501 791 493.3888416 791 484 Z" stroke-miterlimit="10"/></g><g transform="translate(-206,-62) scale(1,1)"><g><path fill="none" stroke="none"/><text fill="#000000" stroke="none" font-family="Arial" font-size="13px" font-style="normal" font-weight="bold" text-decoration="none" x="838.781494140625" y="491">Retrieve Annotated Content</text></g></g><g transform="translate(-206,-62) scale(1,1)"><path fill="#C0C0C0" stroke="none" d="M 439 480 C 439 470.6111584 489.5918176 463 552 463 C 614.4081824 463 665 470.6111584 665 480 C 665 489.3888416 614.4081824 497 552 497 C 489.5918176 497 439 489.3888416 439 480 Z" opacity="0.2"/></g><g transform="translate(-206,-62) scale(1,1)"><path fill="#ffffff" stroke="none" d="M 432 473 C 432 463.6111584 482.5918176 456 545 456 C 607.4081824 456 658 463.6111584 658 473 C 658 482.3888416 607.4081824 490 545 490 C 482.5918176 490 432 482.3888416 432 473 Z"/></g><g transform="translate(-206,-62) scale(1,1)"><path fill="none" stroke="#000000" d="M 432 473 C 432 463.6111584 482.5918176 456 545 456 C 607.4081824 456 658 463.6111584 658 473 C 658 482.3888416 607.4081824 490 545 490 C 482.5918176 490 432 482.3888416 432 473 Z" stroke-miterlimit="10"/></g><g transform="translate(-206,-62) scale(1,1)"><g><path fill="none" stroke="none"/><text fill="#000000" stroke="none" font-family="Arial" font-size="13px" font-style="normal" font-weight="bold" text-decoration="none" x="475.020263671875" y="480">Select View Annotations</text></g></g><g transform="translate(-206,-62) scale(1,1)"><path fill="#C0C0C0" stroke="none" d="M 319 304 C 319 294.6111584 342.0573328 287 370.5 287 C 398.9426672 287 422 294.6111584 422 304 C 422 313.3888416 398.9426672 321 370.5 321 C 342.0573328 321 319 313.3888416 319 304 Z" opacity="0.2"/></g><g transform="translate(-206,-62) scale(1,1)"><path fill="#ffffff" stroke="none" d="M 312 297 C 312 287.6111584 335.0573328 280 363.5 280 C 391.9426672 280 415 287.6111584 415 297 C 415 306.3888416 391.9426672 314 363.5 314 C 335.0573328 314 312 306.3888416 312 297 Z"/></g><g transform="translate(-206,-62) scale(1,1)"><path fill="none" stroke="#000000" d="M 312 297 C 312 287.6111584 335.0573328 280 363.5 280 C 391.9426672 280 415 287.6111584 415 297 C 415 306.3888416 391.9426672 314 363.5 314 C 335.0573328 314 312 306.3888416 312 297 Z" stroke-miterlimit="10"/></g><g transform="translate(-206,-62) scale(1,1)"><g><path fill="none" stroke="none"/><text fill="#000000" stroke="none" font-family="Arial" font-size="13px" font-style="normal" font-weight="bold" text-decoration="none" x="332.54248046875" y="304">View Page</text></g></g><g transform="translate(-206,-62) scale(1,1)"><path fill="none" stroke="#000000" d="M 942 466 L 1143 312" stroke-miterlimit="10"/></g><g transform="translate(-206,-62) scale(1,1)"><path fill="none" stroke="#000000" d="M 1137.4930552884412 321.5222665339631 L 1143 312 L 1132.3727428124064 314.8392612892683" stroke-miterlimit="10"/></g><g transform="translate(-206,-62) scale(1,1)"><path fill="none" stroke="#000000" d="M 257 269 L 311 283" stroke-miterlimit="10"/></g><g transform="translate(-206,-62) scale(1,1)"><path fill="none" stroke="#000000" d="M 300.10613259726404 284.52435330931087 L 311 283 L 302.21899192424047 276.3747530481162" stroke-miterlimit="10"/></g><g transform="translate(-206,-62) scale(1,1)"><path fill="none" stroke="#000000" d="M 526 455 L 382 315" stroke-miterlimit="10" stroke-dasharray="3"/></g><g transform="translate(-206,-62) scale(1,1)"><path fill="none" stroke="#000000" d="M 392.22095010837666 319.0659782195771 L 382 315 L 386.35222236058274 325.10238390302226" stroke-miterlimit="10"/></g><g transform="translate(-206,-62) scale(1,1)"><g><path fill="none" stroke="none"/><text fill="#000000" stroke="none" font-family="Arial" font-size="13px" font-style="normal" font-weight="normal" text-decoration="none" x="406.5" y="412.5">«extend»</text></g></g><g transform="translate(-206,-62) scale(1,1)"><path fill="none" stroke="#000000" d="M 463 297 L 416 297" stroke-miterlimit="10" stroke-dasharray="3"/></g><g transform="translate(-206,-62) scale(1,1)"><path fill="none" stroke="#000000" d="M 426.16267485762415 292.790482243984 L 416 297 L 426.16267485762415 301.209517756016" stroke-miterlimit="10"/></g><g transform="translate(-206,-62) scale(1,1)"><g><path fill="none" stroke="none"/><text fill="#000000" stroke="none" font-family="Arial" font-size="13px" font-style="normal" font-weight="normal" text-decoration="none" x="411.5" y="333.5">«extend»</text></g></g></g></svg>