<svg version="1.1" xmlns="http://www.w3.org/2000/svg" xmlns:xlink="http://www.w3.org/1999/xlink" width="934.80810546875" height="396"><defs/><g><g transform="translate(-142,-62) scale(1,1)"><rect fill="#C0C0C0" stroke="none" x="295" y="79" width="696" height="376" opacity="0.2"/></g><g transform="translate(-142,-62) scale(1,1)"><rect fill="#ffffff" stroke="none" x="288" y="72" width="696" height="376"/></g><g transform="translate(-142,-62) scale(1,1)"><path fill="none" stroke="#000000" d="M 288 72 L 984 72 L 984 448 L 288 448 L 288 72 Z Z" stroke-miterlimit="10"/></g><g transform="translate(-142,-62) scale(1,1)"><g><path fill="none" stroke="none"/><text fill="#000000" stroke="none" font-family="Arial" font-size="13px" font-style="normal" font-weight="bold" text-decoration="none" x="513.5283203125" y="91.5">1.3.1 Semantic Search Use Case Diagram</text></g></g><g transform="translate(-142,-62) scale(1,1)"><path fill="#ffffff" stroke="none" d="M 201.63615696022728 233.68 C 201.63615696022728 228.886167936 205.52199928517274 225 210.3154296875 225 C 215.10886008982726 225 218.99470241477272 228.886167936 218.99470241477272 233.68 C 218.99470241477272 238.47383206400002 215.10886008982726 242.36 210.3154296875 242.36 C 205.52199928517274 242.36 201.63615696022728 238.47383206400002 201.63615696022728 233.68 Z"/></g><g transform="translate(-142,-62) scale(1,1)"><path fill="none" stroke="#000000" d="M 201.63615696022728 233.68 C 201.63615696022728 228.886167936 205.52199928517274 225 210.3154296875 225 C 215.10886008982726 225 218.99470241477272 228.886167936 218.99470241477272 233.68 C 218.99470241477272 238.47383206400002 215.10886008982726 242.36 210.3154296875 242.36 C 205.52199928517274 242.36 201.63615696022728 238.47383206400002 201.63615696022728 233.68 Z" stroke-miterlimit="10"/></g><g transform="translate(-142,-62) scale(1,1)"><path fill="none" stroke="#000000" d="M 210.3154296875 242.36 L 210.3154296875 259.64" stroke-miterlimit="10"/></g><g transform="translate(-142,-62) scale(1,1)"><path fill="none" stroke="#000000" d="M 201.12561150568183 248.84 L 219.50524786931817 248.84" stroke-miterlimit="10"/></g><g transform="translate(-142,-62) scale(1,1)"><path fill="none" stroke="#000000" d="M 210.3154296875 259.64 L 197.55179332386365 277" stroke-miterlimit="10"/></g><g transform="translate(-142,-62) scale(1,1)"><path fill="none" stroke="#000000" d="M 210.3154296875 259.64 L 223.07906605113635 277" stroke-miterlimit="10"/></g><g transform="translate(-142,-62) scale(1,1)"><g><path fill="none" stroke="none"/><text fill="#000000" stroke="none" font-family="Arial" font-size="13px" font-style="normal" font-weight="bold" text-decoration="none" x="160.4609375" y="297.5">Anonymous User</text></g></g><g transform="translate(-142,-62) scale(1,1)"><path fill="#C0C0C0" stroke="none" d="M 303 272 C 303 262.6111584 336.3547824 255 377.5 255 C 418.6452176 255 452 262.6111584 452 272 C 452 281.3888416 418.6452176 289 377.5 289 C 336.3547824 289 303 281.3888416 303 272 Z" opacity="0.2"/></g><g transform="translate(-142,-62) scale(1,1)"><path fill="#ffffff" stroke="none" d="M 296 265 C 296 255.6111584 329.3547824 248 370.5 248 C 411.6452176 248 445 255.6111584 445 265 C 445 274.3888416 411.6452176 282 370.5 282 C 329.3547824 282 296 274.3888416 296 265 Z"/></g><g transform="translate(-142,-62) scale(1,1)"><path fill="none" stroke="#000000" d="M 296 265 C 296 255.6111584 329.3547824 248 370.5 248 C 411.6452176 248 445 255.6111584 445 265 C 445 274.3888416 411.6452176 282 370.5 282 C 329.3547824 282 296 274.3888416 296 265 Z" stroke-miterlimit="10"/></g><g transform="translate(-142,-62) scale(1,1)"><g><path fill="none" stroke="none"/><text fill="#000000" stroke="none" font-family="Arial" font-size="13px" font-style="normal" font-weight="bold" text-decoration="none" x="325.333251953125" y="272">Search Content</text></g></g><g transform="translate(-142,-62) scale(1,1)"><path fill="#C0C0C0" stroke="none" d="M 791 144 C 791 134.6111584 835.9953776 127 891.5 127 C 947.0046224 127 992 134.6111584 992 144 C 992 153.3888416 947.0046224 161 891.5 161 C 835.9953776 161 791 153.3888416 791 144 Z" opacity="0.2"/></g><g transform="translate(-142,-62) scale(1,1)"><path fill="#ffffff" stroke="none" d="M 784 137 C 784 127.6111584 828.9953776 120 884.5 120 C 940.0046224 120 985 127.6111584 985 137 C 985 146.3888416 940.0046224 154 884.5 154 C 828.9953776 154 784 146.3888416 784 137 Z"/></g><g transform="translate(-142,-62) scale(1,1)"><path fill="none" stroke="#000000" d="M 784 137 C 784 127.6111584 828.9953776 120 884.5 120 C 940.0046224 120 985 127.6111584 985 137 C 985 146.3888416 940.0046224 154 884.5 154 C 828.9953776 154 784 146.3888416 784 137 Z" stroke-miterlimit="10"/></g><g transform="translate(-142,-62) scale(1,1)"><g><path fill="none" stroke="none"/><text fill="#000000" stroke="none" font-family="Arial" font-size="13px" font-style="normal" font-weight="bold" text-decoration="none" x="821.62646484375" y="144">Choose Content Type</text></g></g><g transform="translate(-142,-62) scale(1,1)"><path fill="none" stroke="#000000" d="M 270 264 L 295 264" stroke-miterlimit="10"/></g><g transform="translate(-142,-62) scale(1,1)"><path fill="#C0C0C0" stroke="none" d="M 519 128 C 519 118.6111584 568.9202448 111 630.5 111 C 692.0797552 111 742 118.6111584 742 128 C 742 137.3888416 692.0797552 145 630.5 145 C 568.9202448 145 519 137.3888416 519 128 Z" opacity="0.2"/></g><g transform="translate(-142,-62) scale(1,1)"><path fill="#ffffff" stroke="none" d="M 512 121 C 512 111.6111584 561.9202448 104 623.5 104 C 685.0797552 104 735 111.6111584 735 121 C 735 130.3888416 685.0797552 138 623.5 138 C 561.9202448 138 512 130.3888416 512 121 Z"/></g><g transform="translate(-142,-62) scale(1,1)"><path fill="none" stroke="#000000" d="M 512 121 C 512 111.6111584 561.9202448 104 623.5 104 C 685.0797552 104 735 111.6111584 735 121 C 735 130.3888416 685.0797552 138 623.5 138 C 561.9202448 138 512 130.3888416 512 121 Z" stroke-miterlimit="10"/></g><g transform="translate(-142,-62) scale(1,1)"><g><path fill="none" stroke="none"/><text fill="#000000" stroke="none" font-family="Arial" font-size="13px" font-style="normal" font-weight="bold" text-decoration="none" x="554.865966796875" y="128">Provide Filter Keywords</text></g></g><g transform="translate(-142,-62) scale(1,1)"><path fill="#C0C0C0" stroke="none" d="M 543 240 C 543 230.6111584 594.487248 223 658 223 C 721.512752 223 773 230.6111584 773 240 C 773 249.3888416 721.512752 257 658 257 C 594.487248 257 543 249.3888416 543 240 Z" opacity="0.2"/></g><g transform="translate(-142,-62) scale(1,1)"><path fill="#ffffff" stroke="none" d="M 536 233 C 536 223.6111584 587.487248 216 651 216 C 714.512752 216 766 223.6111584 766 233 C 766 242.3888416 714.512752 250 651 250 C 587.487248 250 536 242.3888416 536 233 Z"/></g><g transform="translate(-142,-62) scale(1,1)"><path fill="none" stroke="#000000" d="M 536 233 C 536 223.6111584 587.487248 216 651 216 C 714.512752 216 766 223.6111584 766 233 C 766 242.3888416 714.512752 250 651 250 C 587.487248 250 536 242.3888416 536 233 Z" stroke-miterlimit="10"/></g><g transform="translate(-142,-62) scale(1,1)"><g><path fill="none" stroke="none"/><text fill="#000000" stroke="none" font-family="Arial" font-size="13px" font-style="normal" font-weight="bold" text-decoration="none" x="578.741455078125" y="240">Choose Search Columns</text></g></g><g transform="translate(-142,-62) scale(1,1)"><path fill="#C0C0C0" stroke="none" d="M 399 352 C 399 342.6111584 427.2060576 335 462 335 C 496.7939424 335 525 342.6111584 525 352 C 525 361.3888416 496.7939424 369 462 369 C 427.2060576 369 399 361.3888416 399 352 Z" opacity="0.2"/></g><g transform="translate(-142,-62) scale(1,1)"><path fill="#ffffff" stroke="none" d="M 392 345 C 392 335.6111584 420.2060576 328 455 328 C 489.7939424 328 518 335.6111584 518 345 C 518 354.3888416 489.7939424 362 455 362 C 420.2060576 362 392 354.3888416 392 345 Z"/></g><g transform="translate(-142,-62) scale(1,1)"><path fill="none" stroke="#000000" d="M 392 345 C 392 335.6111584 420.2060576 328 455 328 C 489.7939424 328 518 335.6111584 518 345 C 518 354.3888416 489.7939424 362 455 362 C 420.2060576 362 392 354.3888416 392 345 Z" stroke-miterlimit="10"/></g><g transform="translate(-142,-62) scale(1,1)"><g><path fill="none" stroke="none"/><text fill="#000000" stroke="none" font-family="Arial" font-size="13px" font-style="normal" font-weight="bold" text-decoration="none" x="417.548828125" y="352">View Results</text></g></g><g transform="translate(-142,-62) scale(1,1)"><path fill="none" stroke="#000000" d="M 628 139 L 647 215" stroke-miterlimit="10" stroke-dasharray="3"/></g><g transform="translate(-142,-62) scale(1,1)"><path fill="none" stroke="#000000" d="M 640.4513572211376 206.16171522551727 L 647 215 L 648.6190213815926 204.1197991854035" stroke-miterlimit="10"/></g><g transform="translate(-142,-62) scale(1,1)"><g><path fill="none" stroke="none"/><text fill="#000000" stroke="none" font-family="Arial" font-size="13px" font-style="normal" font-weight="normal" text-decoration="none" x="632.5" y="182.5">«include»</text></g></g><g transform="translate(-142,-62) scale(1,1)"><path fill="none" stroke="#000000" d="M 695 215 L 840 155" stroke-miterlimit="10" stroke-dasharray="3"/></g><g transform="translate(-142,-62) scale(1,1)"><path fill="none" stroke="#000000" d="M 832.2190340296504 162.7753822136447 L 840 155 L 829.0000007085987 154.9960516877695" stroke-miterlimit="10"/></g><g transform="translate(-142,-62) scale(1,1)"><g><path fill="none" stroke="none"/><text fill="#000000" stroke="none" font-family="Arial" font-size="13px" font-style="normal" font-weight="normal" text-decoration="none" x="762.5" y="198.5">«include»</text></g></g><g transform="translate(-142,-62) scale(1,1)"><path fill="#C0C0C0" stroke="none" d="M 583 352 C 583 342.6111584 615.0116368 335 654.5 335 C 693.9883632 335 726 342.6111584 726 352 C 726 361.3888416 693.9883632 369 654.5 369 C 615.0116368 369 583 361.3888416 583 352 Z" opacity="0.2"/></g><g transform="translate(-142,-62) scale(1,1)"><path fill="#ffffff" stroke="none" d="M 576 345 C 576 335.6111584 608.0116368 328 647.5 328 C 686.9883632 328 719 335.6111584 719 345 C 719 354.3888416 686.9883632 362 647.5 362 C 608.0116368 362 576 354.3888416 576 345 Z"/></g><g transform="translate(-142,-62) scale(1,1)"><path fill="none" stroke="#000000" d="M 576 345 C 576 335.6111584 608.0116368 328 647.5 328 C 686.9883632 328 719 335.6111584 719 345 C 719 354.3888416 686.9883632 362 647.5 362 C 608.0116368 362 576 354.3888416 576 345 Z" stroke-miterlimit="10"/></g><g transform="translate(-142,-62) scale(1,1)"><g><path fill="none" stroke="none"/><text fill="#000000" stroke="none" font-family="Arial" font-size="13px" font-style="normal" font-weight="bold" text-decoration="none" x="604.15185546875" y="352">Compile Query</text></g></g><g transform="translate(-142,-62) scale(1,1)"><path fill="#C0C0C0" stroke="none" d="M 775 272 C 775 262.6111584 817.3090864 255 869.5 255 C 921.6909136 255 964 262.6111584 964 272 C 964 281.3888416 921.6909136 289 869.5 289 C 817.3090864 289 775 281.3888416 775 272 Z" opacity="0.2"/></g><g transform="translate(-142,-62) scale(1,1)"><path fill="#ffffff" stroke="none" d="M 768 265 C 768 255.6111584 810.3090864 248 862.5 248 C 914.6909136 248 957 255.6111584 957 265 C 957 274.3888416 914.6909136 282 862.5 282 C 810.3090864 282 768 274.3888416 768 265 Z"/></g><g transform="translate(-142,-62) scale(1,1)"><path fill="none" stroke="#000000" d="M 768 265 C 768 255.6111584 810.3090864 248 862.5 248 C 914.6909136 248 957 255.6111584 957 265 C 957 274.3888416 914.6909136 282 862.5 282 C 810.3090864 282 768 274.3888416 768 265 Z" stroke-miterlimit="10"/></g><g transform="translate(-142,-62) scale(1,1)"><g><path fill="none" stroke="none"/><text fill="#000000" stroke="none" font-family="Arial" font-size="13px" font-style="normal" font-weight="bold" text-decoration="none" x="804.339599609375" y="272">Query Linked Terms</text></g></g><g transform="translate(-142,-62) scale(1,1)"><path fill="none" stroke="#000000" d="M 389 283 L 436 327" stroke-miterlimit="10" stroke-dasharray="3"/></g><g transform="translate(-142,-62) scale(1,1)"><path fill="none" stroke="#000000" d="M 425.7041432110236 323.12761921024173 L 436 327 L 431.45791656216386 316.9815431306146" stroke-miterlimit="10"/></g><g transform="translate(-142,-62) scale(1,1)"><g><path fill="none" stroke="none"/><text fill="#000000" stroke="none" font-family="Arial" font-size="13px" font-style="normal" font-weight="normal" text-decoration="none" x="411.5" y="309.5">«include»</text></g></g><g transform="translate(-142,-62) scale(1,1)"><path fill="none" stroke="#000000" d="M 519 345 L 575 345" stroke-miterlimit="10" stroke-dasharray="3"/></g><g transform="translate(-142,-62) scale(1,1)"><path fill="none" stroke="#000000" d="M 564.8373251423759 349.209517756016 L 575 345 L 564.8373251423758 340.790482243984" stroke-miterlimit="10"/></g><g transform="translate(-142,-62) scale(1,1)"><g><path fill="none" stroke="none"/><text fill="#000000" stroke="none" font-family="Arial" font-size="13px" font-style="normal" font-weight="normal" text-decoration="none" x="523.5" y="333.5">«include»</text></g></g><g transform="translate(-142,-62) scale(1,1)"><path fill="#ffffff" stroke="none" d="M 1023.2140378196023 233.68 C 1023.2140378196023 228.886167936 1027.0998801445478 225 1031.893310546875 225 C 1036.6867409492022 225 1040.5725832741477 228.886167936 1040.5725832741477 233.68 C 1040.5725832741477 238.47383206400002 1036.6867409492022 242.36 1031.893310546875 242.36 C 1027.0998801445478 242.36 1023.2140378196023 238.47383206400002 1023.2140378196023 233.68 Z"/></g><g transform="translate(-142,-62) scale(1,1)"><path fill="none" stroke="#000000" d="M 1023.2140378196023 233.68 C 1023.2140378196023 228.886167936 1027.0998801445478 225 1031.893310546875 225 C 1036.6867409492022 225 1040.5725832741477 228.886167936 1040.5725832741477 233.68 C 1040.5725832741477 238.47383206400002 1036.6867409492022 242.36 1031.893310546875 242.36 C 1027.0998801445478 242.36 1023.2140378196023 238.47383206400002 1023.2140378196023 233.68 Z" stroke-miterlimit="10"/></g><g transform="translate(-142,-62) scale(1,1)"><path fill="none" stroke="#000000" d="M 1031.893310546875 242.36 L 1031.893310546875 259.64" stroke-miterlimit="10"/></g><g transform="translate(-142,-62) scale(1,1)"><path fill="none" stroke="#000000" d="M 1022.7034923650568 248.84 L 1041.0831287286933 248.84" stroke-miterlimit="10"/></g><g transform="translate(-142,-62) scale(1,1)"><path fill="none" stroke="#000000" d="M 1031.893310546875 259.64 L 1019.1296741832386 277" stroke-miterlimit="10"/></g><g transform="translate(-142,-62) scale(1,1)"><path fill="none" stroke="#000000" d="M 1031.893310546875 259.64 L 1044.6569469105114 277" stroke-miterlimit="10"/></g><g transform="translate(-142,-62) scale(1,1)"><g><path fill="none" stroke="none"/><text fill="#000000" stroke="none" font-family="Arial" font-size="13px" font-style="normal" font-weight="bold" text-decoration="none" x="1005.89013671875" y="297.5">WikiData</text></g></g><g transform="translate(-142,-62) scale(1,1)"><path fill="none" stroke="#000000" d="M 958 264 L 999 263" stroke-miterlimit="10"/></g><g transform="translate(-142,-62) scale(1,1)"><path fill="#C0C0C0" stroke="none" d="M 367 186.5 C 367 175.7304464 407.9659408 167 458.5 167 C 509.0340592 167 550 175.7304464 550 186.5 C 550 197.2695536 509.0340592 206 458.5 206 C 407.9659408 206 367 197.2695536 367 186.5 Z" opacity="0.2"/></g><g transform="translate(-142,-62) scale(1,1)"><path fill="#ffffff" stroke="none" d="M 360 179.5 C 360 168.7304464 400.9659408 160 451.5 160 C 502.0340592 160 543 168.7304464 543 179.5 C 543 190.2695536 502.0340592 199 451.5 199 C 400.9659408 199 360 190.2695536 360 179.5 Z"/></g><g transform="translate(-142,-62) scale(1,1)"><path fill="none" stroke="#000000" d="M 360 179.5 C 360 168.7304464 400.9659408 160 451.5 160 C 502.0340592 160 543 168.7304464 543 179.5 C 543 190.2695536 502.0340592 199 451.5 199 C 400.9659408 199 360 190.2695536 360 179.5 Z" stroke-miterlimit="10"/></g><g transform="translate(-142,-62) scale(1,1)"><g><path fill="none" stroke="none"/><text fill="#000000" stroke="none" font-family="Arial" font-size="13px" font-style="normal" font-weight="bold" text-decoration="none" x="395.13916015625" y="186.5">Build Search Query</text></g></g><g transform="translate(-142,-62) scale(1,1)"><path fill="none" stroke="#000000" d="M 387 247 L 431 200" stroke-miterlimit="10" stroke-dasharray="3"/></g><g transform="translate(-142,-62) scale(1,1)"><path fill="none" stroke="#000000" d="M 427.12761921024173 210.29585678897638 L 431 200 L 420.9815431306146 204.54208343783614" stroke-miterlimit="10"/></g><g transform="translate(-142,-62) scale(1,1)"><g><path fill="none" stroke="none"/><text fill="#000000" stroke="none" font-family="Arial" font-size="13px" font-style="normal" font-weight="normal" text-decoration="none" x="422.5" y="227.5">«include»</text></g></g><g transform="translate(-142,-62) scale(1,1)"><path fill="none" stroke="#000000" d="M 510 159 L 570 139" stroke-miterlimit="10" stroke-dasharray="3"/></g><g transform="translate(-142,-62) scale(1,1)"><path fill="none" stroke="#000000" d="M 561.6900064950472 146.20721915496142 L 570 139 L 559.0276737030609 138.22022077900252" stroke-miterlimit="10"/></g><g transform="translate(-142,-62) scale(1,1)"><g><path fill="none" stroke="none"/><text fill="#000000" stroke="none" font-family="Arial" font-size="13px" font-style="normal" font-weight="normal" text-decoration="none" x="535.5" y="163.5">«include»</text></g></g><g transform="translate(-142,-62) scale(1,1)"><path fill="#C0C0C0" stroke="none" d="M 575 416 C 575 406.6111584 610.1456432 399 653.5 399 C 696.8543568 399 732 406.6111584 732 416 C 732 425.3888416 696.8543568 433 653.5 433 C 610.1456432 433 575 425.3888416 575 416 Z" opacity="0.2"/></g><g transform="translate(-142,-62) scale(1,1)"><path fill="#ffffff" stroke="none" d="M 568 409 C 568 399.6111584 603.1456432 392 646.5 392 C 689.8543568 392 725 399.6111584 725 409 C 725 418.3888416 689.8543568 426 646.5 426 C 603.1456432 426 568 418.3888416 568 409 Z"/></g><g transform="translate(-142,-62) scale(1,1)"><path fill="none" stroke="#000000" d="M 568 409 C 568 399.6111584 603.1456432 392 646.5 392 C 689.8543568 392 725 399.6111584 725 409 C 725 418.3888416 689.8543568 426 646.5 426 C 603.1456432 426 568 418.3888416 568 409 Z" stroke-miterlimit="10"/></g><g transform="translate(-142,-62) scale(1,1)"><g><path fill="none" stroke="none"/><text fill="#000000" stroke="none" font-family="Arial" font-size="13px" font-style="normal" font-weight="bold" text-decoration="none" x="598.81640625" y="416">Retrieve Results</text></g></g><g transform="translate(-142,-62) scale(1,1)"><path fill="none" stroke="#000000" d="M 509 363 L 592 391" stroke-miterlimit="10" stroke-dasharray="3"/></g><g transform="translate(-142,-62) scale(1,1)"><path fill="none" stroke="#000000" d="M 581.0249301337825 391.7401631115134 L 592 391 L 583.7160793182662 383.7628280289368" stroke-miterlimit="10"/></g><g transform="translate(-142,-62) scale(1,1)"><g><path fill="none" stroke="none"/><text fill="#000000" stroke="none" font-family="Arial" font-size="13px" font-style="normal" font-weight="normal" text-decoration="none" x="503.5" y="396.5">«include»</text></g></g><g transform="translate(-142,-62) scale(1,1)"><path fill="#ffffff" stroke="none" d="M 1024.7247800071023 353.68 C 1024.7247800071023 348.886167936 1028.6106223320478 345 1033.404052734375 345 C 1038.1974831367022 345 1042.0833254616477 348.886167936 1042.0833254616477 353.68 C 1042.0833254616477 358.473832064 1038.1974831367022 362.36 1033.404052734375 362.36 C 1028.6106223320478 362.36 1024.7247800071023 358.473832064 1024.7247800071023 353.68 Z"/></g><g transform="translate(-142,-62) scale(1,1)"><path fill="none" stroke="#000000" d="M 1024.7247800071023 353.68 C 1024.7247800071023 348.886167936 1028.6106223320478 345 1033.404052734375 345 C 1038.1974831367022 345 1042.0833254616477 348.886167936 1042.0833254616477 353.68 C 1042.0833254616477 358.473832064 1038.1974831367022 362.36 1033.404052734375 362.36 C 1028.6106223320478 362.36 1024.7247800071023 358.473832064 1024.7247800071023 353.68 Z" stroke-miterlimit="10"/></g><g transform="translate(-142,-62) scale(1,1)"><path fill="none" stroke="#000000" d="M 1033.404052734375 362.36 L 1033.404052734375 379.64" stroke-miterlimit="10"/></g><g transform="translate(-142,-62) scale(1,1)"><path fill="none" stroke="#000000" d="M 1024.2142345525567 368.84 L 1042.5938709161933 368.84" stroke-miterlimit="10"/></g><g transform="translate(-142,-62) scale(1,1)"><path fill="none" stroke="#000000" d="M 1033.404052734375 379.64 L 1020.6404163707386 397" stroke-miterlimit="10"/></g><g transform="translate(-142,-62) scale(1,1)"><path fill="none" stroke="#000000" d="M 1033.404052734375 379.64 L 1046.1676890980114 397" stroke-miterlimit="10"/></g><g transform="translate(-142,-62) scale(1,1)"><g><path fill="none" stroke="none"/><text fill="#000000" stroke="none" font-family="Arial" font-size="13px" font-style="normal" font-weight="bold" text-decoration="none" x="1005.5791015625" y="417.5">Database</text></g></g><g transform="translate(-142,-62) scale(1,1)"><path fill="none" stroke="#000000" d="M 726 404 L 999 385" stroke-miterlimit="10"/></g><g transform="translate(-142,-62) scale(1,1)"><path fill="none" stroke="#000000" d="M 814 283 L 695 327" stroke-miterlimit="10" stroke-dasharray="3"/></g><g transform="translate(-142,-62) scale(1,1)"><path fill="none" stroke="#000000" d="M 703.0721022793158 319.5273053861231 L 695 327 L 705.9918312953441 327.42384522492705" stroke-miterlimit="10"/></g><g transform="translate(-142,-62) scale(1,1)"><g><path fill="none" stroke="none"/><text fill="#000000" stroke="none" font-family="Arial" font-size="13px" font-style="normal" font-weight="normal" text-decoration="none" x="737.5" y="339.5">«extend»</text></g></g></g></svg>