<svg version="1.1" xmlns="http://www.w3.org/2000/svg" xmlns:xlink="http://www.w3.org/1999/xlink" width="861.68359375" height="396"><defs/><g><text fill="#eeeeee" stroke="none" font-family="Arial" font-size="24px" font-style="normal" font-weight="normal" text-decoration="none" x="0" y="0">UNREGISTERED</text><text fill="#eeeeee" stroke="none" font-family="Arial" font-size="24px" font-style="normal" font-weight="normal" text-decoration="none" x="0" y="30">UNREGISTERED</text><text fill="#eeeeee" stroke="none" font-family="Arial" font-size="24px" font-style="normal" font-weight="normal" text-decoration="none" x="0" y="60">UNREGISTERED</text><text fill="#eeeeee" stroke="none" font-family="Arial" font-size="24px" font-style="normal" font-weight="normal" text-decoration="none" x="0" y="90">UNREGISTERED</text><text fill="#eeeeee" stroke="none" font-family="Arial" font-size="24px" font-style="normal" font-weight="normal" text-decoration="none" x="0" y="120">UNREGISTERED</text><text fill="#eeeeee" stroke="none" font-family="Arial" font-size="24px" font-style="normal" font-weight="normal" text-decoration="none" x="0" y="150">UNREGISTERED</text><text fill="#eeeeee" stroke="none" font-family="Arial" font-size="24px" font-style="normal" font-weight="normal" text-decoration="none" x="0" y="180">UNREGISTERED</text><text fill="#eeeeee" stroke="none" font-family="Arial" font-size="24px" font-style="normal" font-weight="normal" text-decoration="none" x="0" y="210">UNREGISTERED</text><text fill="#eeeeee" stroke="none" font-family="Arial" font-size="24px" font-style="normal" font-weight="normal" text-decoration="none" x="0" y="240">UNREGISTERED</text><text fill="#eeeeee" stroke="none" font-family="Arial" font-size="24px" font-style="normal" font-weight="normal" text-decoration="none" x="0" y="270">UNREGISTERED</text><text fill="#eeeeee" stroke="none" font-family="Arial" font-size="24px" font-style="normal" font-weight="normal" text-decoration="none" x="0" y="300">UNREGISTERED</text><text fill="#eeeeee" stroke="none" font-family="Arial" font-size="24px" font-style="normal" font-weight="normal" text-decoration="none" x="0" y="330">UNREGISTERED</text><text fill="#eeeeee" stroke="none" font-family="Arial" font-size="24px" font-style="normal" font-weight="normal" text-decoration="none" x="0" y="360">UNREGISTERED</text><text fill="#eeeeee" stroke="none" font-family="Arial" font-size="24px" font-style="normal" font-weight="normal" text-decoration="none" x="0" y="390">UNREGISTERED</text><text fill="#eeeeee" stroke="none" font-family="Arial" font-size="24px" font-style="normal" font-weight="normal" text-decoration="none" x="200" y="0">UNREGISTERED</text><text fill="#eeeeee" stroke="none" font-family="Arial" font-size="24px" font-style="normal" font-weight="normal" text-decoration="none" x="200" y="30">UNREGISTERED</text><text fill="#eeeeee" stroke="none" font-family="Arial" font-size="24px" font-style="normal" font-weight="normal" text-decoration="none" x="200" y="60">UNREGISTERED</text><text fill="#eeeeee" stroke="none" font-family="Arial" font-size="24px" font-style="normal" font-weight="normal" text-decoration="none" x="200" y="90">UNREGISTERED</text><text fill="#eeeeee" stroke="none" font-family="Arial" font-size="24px" font-style="normal" font-weight="normal" text-decoration="none" x="200" y="120">UNREGISTERED</text><text fill="#eeeeee" stroke="none" font-family="Arial" font-size="24px" font-style="normal" font-weight="normal" text-decoration="none" x="200" y="150">UNREGISTERED</text><text fill="#eeeeee" stroke="none" font-family="Arial" font-size="24px" font-style="normal" font-weight="normal" text-decoration="none" x="200" y="180">UNREGISTERED</text><text fill="#eeeeee" stroke="none" font-family="Arial" font-size="24px" font-style="normal" font-weight="normal" text-decoration="none" x="200" y="210">UNREGISTERED</text><text fill="#eeeeee" stroke="none" font-family="Arial" font-size="24px" font-style="normal" font-weight="normal" text-decoration="none" x="200" y="240">UNREGISTERED</text><text fill="#eeeeee" stroke="none" font-family="Arial" font-size="24px" font-style="normal" font-weight="normal" text-decoration="none" x="200" y="270">UNREGISTERED</text><text fill="#eeeeee" stroke="none" font-family="Arial" font-size="24px" font-style="normal" font-weight="normal" text-decoration="none" x="200" y="300">UNREGISTERED</text><text fill="#eeeeee" stroke="none" font-family="Arial" font-size="24px" font-style="normal" font-weight="normal" text-decoration="none" x="200" y="330">UNREGISTERED</text><text fill="#eeeeee" stroke="none" font-family="Arial" font-size="24px" font-style="normal" font-weight="normal" text-decoration="none" x="200" y="360">UNREGISTERED</text><text fill="#eeeeee" stroke="none" font-family="Arial" font-size="24px" font-style="normal" font-weight="normal" text-decoration="none" x="200" y="390">UNREGISTERED</text><text fill="#eeeeee" stroke="none" font-family="Arial" font-size="24px" font-style="normal" font-weight="normal" text-decoration="none" x="400" y="0">UNREGISTERED</text><text fill="#eeeeee" stroke="none" font-family="Arial" font-size="24px" font-style="normal" font-weight="normal" text-decoration="none" x="400" y="30">UNREGISTERED</text><text fill="#eeeeee" stroke="none" font-family="Arial" font-size="24px" font-style="normal" font-weight="normal" text-decoration="none" x="400" y="60">UNREGISTERED</text><text fill="#eeeeee" stroke="none" font-family="Arial" font-size="24px" font-style="normal" font-weight="normal" text-decoration="none" x="400" y="90">UNREGISTERED</text><text fill="#eeeeee" stroke="none" font-family="Arial" font-size="24px" font-style="normal" font-weight="normal" text-decoration="none" x="400" y="120">UNREGISTERED</text><text fill="#eeeeee" stroke="none" font-family="Arial" font-size="24px" font-style="normal" font-weight="normal" text-decoration="none" x="400" y="150">UNREGISTERED</text><text fill="#eeeeee" stroke="none" font-family="Arial" font-size="24px" font-style="normal" font-weight="normal" text-decoration="none" x="400" y="180">UNREGISTERED</text><text fill="#eeeeee" stroke="none" font-family="Arial" font-size="24px" font-style="normal" font-weight="normal" text-decoration="none" x="400" y="210">UNREGISTERED</text><text fill="#eeeeee" stroke="none" font-family="Arial" font-size="24px" font-style="normal" font-weight="normal" text-decoration="none" x="400" y="240">UNREGISTERED</text><text fill="#eeeeee" stroke="none" font-family="Arial" font-size="24px" font-style="normal" font-weight="normal" text-decoration="none" x="400" y="270">UNREGISTERED</text><text fill="#eeeeee" stroke="none" font-family="Arial" font-size="24px" font-style="normal" font-weight="normal" text-decoration="none" x="400" y="300">UNREGISTERED</text><text fill="#eeeeee" stroke="none" font-family="Arial" font-size="24px" font-style="normal" font-weight="normal" text-decoration="none" x="400" y="330">UNREGISTERED</text><text fill="#eeeeee" stroke="none" font-family="Arial" font-size="24px" font-style="normal" font-weight="normal" text-decoration="none" x="400" y="360">UNREGISTERED</text><text fill="#eeeeee" stroke="none" font-family="Arial" font-size="24px" font-style="normal" font-weight="normal" text-decoration="none" x="400" y="390">UNREGISTERED</text><text fill="#eeeeee" stroke="none" font-family="Arial" font-size="24px" font-style="normal" font-weight="normal" text-decoration="none" x="600" y="0">UNREGISTERED</text><text fill="#eeeeee" stroke="none" font-family="Arial" font-size="24px" font-style="normal" font-weight="normal" text-decoration="none" x="600" y="30">UNREGISTERED</text><text fill="#eeeeee" stroke="none" font-family="Arial" font-size="24px" font-style="normal" font-weight="normal" text-decoration="none" x="600" y="60">UNREGISTERED</text><text fill="#eeeeee" stroke="none" font-family="Arial" font-size="24px" font-style="normal" font-weight="normal" text-decoration="none" x="600" y="90">UNREGISTERED</text><text fill="#eeeeee" stroke="none" font-family="Arial" font-size="24px" font-style="normal" font-weight="normal" text-decoration="none" x="600" y="120">UNREGISTERED</text><text fill="#eeeeee" stroke="none" font-family="Arial" font-size="24px" font-style="normal" font-weight="normal" text-decoration="none" x="600" y="150">UNREGISTERED</text><text fill="#eeeeee" stroke="none" font-family="Arial" font-size="24px" font-style="normal" font-weight="normal" text-decoration="none" x="600" y="180">UNREGISTERED</text><text fill="#eeeeee" stroke="none" font-family="Arial" font-size="24px" font-style="normal" font-weight="normal" text-decoration="none" x="600" y="210">UNREGISTERED</text><text fill="#eeeeee" stroke="none" font-family="Arial" font-size="24px" font-style="normal" font-weight="normal" text-decoration="none" x="600" y="240">UNREGISTERED</text><text fill="#eeeeee" stroke="none" font-family="Arial" font-size="24px" font-style="normal" font-weight="normal" text-decoration="none" x="600" y="270">UNREGISTERED</text><text fill="#eeeeee" stroke="none" font-family="Arial" font-size="24px" font-style="normal" font-weight="normal" text-decoration="none" x="600" y="300">UNREGISTERED</text><text fill="#eeeeee" stroke="none" font-family="Arial" font-size="24px" font-style="normal" font-weight="normal" text-decoration="none" x="600" y="330">UNREGISTERED</text><text fill="#eeeeee" stroke="none" font-family="Arial" font-size="24px" font-style="normal" font-weight="normal" text-decoration="none" x="600" y="360">UNREGISTERED</text><text fill="#eeeeee" stroke="none" font-family="Arial" font-size="24px" font-style="normal" font-weight="normal" text-decoration="none" x="600" y="390">UNREGISTERED</text><text fill="#eeeeee" stroke="none" font-family="Arial" font-size="24px" font-style="normal" font-weight="normal" text-decoration="none" x="800" y="0">UNREGISTERED</text><text fill="#eeeeee" stroke="none" font-family="Arial" font-size="24px" font-style="normal" font-weight="normal" text-decoration="none" x="800" y="30">UNREGISTERED</text><text fill="#eeeeee" stroke="none" font-family="Arial" font-size="24px" font-style="normal" font-weight="normal" text-decoration="none" x="800" y="60">UNREGISTERED</text><text fill="#eeeeee" stroke="none" font-family="Arial" font-size="24px" font-style="normal" font-weight="normal" text-decoration="none" x="800" y="90">UNREGISTERED</text><text fill="#eeeeee" stroke="none" font-family="Arial" font-size="24px" font-style="normal" font-weight="normal" text-decoration="none" x="800" y="120">UNREGISTERED</text><text fill="#eeeeee" stroke="none" font-family="Arial" font-size="24px" font-style="normal" font-weight="normal" text-decoration="none" x="800" y="150">UNREGISTERED</text><text fill="#eeeeee" stroke="none" font-family="Arial" font-size="24px" font-style="normal" font-weight="normal" text-decoration="none" x="800" y="180">UNREGISTERED</text><text fill="#eeeeee" stroke="none" font-family="Arial" font-size="24px" font-style="normal" font-weight="normal" text-decoration="none" x="800" y="210">UNREGISTERED</text><text fill="#eeeeee" stroke="none" font-family="Arial" font-size="24px" font-style="normal" font-weight="normal" text-decoration="none" x="800" y="240">UNREGISTERED</text><text fill="#eeeeee" stroke="none" font-family="Arial" font-size="24px" font-style="normal" font-weight="normal" text-decoration="none" x="800" y="270">UNREGISTERED</text><text fill="#eeeeee" stroke="none" font-family="Arial" font-size="24px" font-style="normal" font-weight="normal" text-decoration="none" x="800" y="300">UNREGISTERED</text><text fill="#eeeeee" stroke="none" font-family="Arial" font-size="24px" font-style="normal" font-weight="normal" text-decoration="none" x="800" y="330">UNREGISTERED</text><text fill="#eeeeee" stroke="none" font-family="Arial" font-size="24px" font-style="normal" font-weight="normal" text-decoration="none" x="800" y="360">UNREGISTERED</text><text fill="#eeeeee" stroke="none" font-family="Arial" font-size="24px" font-style="normal" font-weight="normal" text-decoration="none" x="800" y="390">UNREGISTERED</text><g transform="translate(-206,-70) scale(1,1)"><rect fill="#C0C0C0" stroke="none" x="303" y="87" width="616" height="376" opacity="0.2"/></g><g transform="translate(-206,-70) scale(1,1)"><rect fill="#ffffff" stroke="none" x="296" y="80" width="616" height="376"/></g><g transform="translate(-206,-70) scale(1,1)"><path fill="none" stroke="#000000" d="M 296 80 L 912 80 L 912 456 L 296 456 L 296 80 Z Z" stroke-miterlimit="10"/></g><g transform="translate(-206,-70) scale(1,1)"><g><path fill="none" stroke="none"/><text fill="#000000" stroke="none" font-family="Arial" font-size="13px" font-style="normal" font-weight="bold" text-decoration="none" x="477.5419921875" y="99.5">1.3.3.1 Make annotation Use Case Diagram</text></g></g><g transform="translate(-206,-70) scale(1,1)"><path fill="#ffffff" stroke="none" d="M 227.32072727272728 233.68 C 227.32072727272728 228.886167936 231.20656959767274 225 236 225 C 240.79343040232726 225 244.67927272727272 228.886167936 244.67927272727272 233.68 C 244.67927272727272 238.47383206400002 240.79343040232726 242.36 236 242.36 C 231.20656959767274 242.36 227.32072727272728 238.47383206400002 227.32072727272728 233.68 Z"/></g><g transform="translate(-206,-70) scale(1,1)"><path fill="none" stroke="#000000" d="M 227.32072727272728 233.68 C 227.32072727272728 228.886167936 231.20656959767274 225 236 225 C 240.79343040232726 225 244.67927272727272 228.886167936 244.67927272727272 233.68 C 244.67927272727272 238.47383206400002 240.79343040232726 242.36 236 242.36 C 231.20656959767274 242.36 227.32072727272728 238.47383206400002 227.32072727272728 233.68 Z" stroke-miterlimit="10"/></g><g transform="translate(-206,-70) scale(1,1)"><path fill="none" stroke="#000000" d="M 236 242.36 L 236 259.64" stroke-miterlimit="10"/></g><g transform="translate(-206,-70) scale(1,1)"><path fill="none" stroke="#000000" d="M 226.81018181818183 248.84 L 245.18981818181817 248.84" stroke-miterlimit="10"/></g><g transform="translate(-206,-70) scale(1,1)"><path fill="none" stroke="#000000" d="M 236 259.64 L 223.23636363636365 277" stroke-miterlimit="10"/></g><g transform="translate(-206,-70) scale(1,1)"><path fill="none" stroke="#000000" d="M 236 259.64 L 248.76363636363635 277" stroke-miterlimit="10"/></g><g transform="translate(-206,-70) scale(1,1)"><g><path fill="none" stroke="none"/><text fill="#000000" stroke="none" font-family="Arial" font-size="13px" font-style="normal" font-weight="bold" text-decoration="none" x="222.2763671875" y="297.5">User</text></g></g><g transform="translate(-206,-70) scale(1,1)"><path fill="#C0C0C0" stroke="none" d="M 303 272 C 303 262.6111584 336.3547824 255 377.5 255 C 418.6452176 255 452 262.6111584 452 272 C 452 281.3888416 418.6452176 289 377.5 289 C 336.3547824 289 303 281.3888416 303 272 Z" opacity="0.2"/></g><g transform="translate(-206,-70) scale(1,1)"><path fill="#ffffff" stroke="none" d="M 296 265 C 296 255.6111584 329.3547824 248 370.5 248 C 411.6452176 248 445 255.6111584 445 265 C 445 274.3888416 411.6452176 282 370.5 282 C 329.3547824 282 296 274.3888416 296 265 Z"/></g><g transform="translate(-206,-70) scale(1,1)"><path fill="none" stroke="#000000" d="M 296 265 C 296 255.6111584 329.3547824 248 370.5 248 C 411.6452176 248 445 255.6111584 445 265 C 445 274.3888416 411.6452176 282 370.5 282 C 329.3547824 282 296 274.3888416 296 265 Z" stroke-miterlimit="10"/></g><g transform="translate(-206,-70) scale(1,1)"><g><path fill="none" stroke="none"/><text fill="#000000" stroke="none" font-family="Arial" font-size="13px" font-style="normal" font-weight="bold" text-decoration="none" x="332.563232421875" y="272">Select Target</text></g></g><g transform="translate(-206,-70) scale(1,1)"><path fill="none" stroke="#000000" d="M 257 263 L 295 264" stroke-miterlimit="10"/></g><g transform="translate(-206,-70) scale(1,1)"><path fill="#C0C0C0" stroke="none" d="M 471 202.5 C 471 191.7304464 498.9822 183 533.5 183 C 568.0178 183 596 191.7304464 596 202.5 C 596 213.2695536 568.0178 222 533.5 222 C 498.9822 222 471 213.2695536 471 202.5 Z" opacity="0.2"/></g><g transform="translate(-206,-70) scale(1,1)"><path fill="#ffffff" stroke="none" d="M 464 195.5 C 464 184.7304464 491.9822 176 526.5 176 C 561.0178 176 589 184.7304464 589 195.5 C 589 206.2695536 561.0178 215 526.5 215 C 491.9822 215 464 206.2695536 464 195.5 Z"/></g><g transform="translate(-206,-70) scale(1,1)"><path fill="none" stroke="#000000" d="M 464 195.5 C 464 184.7304464 491.9822 176 526.5 176 C 561.0178 176 589 184.7304464 589 195.5 C 589 206.2695536 561.0178 215 526.5 215 C 491.9822 215 464 206.2695536 464 195.5 Z" stroke-miterlimit="10"/></g><g transform="translate(-206,-70) scale(1,1)"><g><path fill="none" stroke="none"/><text fill="#000000" stroke="none" font-family="Arial" font-size="13px" font-style="normal" font-weight="bold" text-decoration="none" x="488.563232421875" y="202.5">Image Select</text></g></g><g transform="translate(-206,-70) scale(1,1)"><path fill="#C0C0C0" stroke="none" d="M 471 362.5 C 471 351.7304464 495.8481936 343 526.5 343 C 557.1518064 343 582 351.7304464 582 362.5 C 582 373.2695536 557.1518064 382 526.5 382 C 495.8481936 382 471 373.2695536 471 362.5 Z" opacity="0.2"/></g><g transform="translate(-206,-70) scale(1,1)"><path fill="#ffffff" stroke="none" d="M 464 355.5 C 464 344.7304464 488.8481936 336 519.5 336 C 550.1518064 336 575 344.7304464 575 355.5 C 575 366.2695536 550.1518064 375 519.5 375 C 488.8481936 375 464 366.2695536 464 355.5 Z"/></g><g transform="translate(-206,-70) scale(1,1)"><path fill="none" stroke="#000000" d="M 464 355.5 C 464 344.7304464 488.8481936 336 519.5 336 C 550.1518064 336 575 344.7304464 575 355.5 C 575 366.2695536 550.1518064 375 519.5 375 C 488.8481936 375 464 366.2695536 464 355.5 Z" stroke-miterlimit="10"/></g><g transform="translate(-206,-70) scale(1,1)"><g><path fill="none" stroke="none"/><text fill="#000000" stroke="none" font-family="Arial" font-size="13px" font-style="normal" font-weight="bold" text-decoration="none" x="487.707763671875" y="362.5">Text Select</text></g></g><g transform="translate(-206,-70) scale(1,1)"><path fill="#C0C0C0" stroke="none" d="M 471 266.5 C 471 255.7304464 526.0689696 247 594 247 C 661.9310304 247 717 255.7304464 717 266.5 C 717 277.2695536 661.9310304 286 594 286 C 526.0689696 286 471 277.2695536 471 266.5 Z" opacity="0.2"/></g><g transform="translate(-206,-70) scale(1,1)"><path fill="#ffffff" stroke="none" d="M 464 259.5 C 464 248.7304464 519.0689696 240 587 240 C 654.9310304 240 710 248.7304464 710 259.5 C 710 270.2695536 654.9310304 279 587 279 C 519.0689696 279 464 270.2695536 464 259.5 Z"/></g><g transform="translate(-206,-70) scale(1,1)"><path fill="none" stroke="#000000" d="M 464 259.5 C 464 248.7304464 519.0689696 240 587 240 C 654.9310304 240 710 248.7304464 710 259.5 C 710 270.2695536 654.9310304 279 587 279 C 519.0689696 279 464 270.2695536 464 259.5 Z" stroke-miterlimit="10"/></g><g transform="translate(-206,-70) scale(1,1)"><g><path fill="none" stroke="none"/><text fill="#000000" stroke="none" font-family="Arial" font-size="13px" font-style="normal" font-weight="bold" text-decoration="none" x="510.396484375" y="266.5">Create Annotation Context</text></g></g><g transform="translate(-206,-70) scale(1,1)"><path fill="#C0C0C0" stroke="none" d="M 751 274.5 C 751 259.312168 786.3695008 247 830 247 C 873.6304992 247 909 259.312168 909 274.5 C 909 289.687832 873.6304992 302 830 302 C 786.3695008 302 751 289.687832 751 274.5 Z" opacity="0.2"/></g><g transform="translate(-206,-70) scale(1,1)"><path fill="#ffffff" stroke="none" d="M 744 267.5 C 744 252.31216799999999 779.3695008 240 823 240 C 866.6304992 240 902 252.31216799999999 902 267.5 C 902 282.687832 866.6304992 295 823 295 C 779.3695008 295 744 282.687832 744 267.5 Z"/></g><g transform="translate(-206,-70) scale(1,1)"><path fill="none" stroke="#000000" d="M 744 267.5 C 744 252.31216799999999 779.3695008 240 823 240 C 866.6304992 240 902 252.31216799999999 902 267.5 C 902 282.687832 866.6304992 295 823 295 C 779.3695008 295 744 282.687832 744 267.5 Z" stroke-miterlimit="10"/></g><g transform="translate(-206,-70) scale(1,1)"><g><path fill="none" stroke="none"/><text fill="#000000" stroke="none" font-family="Arial" font-size="13px" font-style="normal" font-weight="bold" text-decoration="none" x="775.29736328125" y="274.5">Save Annotation</text></g></g><g transform="translate(-206,-70) scale(1,1)"><path fill="none" stroke="#000000" d="M 711 263 L 743 264" stroke-miterlimit="10"/></g><g transform="translate(-206,-70) scale(1,1)"><path fill="none" stroke="#000000" d="M 732.7108005097193 267.8900351989678 L 743 264 L 732.9737669991969 259.4751075356859" stroke-miterlimit="10"/></g><g transform="translate(-206,-70) scale(1,1)"><path fill="#ffffff" stroke="none" d="M 988.1625241477273 241.68 C 988.1625241477273 236.886167936 992.0483664726727 233 996.841796875 233 C 1001.6352272773273 233 1005.5210696022727 236.886167936 1005.5210696022727 241.68 C 1005.5210696022727 246.47383206400002 1001.6352272773273 250.36 996.841796875 250.36 C 992.0483664726727 250.36 988.1625241477273 246.47383206400002 988.1625241477273 241.68 Z"/></g><g transform="translate(-206,-70) scale(1,1)"><path fill="none" stroke="#000000" d="M 988.1625241477273 241.68 C 988.1625241477273 236.886167936 992.0483664726727 233 996.841796875 233 C 1001.6352272773273 233 1005.5210696022727 236.886167936 1005.5210696022727 241.68 C 1005.5210696022727 246.47383206400002 1001.6352272773273 250.36 996.841796875 250.36 C 992.0483664726727 250.36 988.1625241477273 246.47383206400002 988.1625241477273 241.68 Z" stroke-miterlimit="10"/></g><g transform="translate(-206,-70) scale(1,1)"><path fill="none" stroke="#000000" d="M 996.841796875 250.36 L 996.841796875 267.64" stroke-miterlimit="10"/></g><g transform="translate(-206,-70) scale(1,1)"><path fill="none" stroke="#000000" d="M 987.6519786931818 256.84 L 1006.0316150568182 256.84" stroke-miterlimit="10"/></g><g transform="translate(-206,-70) scale(1,1)"><path fill="none" stroke="#000000" d="M 996.841796875 267.64 L 984.0781605113636 285" stroke-miterlimit="10"/></g><g transform="translate(-206,-70) scale(1,1)"><path fill="none" stroke="#000000" d="M 996.841796875 267.64 L 1009.6054332386364 285" stroke-miterlimit="10"/></g><g transform="translate(-206,-70) scale(1,1)"><g><path fill="none" stroke="none"/><text fill="#000000" stroke="none" font-family="Arial" font-size="13px" font-style="normal" font-weight="bold" text-decoration="none" x="944.81005859375" y="305.5">Annotation Server</text></g></g><g transform="translate(-206,-70) scale(1,1)"><path fill="none" stroke="#000000" d="M 903 269 L 935 270" stroke-miterlimit="10"/></g><g transform="translate(-206,-70) scale(1,1)"><path fill="none" stroke="#000000" d="M 924.7108005097193 273.8900351989678 L 935 270 L 924.9737669991969 265.4751075356859" stroke-miterlimit="10"/></g><g transform="translate(-206,-70) scale(1,1)"><path fill="none" stroke="#000000" d="M 479 216 L 410 247" stroke-miterlimit="10" stroke-dasharray="3"/></g><g transform="translate(-206,-70) scale(1,1)"><path fill="none" stroke="#000000" d="M 417.5449506853896 238.99539387883206 L 410 247 L 420.99519706236225 246.67497452435188" stroke-miterlimit="10"/></g><g transform="translate(-206,-70) scale(1,1)"><g><path fill="none" stroke="none"/><text fill="#000000" stroke="none" font-family="Arial" font-size="13px" font-style="normal" font-weight="normal" text-decoration="none" x="471.5" y="236.5">«extend»</text></g></g><g transform="translate(-206,-70) scale(1,1)"><path fill="none" stroke="#000000" d="M 486 335 L 400 283" stroke-miterlimit="10" stroke-dasharray="3"/></g><g transform="translate(-206,-70) scale(1,1)"><path fill="none" stroke="#000000" d="M 410.8746118088436 284.6561455271077 L 400 283 L 406.518440019955 291.8605834856543" stroke-miterlimit="10"/></g><g transform="translate(-206,-70) scale(1,1)"><g><path fill="none" stroke="none"/><text fill="#000000" stroke="none" font-family="Arial" font-size="13px" font-style="normal" font-weight="normal" text-decoration="none" x="400.5" y="340.5">«extend»</text></g></g><g transform="translate(-206,-70) scale(1,1)"><path fill="none" stroke="#000000" d="M 533 335 L 572 280" stroke-miterlimit="10" stroke-dasharray="3"/></g><g transform="translate(-206,-70) scale(1,1)"><path fill="none" stroke="#000000" d="M 569.555458497074 290.7249343513363 L 572 280 L 562.6877743187787 285.85512193399956" stroke-miterlimit="10"/></g><g transform="translate(-206,-70) scale(1,1)"><g><path fill="none" stroke="none"/><text fill="#000000" stroke="none" font-family="Arial" font-size="13px" font-style="normal" font-weight="normal" text-decoration="none" x="499.5" y="295.5">«include»</text></g></g><g transform="translate(-206,-70) scale(1,1)"><path fill="none" stroke="#000000" d="M 546 216 L 568 239" stroke-miterlimit="10" stroke-dasharray="3"/></g><g transform="translate(-206,-70) scale(1,1)"><path fill="none" stroke="#000000" d="M 557.9333552659034 234.56573976885824 L 568 239 L 564.0173027237106 228.74631176573828" stroke-miterlimit="10"/></g><g transform="translate(-206,-70) scale(1,1)"><g><path fill="none" stroke="none"/><text fill="#000000" stroke="none" font-family="Arial" font-size="13px" font-style="normal" font-weight="normal" text-decoration="none" x="567.5" y="228.5">«include»</text></g></g></g></svg>