<svg version="1.1" xmlns="http://www.w3.org/2000/svg" xmlns:xlink="http://www.w3.org/1999/xlink" width="1476" height="668"><defs/><g><g transform="translate(2,10) scale(1,1)"><path fill="none" stroke="#000000" d="M 8 0 L 1464 0 L 1464 648 L 8 648 L 8 0" stroke-miterlimit="10"/></g><g transform="translate(2,10) scale(1,1)"><path fill="#ffffff" stroke="none" d="M 8 0 L 8 22 L 319.55322265625 22 L 330.55322265625 11 L 330.55322265625 0 L 8 0"/></g><g transform="translate(2,10) scale(1,1)"><path fill="none" stroke="#000000" d="M 8 0 L 8 22 L 319.55322265625 22 L 330.55322265625 11 L 330.55322265625 0 L 8 0 L 8 0" stroke-miterlimit="10"/></g><g transform="translate(2,10) scale(1,1)"><g><path fill="none" stroke="none"/><text fill="#000000" stroke="none" font-family="Arial" font-size="13px" font-style="normal" font-weight="normal" text-decoration="none" x="78.97900390625" y="17.5">3.1 Semantic Search Sequence Diagram</text></g></g><g transform="translate(2,10) scale(1,1)"><g><path fill="none" stroke="none"/><text fill="#000000" stroke="none" font-family="Arial" font-size="13px" font-style="normal" font-weight="bold" text-decoration="none" x="13" y="17.5">interaction</text></g></g><g transform="translate(2,10) scale(1,1)"><path fill="#ffffff" stroke="none" d="M 122.2249618252841 47.3 C 122.2249618252841 43.82060576 125.1033635474659 41 128.654052734375 41 C 132.2047419212841 41 135.08314364346592 43.82060576 135.08314364346592 47.3 C 135.08314364346592 50.779394239999995 132.2047419212841 53.6 128.654052734375 53.6 C 125.1033635474659 53.6 122.2249618252841 50.779394239999995 122.2249618252841 47.3 Z"/></g><g transform="translate(2,10) scale(1,1)"><path fill="none" stroke="#000000" d="M 122.2249618252841 47.3 C 122.2249618252841 43.82060576 125.1033635474659 41 128.654052734375 41 C 132.2047419212841 41 135.08314364346592 43.82060576 135.08314364346592 47.3 C 135.08314364346592 50.779394239999995 132.2047419212841 53.6 128.654052734375 53.6 C 125.1033635474659 53.6 122.2249618252841 50.779394239999995 122.2249618252841 47.3 Z" stroke-miterlimit="10"/></g><g transform="translate(2,10) scale(1,1)"><path fill="none" stroke="#000000" d="M 128.654052734375 53.6 L 128.654052734375 66.4" stroke-miterlimit="10"/></g><g transform="translate(2,10) scale(1,1)"><path fill="none" stroke="#000000" d="M 121.84678000710228 58.4 L 135.46132546164773 58.4" stroke-miterlimit="10"/></g><g transform="translate(2,10) scale(1,1)"><path fill="none" stroke="#000000" d="M 128.654052734375 66.4 L 119.19950727982955 79" stroke-miterlimit="10"/></g><g transform="translate(2,10) scale(1,1)"><path fill="none" stroke="#000000" d="M 128.654052734375 66.4 L 138.10859818892047 79" stroke-miterlimit="10"/></g><g transform="translate(2,10) scale(1,1)"><g><path fill="none" stroke="none"/><text fill="#000000" stroke="none" font-family="Arial" font-size="13px" font-style="normal" font-weight="bold" text-decoration="none" x="50.974609375" y="99.5">Lifeline1: Anonymous User</text></g></g><g transform="translate(2,10) scale(1,1)"><path fill="none" stroke="#000000" d="M 129.5 105 L 129.5 616" stroke-miterlimit="10" stroke-dasharray="3"/></g><g transform="translate(2,10) scale(1,1)"><rect fill="#C0C0C0" stroke="none" x="351" y="47" width="97.04443359375" height="39" opacity="0.2"/></g><g transform="translate(2,10) scale(1,1)"><rect fill="#ffffff" stroke="none" x="344" y="40" width="97.04443359375" height="39"/></g><g transform="translate(2,10) scale(1,1)"><path fill="none" stroke="#000000" d="M 344 40 L 441.04443359375 40 L 441.04443359375 79 L 344 79 L 344 40 Z Z" stroke-miterlimit="10"/></g><g transform="translate(2,10) scale(1,1)"><g><path fill="none" stroke="none"/><text fill="#000000" stroke="none" font-family="Arial" font-size="13px" font-style="normal" font-weight="bold" text-decoration="none" x="354.94091796875" y="59.5">Search Page</text></g></g><g transform="translate(2,10) scale(1,1)"><path fill="none" stroke="#000000" d="M 393.5 80 L 393.5 625" stroke-miterlimit="10" stroke-dasharray="3"/></g><g transform="translate(2,10) scale(1,1)"><rect fill="#C0C0C0" stroke="none" x="863" y="47" width="73.78662109375" height="39" opacity="0.2"/></g><g transform="translate(2,10) scale(1,1)"><rect fill="#ffffff" stroke="none" x="856" y="40" width="73.78662109375" height="39"/></g><g transform="translate(2,10) scale(1,1)"><path fill="none" stroke="#000000" d="M 856 40 L 929.78662109375 40 L 929.78662109375 79 L 856 79 L 856 40 Z Z" stroke-miterlimit="10"/></g><g transform="translate(2,10) scale(1,1)"><g><path fill="none" stroke="none"/><text fill="#000000" stroke="none" font-family="Arial" font-size="13px" font-style="normal" font-weight="bold" text-decoration="none" x="866.89013671875" y="59.5">WikiData</text></g></g><g transform="translate(2,10) scale(1,1)"><path fill="none" stroke="#000000" d="M 893.5 80 L 893.5 616" stroke-miterlimit="10" stroke-dasharray="3"/></g><g transform="translate(2,10) scale(1,1)"><rect fill="#C0C0C0" stroke="none" x="1343" y="47" width="76.80810546875" height="39" opacity="0.2"/></g><g transform="translate(2,10) scale(1,1)"><rect fill="#ffffff" stroke="none" x="1336" y="40" width="76.80810546875" height="39"/></g><g transform="translate(2,10) scale(1,1)"><path fill="none" stroke="#000000" d="M 1336 40 L 1412.80810546875 40 L 1412.80810546875 79 L 1336 79 L 1336 40 Z Z" stroke-miterlimit="10"/></g><g transform="translate(2,10) scale(1,1)"><g><path fill="none" stroke="none"/><text fill="#000000" stroke="none" font-family="Arial" font-size="13px" font-style="normal" font-weight="bold" text-decoration="none" x="1346.5791015625" y="59.5">Database</text></g></g><g transform="translate(2,10) scale(1,1)"><path fill="none" stroke="#000000" d="M 1375.5 80 L 1375.5 616" stroke-miterlimit="10" stroke-dasharray="3"/></g><g transform="translate(2,10) scale(1,1)"><rect fill="#C0C0C0" stroke="none" x="631" y="47" width="128.08447265625" height="39" opacity="0.2"/></g><g transform="translate(2,10) scale(1,1)"><rect fill="#ffffff" stroke="none" x="624" y="40" width="128.08447265625" height="39"/></g><g transform="translate(2,10) scale(1,1)"><path fill="none" stroke="#000000" d="M 624 40 L 752.08447265625 40 L 752.08447265625 79 L 624 79 L 624 40 Z Z" stroke-miterlimit="10"/></g><g transform="translate(2,10) scale(1,1)"><g><path fill="none" stroke="none"/><text fill="#000000" stroke="none" font-family="Arial" font-size="13px" font-style="normal" font-weight="bold" text-decoration="none" x="648.302734375" y="59.5">Query Builder</text></g></g><g transform="translate(2,10) scale(1,1)"><path fill="none" stroke="#000000" d="M 689.5 80 L 689.5 616" stroke-miterlimit="10" stroke-dasharray="3"/></g><g transform="translate(2,10) scale(1,1)"><rect fill="#C0C0C0" stroke="none" x="983" y="47" width="124.47265625" height="39" opacity="0.2"/></g><g transform="translate(2,10) scale(1,1)"><rect fill="#ffffff" stroke="none" x="976" y="40" width="124.47265625" height="39"/></g><g transform="translate(2,10) scale(1,1)"><path fill="none" stroke="#000000" d="M 976 40 L 1100.47265625 40 L 1100.47265625 79 L 976 79 L 976 40 Z Z" stroke-miterlimit="10"/></g><g transform="translate(2,10) scale(1,1)"><g><path fill="none" stroke="none"/><text fill="#000000" stroke="none" font-family="Arial" font-size="13px" font-style="normal" font-weight="bold" text-decoration="none" x="997.773193359375" y="59.5">Result Builder</text></g></g><g transform="translate(2,10) scale(1,1)"><path fill="none" stroke="#000000" d="M 1039.5 80 L 1039.5 625" stroke-miterlimit="10" stroke-dasharray="3"/></g><g transform="translate(2,10) scale(1,1)"><g><path fill="none" stroke="none"/><text fill="#000000" stroke="none" font-family="Arial" font-size="13px" font-style="normal" font-weight="normal" text-decoration="none" x="741" y="202">[Tags_Size]</text></g></g><g transform="translate(2,10) scale(1,1)"><g><path fill="none" stroke="none"/><text fill="#000000" stroke="none" font-family="Arial" font-size="13px" font-style="normal" font-weight="normal" text-decoration="none" x="1141" y="370">[Parameters_Size]</text></g></g><g transform="translate(2,10) scale(1,1)"><g><path fill="none" stroke="none"/><text fill="#000000" stroke="none" font-family="Arial" font-size="13px" font-style="normal" font-weight="normal" text-decoration="none" x="461" y="450">[Results_Size]</text></g></g><g transform="translate(2,10) scale(1,1)"><path fill="none" stroke="#000000" d="M 129 150 L 386 150" stroke-miterlimit="10"/></g><g transform="translate(2,10) scale(1,1)"><path fill="#000000" stroke="none" d="M 375.83732514237585 154.209517756016 L 386 150 L 375.83732514237585 145.790482243984"/></g><g transform="translate(2,10) scale(1,1)"><path fill="none" stroke="#000000" d="M 375.83732514237585 154.209517756016 L 386 150 L 375.83732514237585 145.790482243984 L 375.83732514237585 154.209517756016" stroke-miterlimit="10"/></g><g transform="translate(2,10) scale(1,1)"><g><path fill="none" stroke="none"/><text fill="#000000" stroke="none" font-family="Arial" font-size="13px" font-style="normal" font-weight="normal" text-decoration="none" x="148.5" y="146.5">1 : SearchQuery(Parameters, Values)</text></g></g><g transform="translate(2,10) scale(1,1)"><rect fill="#ffffff" stroke="none" x="386" y="150" width="13" height="28"/></g><g transform="translate(2,10) scale(1,1)"><path fill="none" stroke="#000000" d="M 386 150 L 399 150 L 399 178 L 386 178 L 386 150 Z Z" stroke-miterlimit="10"/></g><g transform="translate(2,10) scale(1,1)"><path fill="none" stroke="#000000" d="M 399 176 L 429 176 L 429 196 L 399 196" stroke-miterlimit="10"/></g><g transform="translate(2,10) scale(1,1)"><path fill="#000000" stroke="none" d="M 409.16267485762415 191.790482243984 L 399 196 L 409.16267485762415 200.209517756016"/></g><g transform="translate(2,10) scale(1,1)"><path fill="none" stroke="#000000" d="M 409.16267485762415 191.790482243984 L 399 196 L 409.16267485762415 200.209517756016 L 409.16267485762415 191.790482243984" stroke-miterlimit="10"/></g><g transform="translate(2,10) scale(1,1)"><g><path fill="none" stroke="none"/><text fill="#000000" stroke="none" font-family="Arial" font-size="13px" font-style="normal" font-weight="normal" text-decoration="none" x="407.5" y="172.5">2 : DiscoverTags(Parameters)</text></g></g><g transform="translate(2,10) scale(1,1)"><rect fill="#ffffff" stroke="none" x="386" y="196" width="13" height="28"/></g><g transform="translate(2,10) scale(1,1)"><path fill="none" stroke="#000000" d="M 386 196 L 399 196 L 399 224 L 386 224 L 386 196 Z Z" stroke-miterlimit="10"/></g><g transform="translate(2,10) scale(1,1)"><path fill="none" stroke="#000000" d="M 393 224 L 682 224" stroke-miterlimit="10"/></g><g transform="translate(2,10) scale(1,1)"><path fill="#000000" stroke="none" d="M 671.8373251423759 228.209517756016 L 682 224 L 671.8373251423758 219.790482243984"/></g><g transform="translate(2,10) scale(1,1)"><path fill="none" stroke="#000000" d="M 671.8373251423759 228.209517756016 L 682 224 L 671.8373251423758 219.790482243984 L 671.8373251423759 228.209517756016" stroke-miterlimit="10"/></g><g transform="translate(2,10) scale(1,1)"><g><path fill="none" stroke="none"/><text fill="#000000" stroke="none" font-family="Arial" font-size="13px" font-style="normal" font-weight="normal" text-decoration="none" x="406.5" y="219.5">3 : BuildQuery(Parameters, Values, Tags)</text></g></g><g transform="translate(2,10) scale(1,1)"><rect fill="#ffffff" stroke="none" x="682" y="224" width="13" height="104"/></g><g transform="translate(2,10) scale(1,1)"><path fill="none" stroke="#000000" d="M 682 224 L 695 224 L 695 328 L 682 328 L 682 224 Z Z" stroke-miterlimit="10"/></g><g transform="translate(2,10) scale(1,1)"><path fill="none" stroke="#000000" d="M 695 248 L 886 248" stroke-miterlimit="10"/></g><g transform="translate(2,10) scale(1,1)"><path fill="#000000" stroke="none" d="M 875.8373251423759 252.209517756016 L 886 248 L 875.8373251423758 243.790482243984"/></g><g transform="translate(2,10) scale(1,1)"><path fill="none" stroke="#000000" d="M 875.8373251423759 252.209517756016 L 886 248 L 875.8373251423758 243.790482243984 L 875.8373251423759 252.209517756016" stroke-miterlimit="10"/></g><g transform="translate(2,10) scale(1,1)"><g><path fill="none" stroke="none"/><text fill="#000000" stroke="none" font-family="Arial" font-size="13px" font-style="normal" font-weight="normal" text-decoration="none" x="722.33544921875" y="244.5">4 : GetLinkedTags(Tag)</text></g></g><g transform="translate(2,10) scale(1,1)"><rect fill="#ffffff" stroke="none" x="886" y="248" width="13" height="28"/></g><g transform="translate(2,10) scale(1,1)"><path fill="none" stroke="#000000" d="M 886 248 L 899 248 L 899 276 L 886 276 L 886 248 Z Z" stroke-miterlimit="10"/></g><g transform="translate(2,10) scale(1,1)"><path fill="none" stroke="#000000" d="M 886 272 L 695 272" stroke-miterlimit="10" stroke-dasharray="3"/></g><g transform="translate(2,10) scale(1,1)"><path fill="none" stroke="#000000" d="M 705.1626748576241 267.790482243984 L 695 272 L 705.1626748576241 276.209517756016" stroke-miterlimit="10"/></g><g transform="translate(2,10) scale(1,1)"><g><path fill="none" stroke="none"/><text fill="#000000" stroke="none" font-family="Arial" font-size="13px" font-style="normal" font-weight="normal" text-decoration="none" x="723.5" y="288.5">5 : Return(LinkedTags)</text></g></g><g transform="translate(2,10) scale(1,1)"><path fill="none" stroke="#000000" d="M 689 328 L 1032 328" stroke-miterlimit="10"/></g><g transform="translate(2,10) scale(1,1)"><path fill="#000000" stroke="none" d="M 1021.8373251423759 332.209517756016 L 1032 328 L 1021.8373251423758 323.790482243984"/></g><g transform="translate(2,10) scale(1,1)"><path fill="none" stroke="#000000" d="M 1021.8373251423759 332.209517756016 L 1032 328 L 1021.8373251423758 323.790482243984 L 1021.8373251423759 332.209517756016" stroke-miterlimit="10"/></g><g transform="translate(2,10) scale(1,1)"><g><path fill="none" stroke="none"/><text fill="#000000" stroke="none" font-family="Arial" font-size="13px" font-style="normal" font-weight="normal" text-decoration="none" x="704.5" y="324.5">6 : GetResults(Parameters, Values, Tags, LinkedTags)</text></g></g><g transform="translate(2,10) scale(1,1)"><rect fill="#ffffff" stroke="none" x="1032" y="328" width="13" height="152"/></g><g transform="translate(2,10) scale(1,1)"><path fill="none" stroke="#000000" d="M 1032 328 L 1045 328 L 1045 480 L 1032 480 L 1032 328 Z Z" stroke-miterlimit="10"/></g><g transform="translate(2,10) scale(1,1)"><path fill="none" stroke="#000000" d="M 1045 400 L 1368 400" stroke-miterlimit="10"/></g><g transform="translate(2,10) scale(1,1)"><path fill="#000000" stroke="none" d="M 1357.837325142376 404.209517756016 L 1368 400 L 1357.837325142376 395.790482243984"/></g><g transform="translate(2,10) scale(1,1)"><path fill="none" stroke="#000000" d="M 1357.837325142376 404.209517756016 L 1368 400 L 1357.837325142376 395.790482243984 L 1357.837325142376 404.209517756016" stroke-miterlimit="10"/></g><g transform="translate(2,10) scale(1,1)"><g><path fill="none" stroke="none"/><text fill="#000000" stroke="none" font-family="Arial" font-size="13px" font-style="normal" font-weight="normal" text-decoration="none" x="1056.5" y="396.5">7 : QueryResult(Parameter, Value, Tag, LinkedTags)</text></g></g><g transform="translate(2,10) scale(1,1)"><rect fill="#ffffff" stroke="none" x="1368" y="400" width="13" height="28"/></g><g transform="translate(2,10) scale(1,1)"><path fill="none" stroke="#000000" d="M 1368 400 L 1381 400 L 1381 428 L 1368 428 L 1368 400 Z Z" stroke-miterlimit="10"/></g><g transform="translate(2,10) scale(1,1)"><path fill="none" stroke="#000000" d="M 1368 424 L 1045 424" stroke-miterlimit="10" stroke-dasharray="3"/></g><g transform="translate(2,10) scale(1,1)"><path fill="none" stroke="#000000" d="M 1055.162674857624 419.790482243984 L 1045 424 L 1055.162674857624 428.209517756016" stroke-miterlimit="10"/></g><g transform="translate(2,10) scale(1,1)"><g><path fill="none" stroke="none"/><text fill="#000000" stroke="none" font-family="Arial" font-size="13px" font-style="normal" font-weight="normal" text-decoration="none" x="1153.5" y="440.5">8 : Return(Result)</text></g></g><g transform="translate(2,10) scale(1,1)"><path fill="none" stroke="#000000" d="M 1039 481 L 399 481" stroke-miterlimit="10"/></g><g transform="translate(2,10) scale(1,1)"><path fill="#000000" stroke="none" d="M 409.16267485762415 476.790482243984 L 399 481 L 409.16267485762415 485.209517756016"/></g><g transform="translate(2,10) scale(1,1)"><path fill="none" stroke="#000000" d="M 409.16267485762415 476.790482243984 L 399 481 L 409.16267485762415 485.209517756016 L 409.16267485762415 476.790482243984" stroke-miterlimit="10"/></g><g transform="translate(2,10) scale(1,1)"><g><path fill="none" stroke="none"/><text fill="#000000" stroke="none" font-family="Arial" font-size="13px" font-style="normal" font-weight="normal" text-decoration="none" x="645.5" y="497.5">9 : ShowResults(Results)</text></g></g><g transform="translate(2,10) scale(1,1)"><rect fill="#ffffff" stroke="none" x="386" y="481" width="13" height="31"/></g><g transform="translate(2,10) scale(1,1)"><path fill="none" stroke="#000000" d="M 386 481 L 399 481 L 399 512 L 386 512 L 386 481 Z Z" stroke-miterlimit="10"/></g><g transform="translate(2,10) scale(1,1)"><path fill="none" stroke="#000000" d="M 393 512 L 423 512 L 423 532 L 399 532" stroke-miterlimit="10"/></g><g transform="translate(2,10) scale(1,1)"><path fill="#000000" stroke="none" d="M 409.16267485762415 527.790482243984 L 399 532 L 409.16267485762415 536.209517756016"/></g><g transform="translate(2,10) scale(1,1)"><path fill="none" stroke="#000000" d="M 409.16267485762415 527.790482243984 L 399 532 L 409.16267485762415 536.209517756016 L 409.16267485762415 527.790482243984" stroke-miterlimit="10"/></g><g transform="translate(2,10) scale(1,1)"><g><path fill="none" stroke="none"/><text fill="#000000" stroke="none" font-family="Arial" font-size="13px" font-style="normal" font-weight="normal" text-decoration="none" x="427.5" y="524.5">10 : RenderResult(Result)</text></g></g><g transform="translate(2,10) scale(1,1)"><rect fill="#ffffff" stroke="none" x="386" y="532" width="13" height="60"/></g><g transform="translate(2,10) scale(1,1)"><path fill="none" stroke="#000000" d="M 386 532 L 399 532 L 399 592 L 386 592 L 386 532 Z Z" stroke-miterlimit="10"/></g><g transform="translate(2,10) scale(1,1)"><path fill="none" stroke="#000000" d="M 393 592 L 129 592" stroke-miterlimit="10" stroke-dasharray="3"/></g><g transform="translate(2,10) scale(1,1)"><path fill="none" stroke="#000000" d="M 139.16267485762415 587.790482243984 L 129 592 L 139.16267485762415 596.209517756016" stroke-miterlimit="10"/></g><g transform="translate(2,10) scale(1,1)"><g><path fill="none" stroke="none"/><text fill="#000000" stroke="none" font-family="Arial" font-size="13px" font-style="normal" font-weight="normal" text-decoration="none" x="187.5" y="608.5">11 : Return(ResultsPage)</text></g></g><g transform="translate(2,10) scale(1,1)"><path fill="none" stroke="#000000" d="M 656 184 L 920 184 L 920 296 L 656 296 L 656 184" stroke-miterlimit="10"/></g><g transform="translate(2,10) scale(1,1)"><path fill="#ffffff" stroke="none" d="M 656 184 L 656 206 L 724.0380859375 206 L 735.0380859375 195 L 735.0380859375 184 L 656 184"/></g><g transform="translate(2,10) scale(1,1)"><path fill="none" stroke="#000000" d="M 656 184 L 656 206 L 724.0380859375 206 L 735.0380859375 195 L 735.0380859375 184 L 656 184 L 656 184" stroke-miterlimit="10"/></g><g transform="translate(2,10) scale(1,1)"><g><path fill="none" stroke="none"/><text fill="#000000" stroke="none" font-family="Arial" font-size="13px" font-style="normal" font-weight="normal" text-decoration="none" x="691.578125" y="201.5">Tags</text></g></g><g transform="translate(2,10) scale(1,1)"><g><path fill="none" stroke="none"/><text fill="#000000" stroke="none" font-family="Arial" font-size="13px" font-style="normal" font-weight="bold" text-decoration="none" x="661" y="201.5">loop</text></g></g><g transform="translate(2,10) scale(1,1)"><path fill="none" stroke="#000000" d="M 1016 352 L 1400 352 L 1400 455 L 1016 455 L 1016 352" stroke-miterlimit="10"/></g><g transform="translate(2,10) scale(1,1)"><path fill="#ffffff" stroke="none" d="M 1016 352 L 1016 374 L 1123.76806640625 374 L 1134.76806640625 363 L 1134.76806640625 352 L 1016 352"/></g><g transform="translate(2,10) scale(1,1)"><path fill="none" stroke="#000000" d="M 1016 352 L 1016 374 L 1123.76806640625 374 L 1134.76806640625 363 L 1134.76806640625 352 L 1016 352 L 1016 352" stroke-miterlimit="10"/></g><g transform="translate(2,10) scale(1,1)"><g><path fill="none" stroke="none"/><text fill="#000000" stroke="none" font-family="Arial" font-size="13px" font-style="normal" font-weight="normal" text-decoration="none" x="1051.578125" y="369.5">Parameters</text></g></g><g transform="translate(2,10) scale(1,1)"><g><path fill="none" stroke="none"/><text fill="#000000" stroke="none" font-family="Arial" font-size="13px" font-style="normal" font-weight="bold" text-decoration="none" x="1021" y="369.5">loop</text></g></g><g transform="translate(2,10) scale(1,1)"><path fill="none" stroke="#000000" d="M 360 432 L 615 432 L 615 576 L 360 576 L 360 432" stroke-miterlimit="10"/></g><g transform="translate(2,10) scale(1,1)"><path fill="#ffffff" stroke="none" d="M 360 432 L 360 454 L 443.92626953125 454 L 454.92626953125 443 L 454.92626953125 432 L 360 432"/></g><g transform="translate(2,10) scale(1,1)"><path fill="none" stroke="#000000" d="M 360 432 L 360 454 L 443.92626953125 454 L 454.92626953125 443 L 454.92626953125 432 L 360 432 L 360 432" stroke-miterlimit="10"/></g><g transform="translate(2,10) scale(1,1)"><g><path fill="none" stroke="none"/><text fill="#000000" stroke="none" font-family="Arial" font-size="13px" font-style="normal" font-weight="normal" text-decoration="none" x="395.578125" y="449.5">Results</text></g></g><g transform="translate(2,10) scale(1,1)"><g><path fill="none" stroke="none"/><text fill="#000000" stroke="none" font-family="Arial" font-size="13px" font-style="normal" font-weight="bold" text-decoration="none" x="365" y="449.5">loop</text></g></g></g></svg>