<svg version="1.1" xmlns="http://www.w3.org/2000/svg" xmlns:xlink="http://www.w3.org/1999/xlink" width="1751" height="1791"><defs/><g><g transform="translate(5,5) scale(1,1)"><path fill="none" stroke="#000000" d="M 5 5 L 1736 5 L 1736 1776 L 5 1776 L 5 5" stroke-miterlimit="10"/></g><g transform="translate(5,5) scale(1,1)"><path fill="#ffffff" stroke="none" d="M 5 5 L 5 27 L 167.66259765625 27 L 178.66259765625 16 L 178.66259765625 5 L 5 5"/></g><g transform="translate(5,5) scale(1,1)"><path fill="none" stroke="#000000" d="M 5 5 L 5 27 L 167.66259765625 27 L 178.66259765625 16 L 178.66259765625 5 L 5 5 L 5 5" stroke-miterlimit="10"/></g><g transform="translate(5,5) scale(1,1)"><g><path fill="none" stroke="none"/><text fill="#000000" stroke="none" font-family="Arial" font-size="13px" font-style="normal" font-weight="normal" text-decoration="none" x="75.97900390625" y="22.5">Activity Stream</text></g></g><g transform="translate(5,5) scale(1,1)"><g><path fill="none" stroke="none"/><text fill="#000000" stroke="none" font-family="Arial" font-size="13px" font-style="normal" font-weight="bold" text-decoration="none" x="10" y="22.5">interaction</text></g></g><g transform="translate(5,5) scale(1,1)"><path fill="none" stroke="#000000" d="M 32 128 L 1712 128 L 1712 423 L 32 423 L 32 128" stroke-miterlimit="10"/></g><g transform="translate(5,5) scale(1,1)"><path fill="#ffffff" stroke="none" d="M 32 128 L 32 150 L 234.43701171875 150 L 245.43701171875 139 L 245.43701171875 128 L 32 128"/></g><g transform="translate(5,5) scale(1,1)"><path fill="none" stroke="#000000" d="M 32 128 L 32 150 L 234.43701171875 150 L 245.43701171875 139 L 245.43701171875 128 L 32 128 L 32 128" stroke-miterlimit="10"/></g><g transform="translate(5,5) scale(1,1)"><g><path fill="none" stroke="none"/><text fill="#000000" stroke="none" font-family="Arial" font-size="13px" font-style="normal" font-weight="normal" text-decoration="none" x="95.03173828125" y="145.5">Subscribe to own posts</text></g></g><g transform="translate(5,5) scale(1,1)"><g><path fill="none" stroke="none"/><text fill="#000000" stroke="none" font-family="Arial" font-size="13px" font-style="normal" font-weight="bold" text-decoration="none" x="37" y="145.5">use case</text></g></g><g transform="translate(5,5) scale(1,1)"><path fill="none" stroke="#000000" d="M 32 464 L 1712 464 L 1712 880 L 32 880 L 32 464" stroke-miterlimit="10"/></g><g transform="translate(5,5) scale(1,1)"><path fill="#ffffff" stroke="none" d="M 32 464 L 32 486 L 292.5625 486 L 303.5625 475 L 303.5625 464 L 32 464"/></g><g transform="translate(5,5) scale(1,1)"><path fill="none" stroke="#000000" d="M 32 464 L 32 486 L 292.5625 486 L 303.5625 475 L 303.5625 464 L 32 464 L 32 464" stroke-miterlimit="10"/></g><g transform="translate(5,5) scale(1,1)"><g><path fill="none" stroke="none"/><text fill="#000000" stroke="none" font-family="Arial" font-size="13px" font-style="normal" font-weight="normal" text-decoration="none" x="95.03173828125" y="481.5">Subscribe to another user's posts</text></g></g><g transform="translate(5,5) scale(1,1)"><g><path fill="none" stroke="none"/><text fill="#000000" stroke="none" font-family="Arial" font-size="13px" font-style="normal" font-weight="bold" text-decoration="none" x="37" y="481.5">use case</text></g></g><g transform="translate(5,5) scale(1,1)"><path fill="none" stroke="#000000" d="M 32 904 L 1712 904 L 1712 1224 L 32 1224 L 32 904" stroke-miterlimit="10"/></g><g transform="translate(5,5) scale(1,1)"><path fill="#ffffff" stroke="none" d="M 32 904 L 32 926 L 273.43701171875 926 L 284.43701171875 915 L 284.43701171875 904 L 32 904"/></g><g transform="translate(5,5) scale(1,1)"><path fill="none" stroke="#000000" d="M 32 904 L 32 926 L 273.43701171875 926 L 284.43701171875 915 L 284.43701171875 904 L 32 904 L 32 904" stroke-miterlimit="10"/></g><g transform="translate(5,5) scale(1,1)"><g><path fill="none" stroke="none"/><text fill="#000000" stroke="none" font-family="Arial" font-size="13px" font-style="normal" font-weight="normal" text-decoration="none" x="95.03173828125" y="921.5">Subscribe to community posts</text></g></g><g transform="translate(5,5) scale(1,1)"><g><path fill="none" stroke="none"/><text fill="#000000" stroke="none" font-family="Arial" font-size="13px" font-style="normal" font-weight="bold" text-decoration="none" x="37" y="921.5">use case</text></g></g><g transform="translate(5,5) scale(1,1)"><path fill="none" stroke="#000000" d="M 32 1248 L 1712 1248 L 1712 1688 L 32 1688 L 32 1248" stroke-miterlimit="10"/></g><g transform="translate(5,5) scale(1,1)"><path fill="#ffffff" stroke="none" d="M 32 1248 L 32 1270 L 347.8759765625 1270 L 358.8759765625 1259 L 358.8759765625 1248 L 32 1248"/></g><g transform="translate(5,5) scale(1,1)"><path fill="none" stroke="#000000" d="M 32 1248 L 32 1270 L 347.8759765625 1270 L 358.8759765625 1259 L 358.8759765625 1248 L 32 1248 L 32 1248" stroke-miterlimit="10"/></g><g transform="translate(5,5) scale(1,1)"><g><path fill="none" stroke="none"/><text fill="#000000" stroke="none" font-family="Arial" font-size="13px" font-style="normal" font-weight="normal" text-decoration="none" x="95.03173828125" y="1265.5">Subscribe to posts with a specific post type</text></g></g><g transform="translate(5,5) scale(1,1)"><g><path fill="none" stroke="none"/><text fill="#000000" stroke="none" font-family="Arial" font-size="13px" font-style="normal" font-weight="bold" text-decoration="none" x="37" y="1265.5">use case</text></g></g><g transform="translate(5,5) scale(1,1)"><path fill="#ffffff" stroke="none" d="M 141.8526473721591 47.3 C 141.8526473721591 43.82060576 144.7310490943409 41 148.28173828125 41 C 151.8324274681591 41 154.71082919034092 43.82060576 154.71082919034092 47.3 C 154.71082919034092 50.779394239999995 151.8324274681591 53.6 148.28173828125 53.6 C 144.7310490943409 53.6 141.8526473721591 50.779394239999995 141.8526473721591 47.3 Z"/></g><g transform="translate(5,5) scale(1,1)"><path fill="none" stroke="#000000" d="M 141.8526473721591 47.3 C 141.8526473721591 43.82060576 144.7310490943409 41 148.28173828125 41 C 151.8324274681591 41 154.71082919034092 43.82060576 154.71082919034092 47.3 C 154.71082919034092 50.779394239999995 151.8324274681591 53.6 148.28173828125 53.6 C 144.7310490943409 53.6 141.8526473721591 50.779394239999995 141.8526473721591 47.3 Z" stroke-miterlimit="10"/></g><g transform="translate(5,5) scale(1,1)"><path fill="none" stroke="#000000" d="M 148.28173828125 53.6 L 148.28173828125 66.4" stroke-miterlimit="10"/></g><g transform="translate(5,5) scale(1,1)"><path fill="none" stroke="#000000" d="M 141.4744655539773 58.4 L 155.08901100852273 58.4" stroke-miterlimit="10"/></g><g transform="translate(5,5) scale(1,1)"><path fill="none" stroke="#000000" d="M 148.28173828125 66.4 L 138.82719282670456 79" stroke-miterlimit="10"/></g><g transform="translate(5,5) scale(1,1)"><path fill="none" stroke="#000000" d="M 148.28173828125 66.4 L 157.73628373579547 79" stroke-miterlimit="10"/></g><g transform="translate(5,5) scale(1,1)"><g><path fill="none" stroke="none"/><text fill="#000000" stroke="none" font-family="Arial" font-size="13px" font-style="normal" font-weight="bold" text-decoration="none" x="66.63818359375" y="99.5">Subscriber: Registered User</text></g></g><g transform="translate(5,5) scale(1,1)"><path fill="none" stroke="#000000" d="M 149.5 105 L 149.5 1760" stroke-miterlimit="10" stroke-dasharray="3"/></g><g transform="translate(5,5) scale(1,1)"><rect fill="#C0C0C0" stroke="none" x="783" y="47" width="140.3671875" height="39" opacity="0.2"/></g><g transform="translate(5,5) scale(1,1)"><rect fill="#ffffff" stroke="none" x="776" y="40" width="140.3671875" height="39"/></g><g transform="translate(5,5) scale(1,1)"><path fill="none" stroke="#000000" d="M 776 40 L 916.3671875 40 L 916.3671875 79 L 776 79 L 776 40 Z Z" stroke-miterlimit="10"/></g><g transform="translate(5,5) scale(1,1)"><g><path fill="none" stroke="none"/><text fill="#000000" stroke="none" font-family="Arial" font-size="13px" font-style="normal" font-weight="bold" text-decoration="none" x="817.279541015625" y="59.5">post: Post</text></g></g><g transform="translate(5,5) scale(1,1)"><path fill="none" stroke="#000000" d="M 847.5 80 L 847.5 1760" stroke-miterlimit="10" stroke-dasharray="3"/></g><g transform="translate(5,5) scale(1,1)"><rect fill="#C0C0C0" stroke="none" x="1263" y="47" width="185.8671875" height="39" opacity="0.2"/></g><g transform="translate(5,5) scale(1,1)"><rect fill="#ffffff" stroke="none" x="1256" y="40" width="185.8671875" height="39"/></g><g transform="translate(5,5) scale(1,1)"><path fill="none" stroke="#000000" d="M 1256 40 L 1441.8671875 40 L 1441.8671875 79 L 1256 79 L 1256 40 Z Z" stroke-miterlimit="10"/></g><g transform="translate(5,5) scale(1,1)"><g><path fill="none" stroke="none"/><text fill="#000000" stroke="none" font-family="Arial" font-size="13px" font-style="normal" font-weight="bold" text-decoration="none" x="1272.707763671875" y="59.5">notSrv: NotificationService</text></g></g><g transform="translate(5,5) scale(1,1)"><path fill="none" stroke="#000000" d="M 1349.5 80 L 1349.5 1760" stroke-miterlimit="10" stroke-dasharray="3"/></g><g transform="translate(5,5) scale(1,1)"><rect fill="#C0C0C0" stroke="none" x="991" y="47" width="144.67724609375" height="39" opacity="0.2"/></g><g transform="translate(5,5) scale(1,1)"><rect fill="#ffffff" stroke="none" x="984" y="40" width="144.67724609375" height="39"/></g><g transform="translate(5,5) scale(1,1)"><path fill="none" stroke="#000000" d="M 984 40 L 1128.67724609375 40 L 1128.67724609375 79 L 984 79 L 984 40 Z Z" stroke-miterlimit="10"/></g><g transform="translate(5,5) scale(1,1)"><g><path fill="none" stroke="none"/><text fill="#000000" stroke="none" font-family="Arial" font-size="13px" font-style="normal" font-weight="bold" text-decoration="none" x="997.82275390625" y="59.5">comment: Comment</text></g></g><g transform="translate(5,5) scale(1,1)"><path fill="none" stroke="#000000" d="M 1057.5 80 L 1057.5 1760" stroke-miterlimit="10" stroke-dasharray="3"/></g><g transform="translate(5,5) scale(1,1)"><path fill="#ffffff" stroke="none" d="M 349.3694930752841 47.3 C 349.3694930752841 43.82060576 352.2478947974659 41 355.798583984375 41 C 359.3492731712841 41 362.227674893466 43.82060576 362.227674893466 47.3 C 362.227674893466 50.779394239999995 359.3492731712841 53.6 355.798583984375 53.6 C 352.2478947974659 53.6 349.3694930752841 50.779394239999995 349.3694930752841 47.3 Z"/></g><g transform="translate(5,5) scale(1,1)"><path fill="none" stroke="#000000" d="M 349.3694930752841 47.3 C 349.3694930752841 43.82060576 352.2478947974659 41 355.798583984375 41 C 359.3492731712841 41 362.227674893466 43.82060576 362.227674893466 47.3 C 362.227674893466 50.779394239999995 359.3492731712841 53.6 355.798583984375 53.6 C 352.2478947974659 53.6 349.3694930752841 50.779394239999995 349.3694930752841 47.3 Z" stroke-miterlimit="10"/></g><g transform="translate(5,5) scale(1,1)"><path fill="none" stroke="#000000" d="M 355.798583984375 53.6 L 355.798583984375 66.4" stroke-miterlimit="10"/></g><g transform="translate(5,5) scale(1,1)"><path fill="none" stroke="#000000" d="M 348.99131125710227 58.4 L 362.6058567116478 58.4" stroke-miterlimit="10"/></g><g transform="translate(5,5) scale(1,1)"><path fill="none" stroke="#000000" d="M 355.798583984375 66.4 L 346.34403852982956 79" stroke-miterlimit="10"/></g><g transform="translate(5,5) scale(1,1)"><path fill="none" stroke="#000000" d="M 355.798583984375 66.4 L 365.2531294389205 79" stroke-miterlimit="10"/></g><g transform="translate(5,5) scale(1,1)"><g><path fill="none" stroke="none"/><text fill="#000000" stroke="none" font-family="Arial" font-size="13px" font-style="normal" font-weight="bold" text-decoration="none" x="258.977783203125" y="99.5">Content Creator: Registered User</text></g></g><g transform="translate(5,5) scale(1,1)"><path fill="none" stroke="#000000" d="M 356.5 105 L 356.5 1760" stroke-miterlimit="10" stroke-dasharray="3"/></g><g transform="translate(5,5) scale(1,1)"><rect fill="#C0C0C0" stroke="none" x="1583" y="47" width="128" height="39" opacity="0.2"/></g><g transform="translate(5,5) scale(1,1)"><rect fill="#ffffff" stroke="none" x="1576" y="40" width="128" height="39"/></g><g transform="translate(5,5) scale(1,1)"><path fill="none" stroke="#000000" d="M 1576 40 L 1704 40 L 1704 79 L 1576 79 L 1576 40 Z Z" stroke-miterlimit="10"/></g><g transform="translate(5,5) scale(1,1)"><g><path fill="none" stroke="none"/><text fill="#000000" stroke="none" font-family="Arial" font-size="13px" font-style="normal" font-weight="bold" text-decoration="none" x="1612.175048828125" y="59.5">Database</text></g></g><g transform="translate(5,5) scale(1,1)"><path fill="none" stroke="#000000" d="M 1641.5 80 L 1641.5 1760" stroke-miterlimit="10" stroke-dasharray="3"/></g><g transform="translate(5,5) scale(1,1)"><rect fill="#C0C0C0" stroke="none" x="479" y="47" width="242.20263671875" height="39" opacity="0.2"/></g><g transform="translate(5,5) scale(1,1)"><rect fill="#ffffff" stroke="none" x="472" y="40" width="242.20263671875" height="39"/></g><g transform="translate(5,5) scale(1,1)"><path fill="none" stroke="#000000" d="M 472 40 L 714.20263671875 40 L 714.20263671875 79 L 472 79 L 472 40 Z Z" stroke-miterlimit="10"/></g><g transform="translate(5,5) scale(1,1)"><g><path fill="none" stroke="none"/><text fill="#000000" stroke="none" font-family="Arial" font-size="13px" font-style="normal" font-weight="bold" text-decoration="none" x="491.59912109375" y="59.5">ActivityStreamController: Controller</text></g></g><g transform="translate(5,5) scale(1,1)"><path fill="none" stroke="#000000" d="M 594.5 80 L 594.5 1760" stroke-miterlimit="10" stroke-dasharray="3"/></g><g transform="translate(5,5) scale(1,1)"><path fill="none" stroke="#000000" d="M 356 194 L 1050 194" stroke-miterlimit="10"/></g><g transform="translate(5,5) scale(1,1)"><path fill="#000000" stroke="none" d="M 1039.837325142376 198.209517756016 L 1050 194 L 1039.837325142376 189.790482243984"/></g><g transform="translate(5,5) scale(1,1)"><path fill="none" stroke="#000000" d="M 1039.837325142376 198.209517756016 L 1050 194 L 1039.837325142376 189.790482243984 L 1039.837325142376 198.209517756016" stroke-miterlimit="10"/></g><g transform="translate(5,5) scale(1,1)"><g><path fill="none" stroke="none"/><text fill="#000000" stroke="none" font-family="Arial" font-size="13px" font-style="normal" font-weight="normal" text-decoration="none" x="772.424072265625" y="190.5">1 : CreateComment(commentParams)</text></g></g><g transform="translate(5,5) scale(1,1)"><rect fill="#ffffff" stroke="none" x="1050" y="194" width="13" height="28"/></g><g transform="translate(5,5) scale(1,1)"><path fill="none" stroke="#000000" d="M 1050 194 L 1063 194 L 1063 222 L 1050 222 L 1050 194 Z Z" stroke-miterlimit="10"/></g><g transform="translate(5,5) scale(1,1)"><path fill="none" stroke="#000000" d="M 1063 208 L 1093 208 L 1093 228 L 1063 228" stroke-miterlimit="10"/></g><g transform="translate(5,5) scale(1,1)"><path fill="#000000" stroke="none" d="M 1073.162674857624 223.790482243984 L 1063 228 L 1073.162674857624 232.209517756016"/></g><g transform="translate(5,5) scale(1,1)"><path fill="none" stroke="#000000" d="M 1073.162674857624 223.790482243984 L 1063 228 L 1073.162674857624 232.209517756016 L 1073.162674857624 223.790482243984" stroke-miterlimit="10"/></g><g transform="translate(5,5) scale(1,1)"><g><path fill="none" stroke="none"/><text fill="#000000" stroke="none" font-family="Arial" font-size="13px" font-style="normal" font-weight="normal" text-decoration="none" x="1103.5" y="223.5">2 : GetPost(comment)</text></g></g><g transform="translate(5,5) scale(1,1)"><rect fill="#ffffff" stroke="none" x="1050" y="228" width="13" height="28"/></g><g transform="translate(5,5) scale(1,1)"><path fill="none" stroke="#000000" d="M 1050 228 L 1063 228 L 1063 256 L 1050 256 L 1050 228 Z Z" stroke-miterlimit="10"/></g><g transform="translate(5,5) scale(1,1)"><path fill="none" stroke="#000000" d="M 1057 256 L 1342 256" stroke-miterlimit="10"/></g><g transform="translate(5,5) scale(1,1)"><path fill="#000000" stroke="none" d="M 1331.837325142376 260.209517756016 L 1342 256 L 1331.837325142376 251.790482243984"/></g><g transform="translate(5,5) scale(1,1)"><path fill="none" stroke="#000000" d="M 1331.837325142376 260.209517756016 L 1342 256 L 1331.837325142376 251.790482243984 L 1331.837325142376 260.209517756016" stroke-miterlimit="10"/></g><g transform="translate(5,5) scale(1,1)"><g><path fill="none" stroke="none"/><text fill="#000000" stroke="none" font-family="Arial" font-size="13px" font-style="normal" font-weight="normal" text-decoration="none" x="1120.80908203125" y="251.5">3 : NotifyPostOwner(post)</text></g></g><g transform="translate(5,5) scale(1,1)"><rect fill="#ffffff" stroke="none" x="1342" y="256" width="13" height="32"/></g><g transform="translate(5,5) scale(1,1)"><path fill="none" stroke="#000000" d="M 1342 256 L 1355 256 L 1355 288 L 1342 288 L 1342 256 Z Z" stroke-miterlimit="10"/></g><g transform="translate(5,5) scale(1,1)"><path fill="none" stroke="#000000" d="M 1342 280 L 853 280" stroke-miterlimit="10"/></g><g transform="translate(5,5) scale(1,1)"><path fill="#000000" stroke="none" d="M 863.1626748576241 275.790482243984 L 853 280 L 863.1626748576241 284.209517756016"/></g><g transform="translate(5,5) scale(1,1)"><path fill="none" stroke="#000000" d="M 863.1626748576241 275.790482243984 L 853 280 L 863.1626748576241 284.209517756016 L 863.1626748576241 275.790482243984" stroke-miterlimit="10"/></g><g transform="translate(5,5) scale(1,1)"><g><path fill="none" stroke="none"/><text fill="#000000" stroke="none" font-family="Arial" font-size="13px" font-style="normal" font-weight="normal" text-decoration="none" x="917.5" y="275.5">4 : GetOwner(comment)</text></g></g><g transform="translate(5,5) scale(1,1)"><rect fill="#ffffff" stroke="none" x="840" y="280" width="13" height="88"/></g><g transform="translate(5,5) scale(1,1)"><path fill="none" stroke="#000000" d="M 840 280 L 853 280 L 853 368 L 840 368 L 840 280 Z Z" stroke-miterlimit="10"/></g><g transform="translate(5,5) scale(1,1)"><path fill="none" stroke="#000000" d="M 853 312 L 1634 312" stroke-miterlimit="10"/></g><g transform="translate(5,5) scale(1,1)"><path fill="#000000" stroke="none" d="M 1623.837325142376 316.209517756016 L 1634 312 L 1623.837325142376 307.790482243984"/></g><g transform="translate(5,5) scale(1,1)"><path fill="none" stroke="#000000" d="M 1623.837325142376 316.209517756016 L 1634 312 L 1623.837325142376 307.790482243984 L 1623.837325142376 316.209517756016" stroke-miterlimit="10"/></g><g transform="translate(5,5) scale(1,1)"><g><path fill="none" stroke="none"/><text fill="#000000" stroke="none" font-family="Arial" font-size="13px" font-style="normal" font-weight="normal" text-decoration="none" x="1162.5" y="306.5">5 : QueryResult(postId)</text></g></g><g transform="translate(5,5) scale(1,1)"><rect fill="#ffffff" stroke="none" x="1634" y="312" width="13" height="28"/></g><g transform="translate(5,5) scale(1,1)"><path fill="none" stroke="#000000" d="M 1634 312 L 1647 312 L 1647 340 L 1634 340 L 1634 312 Z Z" stroke-miterlimit="10"/></g><g transform="translate(5,5) scale(1,1)"><path fill="none" stroke="#000000" d="M 1634 336 L 853 336" stroke-miterlimit="10" stroke-dasharray="3"/></g><g transform="translate(5,5) scale(1,1)"><path fill="none" stroke="#000000" d="M 863.1626748576241 331.790482243984 L 853 336 L 863.1626748576241 340.209517756016" stroke-miterlimit="10"/></g><g transform="translate(5,5) scale(1,1)"><g><path fill="none" stroke="none"/><text fill="#000000" stroke="none" font-family="Arial" font-size="13px" font-style="normal" font-weight="normal" text-decoration="none" x="1215.338623046875" y="331.5">6 : owner</text></g></g><g transform="translate(5,5) scale(1,1)"><path fill="none" stroke="#000000" d="M 853 360 L 1342 360" stroke-miterlimit="10"/></g><g transform="translate(5,5) scale(1,1)"><path fill="#000000" stroke="none" d="M 1331.837325142376 364.209517756016 L 1342 360 L 1331.837325142376 355.790482243984"/></g><g transform="translate(5,5) scale(1,1)"><path fill="none" stroke="#000000" d="M 1331.837325142376 364.209517756016 L 1342 360 L 1331.837325142376 355.790482243984 L 1331.837325142376 364.209517756016" stroke-miterlimit="10"/></g><g transform="translate(5,5) scale(1,1)"><g><path fill="none" stroke="none"/><text fill="#000000" stroke="none" font-family="Arial" font-size="13px" font-style="normal" font-weight="normal" text-decoration="none" x="997.338623046875" y="355.5">7 : owner</text></g></g><g transform="translate(5,5) scale(1,1)"><rect fill="#ffffff" stroke="none" x="1342" y="360" width="13" height="28"/></g><g transform="translate(5,5) scale(1,1)"><path fill="none" stroke="#000000" d="M 1342 360 L 1355 360 L 1355 388 L 1342 388 L 1342 360 Z Z" stroke-miterlimit="10"/></g><g transform="translate(5,5) scale(1,1)"><path fill="none" stroke="#000000" d="M 1342 384 L 600 384" stroke-miterlimit="10"/></g><g transform="translate(5,5) scale(1,1)"><path fill="#000000" stroke="none" d="M 610.1626748576241 379.790482243984 L 600 384 L 610.1626748576241 388.209517756016"/></g><g transform="translate(5,5) scale(1,1)"><path fill="none" stroke="#000000" d="M 610.1626748576241 379.790482243984 L 600 384 L 610.1626748576241 388.209517756016 L 610.1626748576241 379.790482243984" stroke-miterlimit="10"/></g><g transform="translate(5,5) scale(1,1)"><g><path fill="none" stroke="none"/><text fill="#000000" stroke="none" font-family="Arial" font-size="13px" font-style="normal" font-weight="normal" text-decoration="none" x="853.5" y="404.5">8 : CreateNotification(params, owner)</text></g></g><g transform="translate(5,5) scale(1,1)"><rect fill="#ffffff" stroke="none" x="587" y="384" width="13" height="28"/></g><g transform="translate(5,5) scale(1,1)"><path fill="none" stroke="#000000" d="M 587 384 L 600 384 L 600 412 L 587 412 L 587 384 Z Z" stroke-miterlimit="10"/></g><g transform="translate(5,5) scale(1,1)"><path fill="none" stroke="#000000" d="M 587 400 L 149 400" stroke-miterlimit="10" stroke-dasharray="3"/></g><g transform="translate(5,5) scale(1,1)"><path fill="none" stroke="#000000" d="M 159.16267485762415 395.790482243984 L 149 400 L 159.16267485762415 404.209517756016" stroke-miterlimit="10"/></g><g transform="translate(5,5) scale(1,1)"><g><path fill="none" stroke="none"/><text fill="#000000" stroke="none" font-family="Arial" font-size="13px" font-style="normal" font-weight="normal" text-decoration="none" x="289.338623046875" y="416.5">9 : Activity Stream View</text></g></g><g transform="translate(5,5) scale(1,1)"><path fill="none" stroke="#000000" d="M 149 513 L 1342 513" stroke-miterlimit="10"/></g><g transform="translate(5,5) scale(1,1)"><path fill="#000000" stroke="none" d="M 1331.837325142376 517.209517756016 L 1342 513 L 1331.837325142376 508.790482243984"/></g><g transform="translate(5,5) scale(1,1)"><path fill="none" stroke="#000000" d="M 1331.837325142376 517.209517756016 L 1342 513 L 1331.837325142376 508.790482243984 L 1331.837325142376 517.209517756016" stroke-miterlimit="10"/></g><g transform="translate(5,5) scale(1,1)"><g><path fill="none" stroke="none"/><text fill="#000000" stroke="none" font-family="Arial" font-size="13px" font-style="normal" font-weight="normal" text-decoration="none" x="604.5" y="499.5">10 : SubscribeToUser(userId)</text></g></g><g transform="translate(5,5) scale(1,1)"><rect fill="#ffffff" stroke="none" x="1342" y="513" width="13" height="63"/></g><g transform="translate(5,5) scale(1,1)"><path fill="none" stroke="#000000" d="M 1342 513 L 1355 513 L 1355 576 L 1342 576 L 1342 513 Z Z" stroke-miterlimit="10"/></g><g transform="translate(5,5) scale(1,1)"><path fill="none" stroke="#000000" d="M 1355 536 L 1634 536" stroke-miterlimit="10"/></g><g transform="translate(5,5) scale(1,1)"><path fill="#000000" stroke="none" d="M 1623.837325142376 540.209517756016 L 1634 536 L 1623.837325142376 531.790482243984"/></g><g transform="translate(5,5) scale(1,1)"><path fill="none" stroke="#000000" d="M 1623.837325142376 540.209517756016 L 1634 536 L 1623.837325142376 531.790482243984 L 1623.837325142376 540.209517756016" stroke-miterlimit="10"/></g><g transform="translate(5,5) scale(1,1)"><g><path fill="none" stroke="none"/><text fill="#000000" stroke="none" font-family="Arial" font-size="13px" font-style="normal" font-weight="normal" text-decoration="none" x="1416.982421875" y="532.5">11 : Save(subscriptionInfo)</text></g></g><g transform="translate(5,5) scale(1,1)"><rect fill="#ffffff" stroke="none" x="1634" y="536" width="13" height="28"/></g><g transform="translate(5,5) scale(1,1)"><path fill="none" stroke="#000000" d="M 1634 536 L 1647 536 L 1647 564 L 1634 564 L 1634 536 Z Z" stroke-miterlimit="10"/></g><g transform="translate(5,5) scale(1,1)"><path fill="none" stroke="#000000" d="M 1634 561 L 1355 561" stroke-miterlimit="10" stroke-dasharray="3"/></g><g transform="translate(5,5) scale(1,1)"><path fill="none" stroke="#000000" d="M 1365.162674857624 556.790482243984 L 1355 561 L 1365.162674857624 565.209517756016" stroke-miterlimit="10"/></g><g transform="translate(5,5) scale(1,1)"><g><path fill="none" stroke="none"/><text fill="#000000" stroke="none" font-family="Arial" font-size="13px" font-style="normal" font-weight="normal" text-decoration="none" x="1430.5" y="577.5">12 : successMessage</text></g></g><g transform="translate(5,5) scale(1,1)"><path fill="none" stroke="#000000" d="M 1342 568 L 149 568" stroke-miterlimit="10" stroke-dasharray="3"/></g><g transform="translate(5,5) scale(1,1)"><path fill="none" stroke="#000000" d="M 159.16267485762415 563.790482243984 L 149 568 L 159.16267485762415 572.209517756016" stroke-miterlimit="10"/></g><g transform="translate(5,5) scale(1,1)"><g><path fill="none" stroke="none"/><text fill="#000000" stroke="none" font-family="Arial" font-size="13px" font-style="normal" font-weight="normal" text-decoration="none" x="625.14453125" y="584.5">13 : successMessage</text></g></g><g transform="translate(5,5) scale(1,1)"><path fill="none" stroke="#000000" d="M 356 640 L 840 640" stroke-miterlimit="10"/></g><g transform="translate(5,5) scale(1,1)"><path fill="#000000" stroke="none" d="M 829.8373251423759 644.209517756016 L 840 640 L 829.8373251423758 635.790482243984"/></g><g transform="translate(5,5) scale(1,1)"><path fill="none" stroke="#000000" d="M 829.8373251423759 644.209517756016 L 840 640 L 829.8373251423758 635.790482243984 L 829.8373251423759 644.209517756016" stroke-miterlimit="10"/></g><g transform="translate(5,5) scale(1,1)"><g><path fill="none" stroke="none"/><text fill="#000000" stroke="none" font-family="Arial" font-size="13px" font-style="normal" font-weight="normal" text-decoration="none" x="508.5" y="636.5">14 : Create-EditPost(postParams)</text></g></g><g transform="translate(5,5) scale(1,1)"><rect fill="#ffffff" stroke="none" x="840" y="640" width="13" height="28"/></g><g transform="translate(5,5) scale(1,1)"><path fill="none" stroke="#000000" d="M 840 640 L 853 640 L 853 668 L 840 668 L 840 640 Z Z" stroke-miterlimit="10"/></g><g transform="translate(5,5) scale(1,1)"><path fill="none" stroke="#000000" d="M 853 656 L 1342 656" stroke-miterlimit="10"/></g><g transform="translate(5,5) scale(1,1)"><path fill="#000000" stroke="none" d="M 1331.837325142376 660.209517756016 L 1342 656 L 1331.837325142376 651.790482243984"/></g><g transform="translate(5,5) scale(1,1)"><path fill="none" stroke="#000000" d="M 1331.837325142376 660.209517756016 L 1342 656 L 1331.837325142376 651.790482243984 L 1331.837325142376 660.209517756016" stroke-miterlimit="10"/></g><g transform="translate(5,5) scale(1,1)"><g><path fill="none" stroke="none"/><text fill="#000000" stroke="none" font-family="Arial" font-size="13px" font-style="normal" font-weight="normal" text-decoration="none" x="1114.88818359375" y="652.5">15 : NotifyUserSubscribers(post)</text></g></g><g transform="translate(5,5) scale(1,1)"><rect fill="#ffffff" stroke="none" x="1342" y="656" width="13" height="112"/></g><g transform="translate(5,5) scale(1,1)"><path fill="none" stroke="#000000" d="M 1342 656 L 1355 656 L 1355 768 L 1342 768 L 1342 656 Z Z" stroke-miterlimit="10"/></g><g transform="translate(5,5) scale(1,1)"><path fill="none" stroke="#000000" d="M 356 688 L 1050 688" stroke-miterlimit="10"/></g><g transform="translate(5,5) scale(1,1)"><path fill="#000000" stroke="none" d="M 1039.837325142376 692.209517756016 L 1050 688 L 1039.837325142376 683.790482243984"/></g><g transform="translate(5,5) scale(1,1)"><path fill="none" stroke="#000000" d="M 1039.837325142376 692.209517756016 L 1050 688 L 1039.837325142376 683.790482243984 L 1039.837325142376 692.209517756016" stroke-miterlimit="10"/></g><g transform="translate(5,5) scale(1,1)"><g><path fill="none" stroke="none"/><text fill="#000000" stroke="none" font-family="Arial" font-size="13px" font-style="normal" font-weight="normal" text-decoration="none" x="565.5" y="683.5">16 : CreateComment(commentParams)</text></g></g><g transform="translate(5,5) scale(1,1)"><rect fill="#ffffff" stroke="none" x="1050" y="688" width="13" height="28"/></g><g transform="translate(5,5) scale(1,1)"><path fill="none" stroke="#000000" d="M 1050 688 L 1063 688 L 1063 716 L 1050 716 L 1050 688 Z Z" stroke-miterlimit="10"/></g><g transform="translate(5,5) scale(1,1)"><path fill="none" stroke="#000000" d="M 1063 712 L 1349 712" stroke-miterlimit="10"/></g><g transform="translate(5,5) scale(1,1)"><path fill="#000000" stroke="none" d="M 1338.837325142376 716.209517756016 L 1349 712 L 1338.837325142376 707.790482243984"/></g><g transform="translate(5,5) scale(1,1)"><path fill="none" stroke="#000000" d="M 1338.837325142376 716.209517756016 L 1349 712 L 1338.837325142376 707.790482243984 L 1338.837325142376 716.209517756016" stroke-miterlimit="10"/></g><g transform="translate(5,5) scale(1,1)"><g><path fill="none" stroke="none"/><text fill="#000000" stroke="none" font-family="Arial" font-size="13px" font-style="normal" font-weight="normal" text-decoration="none" x="1093.5" y="706.5">17 : NotifyUserSubscribers(comment)</text></g></g><g transform="translate(5,5) scale(1,1)"><rect fill="#ffffff" stroke="none" x="1349" y="712" width="13" height="28"/></g><g transform="translate(5,5) scale(1,1)"><path fill="none" stroke="#000000" d="M 1349 712 L 1362 712 L 1362 740 L 1349 740 L 1349 712 Z Z" stroke-miterlimit="10"/></g><g transform="translate(5,5) scale(1,1)"><path fill="none" stroke="#000000" d="M 1355 752 L 1385 752 L 1385 772 L 1355 772" stroke-miterlimit="10"/></g><g transform="translate(5,5) scale(1,1)"><path fill="#000000" stroke="none" d="M 1365.162674857624 767.790482243984 L 1355 772 L 1365.162674857624 776.209517756016"/></g><g transform="translate(5,5) scale(1,1)"><path fill="none" stroke="#000000" d="M 1365.162674857624 767.790482243984 L 1355 772 L 1365.162674857624 776.209517756016 L 1365.162674857624 767.790482243984" stroke-miterlimit="10"/></g><g transform="translate(5,5) scale(1,1)"><g><path fill="none" stroke="none"/><text fill="#000000" stroke="none" font-family="Arial" font-size="13px" font-style="normal" font-weight="normal" text-decoration="none" x="1365.5" y="748.5">18 : GetUserSubscribers(userId)</text></g></g><g transform="translate(5,5) scale(1,1)"><rect fill="#ffffff" stroke="none" x="1342" y="772" width="13" height="52"/></g><g transform="translate(5,5) scale(1,1)"><path fill="none" stroke="#000000" d="M 1342 772 L 1355 772 L 1355 824 L 1342 824 L 1342 772 Z Z" stroke-miterlimit="10"/></g><g transform="translate(5,5) scale(1,1)"><path fill="none" stroke="#000000" d="M 1355 795 L 1634 795" stroke-miterlimit="10"/></g><g transform="translate(5,5) scale(1,1)"><path fill="#000000" stroke="none" d="M 1623.837325142376 799.209517756016 L 1634 795 L 1623.837325142376 790.790482243984"/></g><g transform="translate(5,5) scale(1,1)"><path fill="none" stroke="#000000" d="M 1623.837325142376 799.209517756016 L 1634 795 L 1623.837325142376 790.790482243984 L 1623.837325142376 799.209517756016" stroke-miterlimit="10"/></g><g transform="translate(5,5) scale(1,1)"><g><path fill="none" stroke="none"/><text fill="#000000" stroke="none" font-family="Arial" font-size="13px" font-style="normal" font-weight="normal" text-decoration="none" x="1422.5" y="791.5">19 : QueryResult(userId)</text></g></g><g transform="translate(5,5) scale(1,1)"><rect fill="#ffffff" stroke="none" x="1634" y="795" width="13" height="28"/></g><g transform="translate(5,5) scale(1,1)"><path fill="none" stroke="#000000" d="M 1634 795 L 1647 795 L 1647 823 L 1634 823 L 1634 795 Z Z" stroke-miterlimit="10"/></g><g transform="translate(5,5) scale(1,1)"><path fill="none" stroke="#000000" d="M 1634 815 L 1355 815" stroke-miterlimit="10" stroke-dasharray="3"/></g><g transform="translate(5,5) scale(1,1)"><path fill="none" stroke="#000000" d="M 1365.162674857624 810.790482243984 L 1355 815 L 1365.162674857624 819.209517756016" stroke-miterlimit="10"/></g><g transform="translate(5,5) scale(1,1)"><g><path fill="none" stroke="none"/><text fill="#000000" stroke="none" font-family="Arial" font-size="13px" font-style="normal" font-weight="normal" text-decoration="none" x="1447.338623046875" y="831.5">20 : subscribers</text></g></g><g transform="translate(5,5) scale(1,1)"><path fill="none" stroke="#000000" d="M 1349 824 L 600 824" stroke-miterlimit="10"/></g><g transform="translate(5,5) scale(1,1)"><path fill="#000000" stroke="none" d="M 610.1626748576241 819.790482243984 L 600 824 L 610.1626748576241 828.209517756016"/></g><g transform="translate(5,5) scale(1,1)"><path fill="none" stroke="#000000" d="M 610.1626748576241 819.790482243984 L 600 824 L 610.1626748576241 828.209517756016 L 610.1626748576241 819.790482243984" stroke-miterlimit="10"/></g><g transform="translate(5,5) scale(1,1)"><g><path fill="none" stroke="none"/><text fill="#000000" stroke="none" font-family="Arial" font-size="13px" font-style="normal" font-weight="normal" text-decoration="none" x="826.97607421875" y="840.5">21 : CreateNotification(post|comment, subscribers)</text></g></g><g transform="translate(5,5) scale(1,1)"><rect fill="#ffffff" stroke="none" x="587" y="824" width="13" height="28"/></g><g transform="translate(5,5) scale(1,1)"><path fill="none" stroke="#000000" d="M 587 824 L 600 824 L 600 852 L 587 852 L 587 824 Z Z" stroke-miterlimit="10"/></g><g transform="translate(5,5) scale(1,1)"><path fill="none" stroke="#000000" d="M 587 848 L 149 848" stroke-miterlimit="10" stroke-dasharray="3"/></g><g transform="translate(5,5) scale(1,1)"><path fill="none" stroke="#000000" d="M 159.16267485762415 843.790482243984 L 149 848 L 159.16267485762415 852.209517756016" stroke-miterlimit="10"/></g><g transform="translate(5,5) scale(1,1)"><g><path fill="none" stroke="none"/><text fill="#000000" stroke="none" font-family="Arial" font-size="13px" font-style="normal" font-weight="normal" text-decoration="none" x="281.338623046875" y="864.5">22 : Activity Stream View</text></g></g><g transform="translate(5,5) scale(1,1)"><path fill="none" stroke="#000000" d="M 356 936 L 840 936" stroke-miterlimit="10"/></g><g transform="translate(5,5) scale(1,1)"><path fill="#000000" stroke="none" d="M 829.8373251423759 940.209517756016 L 840 936 L 829.8373251423758 931.790482243984"/></g><g transform="translate(5,5) scale(1,1)"><path fill="none" stroke="#000000" d="M 829.8373251423759 940.209517756016 L 840 936 L 829.8373251423758 931.790482243984 L 829.8373251423759 940.209517756016" stroke-miterlimit="10"/></g><g transform="translate(5,5) scale(1,1)"><g><path fill="none" stroke="none"/><text fill="#000000" stroke="none" font-family="Arial" font-size="13px" font-style="normal" font-weight="normal" text-decoration="none" x="508.5" y="932.5">23 : Create-EditPost(postParams)</text></g></g><g transform="translate(5,5) scale(1,1)"><rect fill="#ffffff" stroke="none" x="840" y="936" width="13" height="28"/></g><g transform="translate(5,5) scale(1,1)"><path fill="none" stroke="#000000" d="M 840 936 L 853 936 L 853 964 L 840 964 L 840 936 Z Z" stroke-miterlimit="10"/></g><g transform="translate(5,5) scale(1,1)"><path fill="none" stroke="#000000" d="M 853 960 L 883 960 L 883 980 L 853 980" stroke-miterlimit="10"/></g><g transform="translate(5,5) scale(1,1)"><path fill="#000000" stroke="none" d="M 863.1626748576241 975.790482243984 L 853 980 L 863.1626748576241 984.209517756016"/></g><g transform="translate(5,5) scale(1,1)"><path fill="none" stroke="#000000" d="M 863.1626748576241 975.790482243984 L 853 980 L 863.1626748576241 984.209517756016 L 863.1626748576241 975.790482243984" stroke-miterlimit="10"/></g><g transform="translate(5,5) scale(1,1)"><g><path fill="none" stroke="none"/><text fill="#000000" stroke="none" font-family="Arial" font-size="13px" font-style="normal" font-weight="normal" text-decoration="none" x="879.5" y="956.5">24 : GetCommunity(post)</text></g></g><g transform="translate(5,5) scale(1,1)"><rect fill="#ffffff" stroke="none" x="840" y="980" width="13" height="28"/></g><g transform="translate(5,5) scale(1,1)"><path fill="none" stroke="#000000" d="M 840 980 L 853 980 L 853 1008 L 840 1008 L 840 980 Z Z" stroke-miterlimit="10"/></g><g transform="translate(5,5) scale(1,1)"><path fill="none" stroke="#000000" d="M 853 1000 L 1342 1000" stroke-miterlimit="10"/></g><g transform="translate(5,5) scale(1,1)"><path fill="#000000" stroke="none" d="M 1331.837325142376 1004.209517756016 L 1342 1000 L 1331.837325142376 995.790482243984"/></g><g transform="translate(5,5) scale(1,1)"><path fill="none" stroke="#000000" d="M 1331.837325142376 1004.209517756016 L 1342 1000 L 1331.837325142376 995.790482243984 L 1331.837325142376 1004.209517756016" stroke-miterlimit="10"/></g><g transform="translate(5,5) scale(1,1)"><g><path fill="none" stroke="none"/><text fill="#000000" stroke="none" font-family="Arial" font-size="13px" font-style="normal" font-weight="normal" text-decoration="none" x="968.5" y="995.5">25 : NotifyCommunityMembers(community)</text></g></g><g transform="translate(5,5) scale(1,1)"><rect fill="#ffffff" stroke="none" x="1342" y="1000" width="13" height="104"/></g><g transform="translate(5,5) scale(1,1)"><path fill="none" stroke="#000000" d="M 1342 1000 L 1355 1000 L 1355 1104 L 1342 1104 L 1342 1000 Z Z" stroke-miterlimit="10"/></g><g transform="translate(5,5) scale(1,1)"><path fill="none" stroke="#000000" d="M 356 1027 L 1050 1027" stroke-miterlimit="10"/></g><g transform="translate(5,5) scale(1,1)"><path fill="#000000" stroke="none" d="M 1039.837325142376 1031.2095177560159 L 1050 1027 L 1039.837325142376 1022.790482243984"/></g><g transform="translate(5,5) scale(1,1)"><path fill="none" stroke="#000000" d="M 1039.837325142376 1031.2095177560159 L 1050 1027 L 1039.837325142376 1022.790482243984 L 1039.837325142376 1031.2095177560159" stroke-miterlimit="10"/></g><g transform="translate(5,5) scale(1,1)"><g><path fill="none" stroke="none"/><text fill="#000000" stroke="none" font-family="Arial" font-size="13px" font-style="normal" font-weight="normal" text-decoration="none" x="564.5" y="1019.5">26 : CreateComment(commentParams)</text></g></g><g transform="translate(5,5) scale(1,1)"><rect fill="#ffffff" stroke="none" x="1050" y="1027" width="13" height="28"/></g><g transform="translate(5,5) scale(1,1)"><path fill="none" stroke="#000000" d="M 1050 1027 L 1063 1027 L 1063 1055 L 1050 1055 L 1050 1027 Z Z" stroke-miterlimit="10"/></g><g transform="translate(5,5) scale(1,1)"><path fill="none" stroke="#000000" d="M 1063 1051 L 1349 1051" stroke-miterlimit="10"/></g><g transform="translate(5,5) scale(1,1)"><path fill="#000000" stroke="none" d="M 1338.837325142376 1055.2095177560159 L 1349 1051 L 1338.837325142376 1046.7904822439841"/></g><g transform="translate(5,5) scale(1,1)"><path fill="none" stroke="#000000" d="M 1338.837325142376 1055.2095177560159 L 1349 1051 L 1338.837325142376 1046.7904822439841 L 1338.837325142376 1055.2095177560159" stroke-miterlimit="10"/></g><g transform="translate(5,5) scale(1,1)"><g><path fill="none" stroke="none"/><text fill="#000000" stroke="none" font-family="Arial" font-size="13px" font-style="normal" font-weight="normal" text-decoration="none" x="1081.5" y="1047.5">27 : NotifyCommunityMembers(community)</text></g></g><g transform="translate(5,5) scale(1,1)"><rect fill="#ffffff" stroke="none" x="1349" y="1051" width="13" height="28"/></g><g transform="translate(5,5) scale(1,1)"><path fill="none" stroke="#000000" d="M 1349 1051 L 1362 1051 L 1362 1079 L 1349 1079 L 1349 1051 Z Z" stroke-miterlimit="10"/></g><g transform="translate(5,5) scale(1,1)"><path fill="none" stroke="#000000" d="M 1355 1088 L 1385 1088 L 1385 1108 L 1355 1108" stroke-miterlimit="10"/></g><g transform="translate(5,5) scale(1,1)"><path fill="#000000" stroke="none" d="M 1365.162674857624 1103.7904822439841 L 1355 1108 L 1365.162674857624 1112.2095177560159"/></g><g transform="translate(5,5) scale(1,1)"><path fill="none" stroke="#000000" d="M 1365.162674857624 1103.7904822439841 L 1355 1108 L 1365.162674857624 1112.2095177560159 L 1365.162674857624 1103.7904822439841" stroke-miterlimit="10"/></g><g transform="translate(5,5) scale(1,1)"><g><path fill="none" stroke="none"/><text fill="#000000" stroke="none" font-family="Arial" font-size="13px" font-style="normal" font-weight="normal" text-decoration="none" x="1372.5" y="1084.5">28 : GetCommunityMembers(communityId)</text></g></g><g transform="translate(5,5) scale(1,1)"><rect fill="#ffffff" stroke="none" x="1342" y="1108" width="13" height="60"/></g><g transform="translate(5,5) scale(1,1)"><path fill="none" stroke="#000000" d="M 1342 1108 L 1355 1108 L 1355 1168 L 1342 1168 L 1342 1108 Z Z" stroke-miterlimit="10"/></g><g transform="translate(5,5) scale(1,1)"><path fill="none" stroke="#000000" d="M 1355 1129 L 1634 1129" stroke-miterlimit="10"/></g><g transform="translate(5,5) scale(1,1)"><path fill="#000000" stroke="none" d="M 1623.837325142376 1133.2095177560159 L 1634 1129 L 1623.837325142376 1124.7904822439841"/></g><g transform="translate(5,5) scale(1,1)"><path fill="none" stroke="#000000" d="M 1623.837325142376 1133.2095177560159 L 1634 1129 L 1623.837325142376 1124.7904822439841 L 1623.837325142376 1133.2095177560159" stroke-miterlimit="10"/></g><g transform="translate(5,5) scale(1,1)"><g><path fill="none" stroke="none"/><text fill="#000000" stroke="none" font-family="Arial" font-size="13px" font-style="normal" font-weight="normal" text-decoration="none" x="1404.5" y="1125.5">29 : QueryResult(communityId)</text></g></g><g transform="translate(5,5) scale(1,1)"><rect fill="#ffffff" stroke="none" x="1634" y="1129" width="13" height="28"/></g><g transform="translate(5,5) scale(1,1)"><path fill="none" stroke="#000000" d="M 1634 1129 L 1647 1129 L 1647 1157 L 1634 1157 L 1634 1129 Z Z" stroke-miterlimit="10"/></g><g transform="translate(5,5) scale(1,1)"><path fill="none" stroke="#000000" d="M 1634 1149 L 1355 1149" stroke-miterlimit="10" stroke-dasharray="3"/></g><g transform="translate(5,5) scale(1,1)"><path fill="none" stroke="#000000" d="M 1365.162674857624 1144.7904822439841 L 1355 1149 L 1365.162674857624 1153.2095177560159" stroke-miterlimit="10"/></g><g transform="translate(5,5) scale(1,1)"><g><path fill="none" stroke="none"/><text fill="#000000" stroke="none" font-family="Arial" font-size="13px" font-style="normal" font-weight="normal" text-decoration="none" x="1426.338623046875" y="1171.5">30 : communityMembers</text></g></g><g transform="translate(5,5) scale(1,1)"><path fill="none" stroke="#000000" d="M 1342 1163 L 600 1163" stroke-miterlimit="10"/></g><g transform="translate(5,5) scale(1,1)"><path fill="#000000" stroke="none" d="M 610.1626748576241 1158.7904822439841 L 600 1163 L 610.1626748576241 1167.2095177560159"/></g><g transform="translate(5,5) scale(1,1)"><path fill="none" stroke="#000000" d="M 610.1626748576241 1158.7904822439841 L 600 1163 L 610.1626748576241 1167.2095177560159 L 610.1626748576241 1158.7904822439841" stroke-miterlimit="10"/></g><g transform="translate(5,5) scale(1,1)"><g><path fill="none" stroke="none"/><text fill="#000000" stroke="none" font-family="Arial" font-size="13px" font-style="normal" font-weight="normal" text-decoration="none" x="801.5" y="1179.5">31 : CreateNotification(post|comment, communityMembers)</text></g></g><g transform="translate(5,5) scale(1,1)"><rect fill="#ffffff" stroke="none" x="587" y="1163" width="13" height="28"/></g><g transform="translate(5,5) scale(1,1)"><path fill="none" stroke="#000000" d="M 587 1163 L 600 1163 L 600 1191 L 587 1191 L 587 1163 Z Z" stroke-miterlimit="10"/></g><g transform="translate(5,5) scale(1,1)"><path fill="none" stroke="#000000" d="M 587 1190 L 149 1190" stroke-miterlimit="10" stroke-dasharray="3"/></g><g transform="translate(5,5) scale(1,1)"><path fill="none" stroke="#000000" d="M 159.16267485762415 1185.7904822439841 L 149 1190 L 159.16267485762415 1194.2095177560159" stroke-miterlimit="10"/></g><g transform="translate(5,5) scale(1,1)"><g><path fill="none" stroke="none"/><text fill="#000000" stroke="none" font-family="Arial" font-size="13px" font-style="normal" font-weight="normal" text-decoration="none" x="281.338623046875" y="1206.5">32 : Activity Stream View</text></g></g><g transform="translate(5,5) scale(1,1)"><path fill="none" stroke="#000000" d="M 356 1336 L 840 1336" stroke-miterlimit="10"/></g><g transform="translate(5,5) scale(1,1)"><path fill="#000000" stroke="none" d="M 829.8373251423759 1340.2095177560159 L 840 1336 L 829.8373251423758 1331.7904822439841"/></g><g transform="translate(5,5) scale(1,1)"><path fill="none" stroke="#000000" d="M 829.8373251423759 1340.2095177560159 L 840 1336 L 829.8373251423758 1331.7904822439841 L 829.8373251423759 1340.2095177560159" stroke-miterlimit="10"/></g><g transform="translate(5,5) scale(1,1)"><g><path fill="none" stroke="none"/><text fill="#000000" stroke="none" font-family="Arial" font-size="13px" font-style="normal" font-weight="normal" text-decoration="none" x="508.5" y="1332.5">33 : Create-EditPost(postParams)</text></g></g><g transform="translate(5,5) scale(1,1)"><rect fill="#ffffff" stroke="none" x="840" y="1336" width="13" height="28"/></g><g transform="translate(5,5) scale(1,1)"><path fill="none" stroke="#000000" d="M 840 1336 L 853 1336 L 853 1364 L 840 1364 L 840 1336 Z Z" stroke-miterlimit="10"/></g><g transform="translate(5,5) scale(1,1)"><path fill="none" stroke="#000000" d="M 853 1360 L 883 1360 L 883 1380 L 853 1380" stroke-miterlimit="10"/></g><g transform="translate(5,5) scale(1,1)"><path fill="#000000" stroke="none" d="M 863.1626748576241 1375.7904822439841 L 853 1380 L 863.1626748576241 1384.2095177560159"/></g><g transform="translate(5,5) scale(1,1)"><path fill="none" stroke="#000000" d="M 863.1626748576241 1375.7904822439841 L 853 1380 L 863.1626748576241 1384.2095177560159 L 863.1626748576241 1375.7904822439841" stroke-miterlimit="10"/></g><g transform="translate(5,5) scale(1,1)"><g><path fill="none" stroke="none"/><text fill="#000000" stroke="none" font-family="Arial" font-size="13px" font-style="normal" font-weight="normal" text-decoration="none" x="879.5" y="1356.5">34 : GetPostType(post)</text></g></g><g transform="translate(5,5) scale(1,1)"><rect fill="#ffffff" stroke="none" x="840" y="1380" width="13" height="28"/></g><g transform="translate(5,5) scale(1,1)"><path fill="none" stroke="#000000" d="M 840 1380 L 853 1380 L 853 1408 L 840 1408 L 840 1380 Z Z" stroke-miterlimit="10"/></g><g transform="translate(5,5) scale(1,1)"><path fill="none" stroke="#000000" d="M 853 1400 L 1342 1400" stroke-miterlimit="10"/></g><g transform="translate(5,5) scale(1,1)"><path fill="#000000" stroke="none" d="M 1331.837325142376 1404.2095177560159 L 1342 1400 L 1331.837325142376 1395.7904822439841"/></g><g transform="translate(5,5) scale(1,1)"><path fill="none" stroke="#000000" d="M 1331.837325142376 1404.2095177560159 L 1342 1400 L 1331.837325142376 1395.7904822439841 L 1331.837325142376 1404.2095177560159" stroke-miterlimit="10"/></g><g transform="translate(5,5) scale(1,1)"><g><path fill="none" stroke="none"/><text fill="#000000" stroke="none" font-family="Arial" font-size="13px" font-style="normal" font-weight="normal" text-decoration="none" x="974.5" y="1396.5">35 : NotifiyPostTypeSubscribers(postType)</text></g></g><g transform="translate(5,5) scale(1,1)"><rect fill="#ffffff" stroke="none" x="1342" y="1400" width="13" height="96"/></g><g transform="translate(5,5) scale(1,1)"><path fill="none" stroke="#000000" d="M 1342 1400 L 1355 1400 L 1355 1496 L 1342 1496 L 1342 1400 Z Z" stroke-miterlimit="10"/></g><g transform="translate(5,5) scale(1,1)"><path fill="none" stroke="#000000" d="M 356 1428 L 1050 1428" stroke-miterlimit="10"/></g><g transform="translate(5,5) scale(1,1)"><path fill="#000000" stroke="none" d="M 1039.837325142376 1432.2095177560159 L 1050 1428 L 1039.837325142376 1423.7904822439841"/></g><g transform="translate(5,5) scale(1,1)"><path fill="none" stroke="#000000" d="M 1039.837325142376 1432.2095177560159 L 1050 1428 L 1039.837325142376 1423.7904822439841 L 1039.837325142376 1432.2095177560159" stroke-miterlimit="10"/></g><g transform="translate(5,5) scale(1,1)"><g><path fill="none" stroke="none"/><text fill="#000000" stroke="none" font-family="Arial" font-size="13px" font-style="normal" font-weight="normal" text-decoration="none" x="565.5" y="1423.5">36 : CreateComment(commentParams)</text></g></g><g transform="translate(5,5) scale(1,1)"><rect fill="#ffffff" stroke="none" x="1050" y="1428" width="13" height="28"/></g><g transform="translate(5,5) scale(1,1)"><path fill="none" stroke="#000000" d="M 1050 1428 L 1063 1428 L 1063 1456 L 1050 1456 L 1050 1428 Z Z" stroke-miterlimit="10"/></g><g transform="translate(5,5) scale(1,1)"><path fill="none" stroke="#000000" d="M 1063 1451 L 1349 1451" stroke-miterlimit="10"/></g><g transform="translate(5,5) scale(1,1)"><path fill="#000000" stroke="none" d="M 1338.837325142376 1455.2095177560159 L 1349 1451 L 1338.837325142376 1446.7904822439841"/></g><g transform="translate(5,5) scale(1,1)"><path fill="none" stroke="#000000" d="M 1338.837325142376 1455.2095177560159 L 1349 1451 L 1338.837325142376 1446.7904822439841 L 1338.837325142376 1455.2095177560159" stroke-miterlimit="10"/></g><g transform="translate(5,5) scale(1,1)"><g><path fill="none" stroke="none"/><text fill="#000000" stroke="none" font-family="Arial" font-size="13px" font-style="normal" font-weight="normal" text-decoration="none" x="1078.5" y="1445.5">37 : NotifiyPostTypeSubscribers(postType)</text></g></g><g transform="translate(5,5) scale(1,1)"><rect fill="#ffffff" stroke="none" x="1349" y="1451" width="13" height="28"/></g><g transform="translate(5,5) scale(1,1)"><path fill="none" stroke="#000000" d="M 1349 1451 L 1362 1451 L 1362 1479 L 1349 1479 L 1349 1451 Z Z" stroke-miterlimit="10"/></g><g transform="translate(5,5) scale(1,1)"><path fill="none" stroke="#000000" d="M 1355 1488 L 1385 1488 L 1385 1508 L 1355 1508" stroke-miterlimit="10"/></g><g transform="translate(5,5) scale(1,1)"><path fill="#000000" stroke="none" d="M 1365.162674857624 1503.7904822439841 L 1355 1508 L 1365.162674857624 1512.2095177560159"/></g><g transform="translate(5,5) scale(1,1)"><path fill="none" stroke="#000000" d="M 1365.162674857624 1503.7904822439841 L 1355 1508 L 1365.162674857624 1512.2095177560159 L 1365.162674857624 1503.7904822439841" stroke-miterlimit="10"/></g><g transform="translate(5,5) scale(1,1)"><g><path fill="none" stroke="none"/><text fill="#000000" stroke="none" font-family="Arial" font-size="13px" font-style="normal" font-weight="normal" text-decoration="none" x="1381.5" y="1484.5">38 : GetPostTypeSubscribers(postTypeId)</text></g></g><g transform="translate(5,5) scale(1,1)"><rect fill="#ffffff" stroke="none" x="1342" y="1508" width="13" height="68"/></g><g transform="translate(5,5) scale(1,1)"><path fill="none" stroke="#000000" d="M 1342 1508 L 1355 1508 L 1355 1576 L 1342 1576 L 1342 1508 Z Z" stroke-miterlimit="10"/></g><g transform="translate(5,5) scale(1,1)"><path fill="none" stroke="#000000" d="M 1355 1544 L 1634 1544" stroke-miterlimit="10"/></g><g transform="translate(5,5) scale(1,1)"><path fill="#000000" stroke="none" d="M 1623.837325142376 1548.2095177560159 L 1634 1544 L 1623.837325142376 1539.7904822439841"/></g><g transform="translate(5,5) scale(1,1)"><path fill="none" stroke="#000000" d="M 1623.837325142376 1548.2095177560159 L 1634 1544 L 1623.837325142376 1539.7904822439841 L 1623.837325142376 1548.2095177560159" stroke-miterlimit="10"/></g><g transform="translate(5,5) scale(1,1)"><g><path fill="none" stroke="none"/><text fill="#000000" stroke="none" font-family="Arial" font-size="13px" font-style="normal" font-weight="normal" text-decoration="none" x="1409.5" y="1540.5">39 : QueryResult(postTypeId)</text></g></g><g transform="translate(5,5) scale(1,1)"><rect fill="#ffffff" stroke="none" x="1634" y="1544" width="13" height="28"/></g><g transform="translate(5,5) scale(1,1)"><path fill="none" stroke="#000000" d="M 1634 1544 L 1647 1544 L 1647 1572 L 1634 1572 L 1634 1544 Z Z" stroke-miterlimit="10"/></g><g transform="translate(5,5) scale(1,1)"><path fill="none" stroke="#000000" d="M 1634 1564 L 1355 1564" stroke-miterlimit="10" stroke-dasharray="3"/></g><g transform="translate(5,5) scale(1,1)"><path fill="none" stroke="#000000" d="M 1365.162674857624 1559.7904822439841 L 1355 1564 L 1365.162674857624 1568.2095177560159" stroke-miterlimit="10"/></g><g transform="translate(5,5) scale(1,1)"><g><path fill="none" stroke="none"/><text fill="#000000" stroke="none" font-family="Arial" font-size="13px" font-style="normal" font-weight="normal" text-decoration="none" x="1419.338623046875" y="1580.5">40 : postTypeSubscribers</text></g></g><g transform="translate(5,5) scale(1,1)"><path fill="none" stroke="#000000" d="M 1349 1578 L 600 1578" stroke-miterlimit="10"/></g><g transform="translate(5,5) scale(1,1)"><path fill="#000000" stroke="none" d="M 610.1626748576241 1573.7904822439841 L 600 1578 L 610.1626748576241 1582.2095177560159"/></g><g transform="translate(5,5) scale(1,1)"><path fill="none" stroke="#000000" d="M 610.1626748576241 1573.7904822439841 L 600 1578 L 610.1626748576241 1582.2095177560159 L 610.1626748576241 1573.7904822439841" stroke-miterlimit="10"/></g><g transform="translate(5,5) scale(1,1)"><g><path fill="none" stroke="none"/><text fill="#000000" stroke="none" font-family="Arial" font-size="13px" font-style="normal" font-weight="normal" text-decoration="none" x="799.5" y="1594.5">41 : CreateNotification(post|comment, postTypeSubscribers)</text></g></g><g transform="translate(5,5) scale(1,1)"><rect fill="#ffffff" stroke="none" x="587" y="1578" width="13" height="28"/></g><g transform="translate(5,5) scale(1,1)"><path fill="none" stroke="#000000" d="M 587 1578 L 600 1578 L 600 1606 L 587 1606 L 587 1578 Z Z" stroke-miterlimit="10"/></g><g transform="translate(5,5) scale(1,1)"><path fill="none" stroke="#000000" d="M 587 1600 L 149 1600" stroke-miterlimit="10" stroke-dasharray="3"/></g><g transform="translate(5,5) scale(1,1)"><path fill="none" stroke="#000000" d="M 159.16267485762415 1595.7904822439841 L 149 1600 L 159.16267485762415 1604.2095177560159" stroke-miterlimit="10"/></g><g transform="translate(5,5) scale(1,1)"><g><path fill="none" stroke="none"/><text fill="#000000" stroke="none" font-family="Arial" font-size="13px" font-style="normal" font-weight="normal" text-decoration="none" x="281.338623046875" y="1616.5">42 : Activity Stream View</text></g></g></g></svg>