<svg version="1.1" xmlns="http://www.w3.org/2000/svg" xmlns:xlink="http://www.w3.org/1999/xlink" width="849.0126953125" height="612"><defs/><g><text fill="#eeeeee" stroke="none" font-family="Arial" font-size="24px" font-style="normal" font-weight="normal" text-decoration="none" x="0" y="0">UNREGISTERED</text><text fill="#eeeeee" stroke="none" font-family="Arial" font-size="24px" font-style="normal" font-weight="normal" text-decoration="none" x="0" y="30">UNREGISTERED</text><text fill="#eeeeee" stroke="none" font-family="Arial" font-size="24px" font-style="normal" font-weight="normal" text-decoration="none" x="0" y="60">UNREGISTERED</text><text fill="#eeeeee" stroke="none" font-family="Arial" font-size="24px" font-style="normal" font-weight="normal" text-decoration="none" x="0" y="90">UNREGISTERED</text><text fill="#eeeeee" stroke="none" font-family="Arial" font-size="24px" font-style="normal" font-weight="normal" text-decoration="none" x="0" y="120">UNREGISTERED</text><text fill="#eeeeee" stroke="none" font-family="Arial" font-size="24px" font-style="normal" font-weight="normal" text-decoration="none" x="0" y="150">UNREGISTERED</text><text fill="#eeeeee" stroke="none" font-family="Arial" font-size="24px" font-style="normal" font-weight="normal" text-decoration="none" x="0" y="180">UNREGISTERED</text><text fill="#eeeeee" stroke="none" font-family="Arial" font-size="24px" font-style="normal" font-weight="normal" text-decoration="none" x="0" y="210">UNREGISTERED</text><text fill="#eeeeee" stroke="none" font-family="Arial" font-size="24px" font-style="normal" font-weight="normal" text-decoration="none" x="0" y="240">UNREGISTERED</text><text fill="#eeeeee" stroke="none" font-family="Arial" font-size="24px" font-style="normal" font-weight="normal" text-decoration="none" x="0" y="270">UNREGISTERED</text><text fill="#eeeeee" stroke="none" font-family="Arial" font-size="24px" font-style="normal" font-weight="normal" text-decoration="none" x="0" y="300">UNREGISTERED</text><text fill="#eeeeee" stroke="none" font-family="Arial" font-size="24px" font-style="normal" font-weight="normal" text-decoration="none" x="0" y="330">UNREGISTERED</text><text fill="#eeeeee" stroke="none" font-family="Arial" font-size="24px" font-style="normal" font-weight="normal" text-decoration="none" x="0" y="360">UNREGISTERED</text><text fill="#eeeeee" stroke="none" font-family="Arial" font-size="24px" font-style="normal" font-weight="normal" text-decoration="none" x="0" y="390">UNREGISTERED</text><text fill="#eeeeee" stroke="none" font-family="Arial" font-size="24px" font-style="normal" font-weight="normal" text-decoration="none" x="0" y="420">UNREGISTERED</text><text fill="#eeeeee" stroke="none" font-family="Arial" font-size="24px" font-style="normal" font-weight="normal" text-decoration="none" x="0" y="450">UNREGISTERED</text><text fill="#eeeeee" stroke="none" font-family="Arial" font-size="24px" font-style="normal" font-weight="normal" text-decoration="none" x="0" y="480">UNREGISTERED</text><text fill="#eeeeee" stroke="none" font-family="Arial" font-size="24px" font-style="normal" font-weight="normal" text-decoration="none" x="0" y="510">UNREGISTERED</text><text fill="#eeeeee" stroke="none" font-family="Arial" font-size="24px" font-style="normal" font-weight="normal" text-decoration="none" x="0" y="540">UNREGISTERED</text><text fill="#eeeeee" stroke="none" font-family="Arial" font-size="24px" font-style="normal" font-weight="normal" text-decoration="none" x="0" y="570">UNREGISTERED</text><text fill="#eeeeee" stroke="none" font-family="Arial" font-size="24px" font-style="normal" font-weight="normal" text-decoration="none" x="0" y="600">UNREGISTERED</text><text fill="#eeeeee" stroke="none" font-family="Arial" font-size="24px" font-style="normal" font-weight="normal" text-decoration="none" x="200" y="0">UNREGISTERED</text><text fill="#eeeeee" stroke="none" font-family="Arial" font-size="24px" font-style="normal" font-weight="normal" text-decoration="none" x="200" y="30">UNREGISTERED</text><text fill="#eeeeee" stroke="none" font-family="Arial" font-size="24px" font-style="normal" font-weight="normal" text-decoration="none" x="200" y="60">UNREGISTERED</text><text fill="#eeeeee" stroke="none" font-family="Arial" font-size="24px" font-style="normal" font-weight="normal" text-decoration="none" x="200" y="90">UNREGISTERED</text><text fill="#eeeeee" stroke="none" font-family="Arial" font-size="24px" font-style="normal" font-weight="normal" text-decoration="none" x="200" y="120">UNREGISTERED</text><text fill="#eeeeee" stroke="none" font-family="Arial" font-size="24px" font-style="normal" font-weight="normal" text-decoration="none" x="200" y="150">UNREGISTERED</text><text fill="#eeeeee" stroke="none" font-family="Arial" font-size="24px" font-style="normal" font-weight="normal" text-decoration="none" x="200" y="180">UNREGISTERED</text><text fill="#eeeeee" stroke="none" font-family="Arial" font-size="24px" font-style="normal" font-weight="normal" text-decoration="none" x="200" y="210">UNREGISTERED</text><text fill="#eeeeee" stroke="none" font-family="Arial" font-size="24px" font-style="normal" font-weight="normal" text-decoration="none" x="200" y="240">UNREGISTERED</text><text fill="#eeeeee" stroke="none" font-family="Arial" font-size="24px" font-style="normal" font-weight="normal" text-decoration="none" x="200" y="270">UNREGISTERED</text><text fill="#eeeeee" stroke="none" font-family="Arial" font-size="24px" font-style="normal" font-weight="normal" text-decoration="none" x="200" y="300">UNREGISTERED</text><text fill="#eeeeee" stroke="none" font-family="Arial" font-size="24px" font-style="normal" font-weight="normal" text-decoration="none" x="200" y="330">UNREGISTERED</text><text fill="#eeeeee" stroke="none" font-family="Arial" font-size="24px" font-style="normal" font-weight="normal" text-decoration="none" x="200" y="360">UNREGISTERED</text><text fill="#eeeeee" stroke="none" font-family="Arial" font-size="24px" font-style="normal" font-weight="normal" text-decoration="none" x="200" y="390">UNREGISTERED</text><text fill="#eeeeee" stroke="none" font-family="Arial" font-size="24px" font-style="normal" font-weight="normal" text-decoration="none" x="200" y="420">UNREGISTERED</text><text fill="#eeeeee" stroke="none" font-family="Arial" font-size="24px" font-style="normal" font-weight="normal" text-decoration="none" x="200" y="450">UNREGISTERED</text><text fill="#eeeeee" stroke="none" font-family="Arial" font-size="24px" font-style="normal" font-weight="normal" text-decoration="none" x="200" y="480">UNREGISTERED</text><text fill="#eeeeee" stroke="none" font-family="Arial" font-size="24px" font-style="normal" font-weight="normal" text-decoration="none" x="200" y="510">UNREGISTERED</text><text fill="#eeeeee" stroke="none" font-family="Arial" font-size="24px" font-style="normal" font-weight="normal" text-decoration="none" x="200" y="540">UNREGISTERED</text><text fill="#eeeeee" stroke="none" font-family="Arial" font-size="24px" font-style="normal" font-weight="normal" text-decoration="none" x="200" y="570">UNREGISTERED</text><text fill="#eeeeee" stroke="none" font-family="Arial" font-size="24px" font-style="normal" font-weight="normal" text-decoration="none" x="200" y="600">UNREGISTERED</text><text fill="#eeeeee" stroke="none" font-family="Arial" font-size="24px" font-style="normal" font-weight="normal" text-decoration="none" x="400" y="0">UNREGISTERED</text><text fill="#eeeeee" stroke="none" font-family="Arial" font-size="24px" font-style="normal" font-weight="normal" text-decoration="none" x="400" y="30">UNREGISTERED</text><text fill="#eeeeee" stroke="none" font-family="Arial" font-size="24px" font-style="normal" font-weight="normal" text-decoration="none" x="400" y="60">UNREGISTERED</text><text fill="#eeeeee" stroke="none" font-family="Arial" font-size="24px" font-style="normal" font-weight="normal" text-decoration="none" x="400" y="90">UNREGISTERED</text><text fill="#eeeeee" stroke="none" font-family="Arial" font-size="24px" font-style="normal" font-weight="normal" text-decoration="none" x="400" y="120">UNREGISTERED</text><text fill="#eeeeee" stroke="none" font-family="Arial" font-size="24px" font-style="normal" font-weight="normal" text-decoration="none" x="400" y="150">UNREGISTERED</text><text fill="#eeeeee" stroke="none" font-family="Arial" font-size="24px" font-style="normal" font-weight="normal" text-decoration="none" x="400" y="180">UNREGISTERED</text><text fill="#eeeeee" stroke="none" font-family="Arial" font-size="24px" font-style="normal" font-weight="normal" text-decoration="none" x="400" y="210">UNREGISTERED</text><text fill="#eeeeee" stroke="none" font-family="Arial" font-size="24px" font-style="normal" font-weight="normal" text-decoration="none" x="400" y="240">UNREGISTERED</text><text fill="#eeeeee" stroke="none" font-family="Arial" font-size="24px" font-style="normal" font-weight="normal" text-decoration="none" x="400" y="270">UNREGISTERED</text><text fill="#eeeeee" stroke="none" font-family="Arial" font-size="24px" font-style="normal" font-weight="normal" text-decoration="none" x="400" y="300">UNREGISTERED</text><text fill="#eeeeee" stroke="none" font-family="Arial" font-size="24px" font-style="normal" font-weight="normal" text-decoration="none" x="400" y="330">UNREGISTERED</text><text fill="#eeeeee" stroke="none" font-family="Arial" font-size="24px" font-style="normal" font-weight="normal" text-decoration="none" x="400" y="360">UNREGISTERED</text><text fill="#eeeeee" stroke="none" font-family="Arial" font-size="24px" font-style="normal" font-weight="normal" text-decoration="none" x="400" y="390">UNREGISTERED</text><text fill="#eeeeee" stroke="none" font-family="Arial" font-size="24px" font-style="normal" font-weight="normal" text-decoration="none" x="400" y="420">UNREGISTERED</text><text fill="#eeeeee" stroke="none" font-family="Arial" font-size="24px" font-style="normal" font-weight="normal" text-decoration="none" x="400" y="450">UNREGISTERED</text><text fill="#eeeeee" stroke="none" font-family="Arial" font-size="24px" font-style="normal" font-weight="normal" text-decoration="none" x="400" y="480">UNREGISTERED</text><text fill="#eeeeee" stroke="none" font-family="Arial" font-size="24px" font-style="normal" font-weight="normal" text-decoration="none" x="400" y="510">UNREGISTERED</text><text fill="#eeeeee" stroke="none" font-family="Arial" font-size="24px" font-style="normal" font-weight="normal" text-decoration="none" x="400" y="540">UNREGISTERED</text><text fill="#eeeeee" stroke="none" font-family="Arial" font-size="24px" font-style="normal" font-weight="normal" text-decoration="none" x="400" y="570">UNREGISTERED</text><text fill="#eeeeee" stroke="none" font-family="Arial" font-size="24px" font-style="normal" font-weight="normal" text-decoration="none" x="400" y="600">UNREGISTERED</text><text fill="#eeeeee" stroke="none" font-family="Arial" font-size="24px" font-style="normal" font-weight="normal" text-decoration="none" x="600" y="0">UNREGISTERED</text><text fill="#eeeeee" stroke="none" font-family="Arial" font-size="24px" font-style="normal" font-weight="normal" text-decoration="none" x="600" y="30">UNREGISTERED</text><text fill="#eeeeee" stroke="none" font-family="Arial" font-size="24px" font-style="normal" font-weight="normal" text-decoration="none" x="600" y="60">UNREGISTERED</text><text fill="#eeeeee" stroke="none" font-family="Arial" font-size="24px" font-style="normal" font-weight="normal" text-decoration="none" x="600" y="90">UNREGISTERED</text><text fill="#eeeeee" stroke="none" font-family="Arial" font-size="24px" font-style="normal" font-weight="normal" text-decoration="none" x="600" y="120">UNREGISTERED</text><text fill="#eeeeee" stroke="none" font-family="Arial" font-size="24px" font-style="normal" font-weight="normal" text-decoration="none" x="600" y="150">UNREGISTERED</text><text fill="#eeeeee" stroke="none" font-family="Arial" font-size="24px" font-style="normal" font-weight="normal" text-decoration="none" x="600" y="180">UNREGISTERED</text><text fill="#eeeeee" stroke="none" font-family="Arial" font-size="24px" font-style="normal" font-weight="normal" text-decoration="none" x="600" y="210">UNREGISTERED</text><text fill="#eeeeee" stroke="none" font-family="Arial" font-size="24px" font-style="normal" font-weight="normal" text-decoration="none" x="600" y="240">UNREGISTERED</text><text fill="#eeeeee" stroke="none" font-family="Arial" font-size="24px" font-style="normal" font-weight="normal" text-decoration="none" x="600" y="270">UNREGISTERED</text><text fill="#eeeeee" stroke="none" font-family="Arial" font-size="24px" font-style="normal" font-weight="normal" text-decoration="none" x="600" y="300">UNREGISTERED</text><text fill="#eeeeee" stroke="none" font-family="Arial" font-size="24px" font-style="normal" font-weight="normal" text-decoration="none" x="600" y="330">UNREGISTERED</text><text fill="#eeeeee" stroke="none" font-family="Arial" font-size="24px" font-style="normal" font-weight="normal" text-decoration="none" x="600" y="360">UNREGISTERED</text><text fill="#eeeeee" stroke="none" font-family="Arial" font-size="24px" font-style="normal" font-weight="normal" text-decoration="none" x="600" y="390">UNREGISTERED</text><text fill="#eeeeee" stroke="none" font-family="Arial" font-size="24px" font-style="normal" font-weight="normal" text-decoration="none" x="600" y="420">UNREGISTERED</text><text fill="#eeeeee" stroke="none" font-family="Arial" font-size="24px" font-style="normal" font-weight="normal" text-decoration="none" x="600" y="450">UNREGISTERED</text><text fill="#eeeeee" stroke="none" font-family="Arial" font-size="24px" font-style="normal" font-weight="normal" text-decoration="none" x="600" y="480">UNREGISTERED</text><text fill="#eeeeee" stroke="none" font-family="Arial" font-size="24px" font-style="normal" font-weight="normal" text-decoration="none" x="600" y="510">UNREGISTERED</text><text fill="#eeeeee" stroke="none" font-family="Arial" font-size="24px" font-style="normal" font-weight="normal" text-decoration="none" x="600" y="540">UNREGISTERED</text><text fill="#eeeeee" stroke="none" font-family="Arial" font-size="24px" font-style="normal" font-weight="normal" text-decoration="none" x="600" y="570">UNREGISTERED</text><text fill="#eeeeee" stroke="none" font-family="Arial" font-size="24px" font-style="normal" font-weight="normal" text-decoration="none" x="600" y="600">UNREGISTERED</text><text fill="#eeeeee" stroke="none" font-family="Arial" font-size="24px" font-style="normal" font-weight="normal" text-decoration="none" x="800" y="0">UNREGISTERED</text><text fill="#eeeeee" stroke="none" font-family="Arial" font-size="24px" font-style="normal" font-weight="normal" text-decoration="none" x="800" y="30">UNREGISTERED</text><text fill="#eeeeee" stroke="none" font-family="Arial" font-size="24px" font-style="normal" font-weight="normal" text-decoration="none" x="800" y="60">UNREGISTERED</text><text fill="#eeeeee" stroke="none" font-family="Arial" font-size="24px" font-style="normal" font-weight="normal" text-decoration="none" x="800" y="90">UNREGISTERED</text><text fill="#eeeeee" stroke="none" font-family="Arial" font-size="24px" font-style="normal" font-weight="normal" text-decoration="none" x="800" y="120">UNREGISTERED</text><text fill="#eeeeee" stroke="none" font-family="Arial" font-size="24px" font-style="normal" font-weight="normal" text-decoration="none" x="800" y="150">UNREGISTERED</text><text fill="#eeeeee" stroke="none" font-family="Arial" font-size="24px" font-style="normal" font-weight="normal" text-decoration="none" x="800" y="180">UNREGISTERED</text><text fill="#eeeeee" stroke="none" font-family="Arial" font-size="24px" font-style="normal" font-weight="normal" text-decoration="none" x="800" y="210">UNREGISTERED</text><text fill="#eeeeee" stroke="none" font-family="Arial" font-size="24px" font-style="normal" font-weight="normal" text-decoration="none" x="800" y="240">UNREGISTERED</text><text fill="#eeeeee" stroke="none" font-family="Arial" font-size="24px" font-style="normal" font-weight="normal" text-decoration="none" x="800" y="270">UNREGISTERED</text><text fill="#eeeeee" stroke="none" font-family="Arial" font-size="24px" font-style="normal" font-weight="normal" text-decoration="none" x="800" y="300">UNREGISTERED</text><text fill="#eeeeee" stroke="none" font-family="Arial" font-size="24px" font-style="normal" font-weight="normal" text-decoration="none" x="800" y="330">UNREGISTERED</text><text fill="#eeeeee" stroke="none" font-family="Arial" font-size="24px" font-style="normal" font-weight="normal" text-decoration="none" x="800" y="360">UNREGISTERED</text><text fill="#eeeeee" stroke="none" font-family="Arial" font-size="24px" font-style="normal" font-weight="normal" text-decoration="none" x="800" y="390">UNREGISTERED</text><text fill="#eeeeee" stroke="none" font-family="Arial" font-size="24px" font-style="normal" font-weight="normal" text-decoration="none" x="800" y="420">UNREGISTERED</text><text fill="#eeeeee" stroke="none" font-family="Arial" font-size="24px" font-style="normal" font-weight="normal" text-decoration="none" x="800" y="450">UNREGISTERED</text><text fill="#eeeeee" stroke="none" font-family="Arial" font-size="24px" font-style="normal" font-weight="normal" text-decoration="none" x="800" y="480">UNREGISTERED</text><text fill="#eeeeee" stroke="none" font-family="Arial" font-size="24px" font-style="normal" font-weight="normal" text-decoration="none" x="800" y="510">UNREGISTERED</text><text fill="#eeeeee" stroke="none" font-family="Arial" font-size="24px" font-style="normal" font-weight="normal" text-decoration="none" x="800" y="540">UNREGISTERED</text><text fill="#eeeeee" stroke="none" font-family="Arial" font-size="24px" font-style="normal" font-weight="normal" text-decoration="none" x="800" y="570">UNREGISTERED</text><text fill="#eeeeee" stroke="none" font-family="Arial" font-size="24px" font-style="normal" font-weight="normal" text-decoration="none" x="800" y="600">UNREGISTERED</text><g transform="translate(10,-30) scale(1,1)"><path fill="none" stroke="#000000" d="M 0 144 L 784 144 L 784 544 L 0 544 L 0 144" stroke-miterlimit="10"/></g><g transform="translate(10,-30) scale(1,1)"><path fill="#ffffff" stroke="none" d="M 0 144 L 0 166 L 274.72412109375 166 L 285.72412109375 155 L 285.72412109375 144 L 0 144"/></g><g transform="translate(10,-30) scale(1,1)"><path fill="none" stroke="#000000" d="M 0 144 L 0 166 L 274.72412109375 166 L 285.72412109375 155 L 285.72412109375 144 L 0 144 L 0 144" stroke-miterlimit="10"/></g><g transform="translate(10,-30) scale(1,1)"><g><path fill="none" stroke="none"/><text fill="#000000" stroke="none" font-family="Arial" font-size="13px" font-style="normal" font-weight="normal" text-decoration="none" x="70.97900390625" y="161.5">3.2 Annotation Sequence Diagram</text></g></g><g transform="translate(10,-30) scale(1,1)"><g><path fill="none" stroke="none"/><text fill="#000000" stroke="none" font-family="Arial" font-size="13px" font-style="normal" font-weight="bold" text-decoration="none" x="5" y="161.5">interaction</text></g></g><g transform="translate(10,-30) scale(1,1)"><rect fill="#C0C0C0" stroke="none" x="247" y="47" width="117.95361328125" height="39" opacity="0.2"/></g><g transform="translate(10,-30) scale(1,1)"><rect fill="#ffffff" stroke="none" x="240" y="40" width="117.95361328125" height="39"/></g><g transform="translate(10,-30) scale(1,1)"><path fill="none" stroke="#000000" d="M 240 40 L 357.95361328125 40 L 357.95361328125 79 L 240 79 L 240 40 Z Z" stroke-miterlimit="10"/></g><g transform="translate(10,-30) scale(1,1)"><g><path fill="none" stroke="none"/><text fill="#000000" stroke="none" font-family="Arial" font-size="13px" font-style="normal" font-weight="bold" text-decoration="none" x="252.353271484375" y="59.5">Annotated Page</text></g></g><g transform="translate(10,-30) scale(1,1)"><path fill="none" stroke="#000000" d="M 299.5 80 L 299.5 616" stroke-miterlimit="10" stroke-dasharray="3"/></g><g transform="translate(10,-30) scale(1,1)"><path fill="#ffffff" stroke="none" d="M 102.4366317471591 47.3 C 102.4366317471591 43.82060576 105.31503346934092 41 108.86572265625 41 C 112.41641184315908 41 115.2948135653409 43.82060576 115.2948135653409 47.3 C 115.2948135653409 50.779394239999995 112.41641184315908 53.6 108.86572265625 53.6 C 105.31503346934092 53.6 102.4366317471591 50.779394239999995 102.4366317471591 47.3 Z"/></g><g transform="translate(10,-30) scale(1,1)"><path fill="none" stroke="#000000" d="M 102.4366317471591 47.3 C 102.4366317471591 43.82060576 105.31503346934092 41 108.86572265625 41 C 112.41641184315908 41 115.2948135653409 43.82060576 115.2948135653409 47.3 C 115.2948135653409 50.779394239999995 112.41641184315908 53.6 108.86572265625 53.6 C 105.31503346934092 53.6 102.4366317471591 50.779394239999995 102.4366317471591 47.3 Z" stroke-miterlimit="10"/></g><g transform="translate(10,-30) scale(1,1)"><path fill="none" stroke="#000000" d="M 108.86572265625 53.6 L 108.86572265625 66.4" stroke-miterlimit="10"/></g><g transform="translate(10,-30) scale(1,1)"><path fill="none" stroke="#000000" d="M 102.05844992897727 58.4 L 115.67299538352273 58.4" stroke-miterlimit="10"/></g><g transform="translate(10,-30) scale(1,1)"><path fill="none" stroke="#000000" d="M 108.86572265625 66.4 L 99.41117720170455 79" stroke-miterlimit="10"/></g><g transform="translate(10,-30) scale(1,1)"><path fill="none" stroke="#000000" d="M 108.86572265625 66.4 L 118.32026811079545 79" stroke-miterlimit="10"/></g><g transform="translate(10,-30) scale(1,1)"><g><path fill="none" stroke="none"/><text fill="#000000" stroke="none" font-family="Arial" font-size="13px" font-style="normal" font-weight="bold" text-decoration="none" x="77.806640625" y="99.5">User: User</text></g></g><g transform="translate(10,-30) scale(1,1)"><path fill="none" stroke="#000000" d="M 109.5 105 L 109.5 616" stroke-miterlimit="10" stroke-dasharray="3"/></g><g transform="translate(10,-30) scale(1,1)"><rect fill="#C0C0C0" stroke="none" x="439" y="47" width="133.8544921875" height="39" opacity="0.2"/></g><g transform="translate(10,-30) scale(1,1)"><rect fill="#ffffff" stroke="none" x="432" y="40" width="133.8544921875" height="39"/></g><g transform="translate(10,-30) scale(1,1)"><path fill="none" stroke="#000000" d="M 432 40 L 565.8544921875 40 L 565.8544921875 79 L 432 79 L 432 40 Z Z" stroke-miterlimit="10"/></g><g transform="translate(10,-30) scale(1,1)"><g><path fill="none" stroke="none"/><text fill="#000000" stroke="none" font-family="Arial" font-size="13px" font-style="normal" font-weight="bold" text-decoration="none" x="446.171875" y="59.5">AnnotationService</text></g></g><g transform="translate(10,-30) scale(1,1)"><path fill="none" stroke="#000000" d="M 499.5 80 L 499.5 624" stroke-miterlimit="10" stroke-dasharray="3"/></g><g transform="translate(10,-30) scale(1,1)"><rect fill="#C0C0C0" stroke="none" x="687" y="47" width="149.0126953125" height="39" opacity="0.2"/></g><g transform="translate(10,-30) scale(1,1)"><rect fill="#ffffff" stroke="none" x="680" y="40" width="149.0126953125" height="39"/></g><g transform="translate(10,-30) scale(1,1)"><path fill="none" stroke="#000000" d="M 680 40 L 829.0126953125 40 L 829.0126953125 79 L 680 79 L 680 40 Z Z" stroke-miterlimit="10"/></g><g transform="translate(10,-30) scale(1,1)"><g><path fill="none" stroke="none"/><text fill="#000000" stroke="none" font-family="Arial" font-size="13px" font-style="normal" font-weight="bold" text-decoration="none" x="693.794189453125" y="59.5">Annotation Database</text></g></g><g transform="translate(10,-30) scale(1,1)"><path fill="none" stroke="#000000" d="M 755.5 80 L 755.5 632" stroke-miterlimit="10" stroke-dasharray="3"/></g><g transform="translate(10,-30) scale(1,1)"><path fill="none" stroke="#000000" d="M 505 240 L 748 240" stroke-miterlimit="10"/></g><g transform="translate(10,-30) scale(1,1)"><path fill="#000000" stroke="none" d="M 737.8373251423759 244.209517756016 L 748 240 L 737.8373251423758 235.790482243984"/></g><g transform="translate(10,-30) scale(1,1)"><path fill="none" stroke="#000000" d="M 737.8373251423759 244.209517756016 L 748 240 L 737.8373251423758 235.790482243984 L 737.8373251423759 244.209517756016" stroke-miterlimit="10"/></g><g transform="translate(10,-30) scale(1,1)"><g><path fill="none" stroke="none"/><text fill="#000000" stroke="none" font-family="Arial" font-size="13px" font-style="normal" font-weight="normal" text-decoration="none" x="575.5" y="236.5">3 : Get(targetList)</text></g></g><g transform="translate(10,-30) scale(1,1)"><rect fill="#ffffff" stroke="none" x="748" y="240" width="13" height="28"/></g><g transform="translate(10,-30) scale(1,1)"><path fill="none" stroke="#000000" d="M 748 240 L 761 240 L 761 268 L 748 268 L 748 240 Z Z" stroke-miterlimit="10"/></g><g transform="translate(10,-30) scale(1,1)"><path fill="none" stroke="#000000" d="M 748 248 L 505 248" stroke-miterlimit="10" stroke-dasharray="3"/></g><g transform="translate(10,-30) scale(1,1)"><path fill="none" stroke="#000000" d="M 515.1626748576241 243.790482243984 L 505 248 L 515.1626748576241 252.209517756016" stroke-miterlimit="10"/></g><g transform="translate(10,-30) scale(1,1)"><g><path fill="none" stroke="none"/><text fill="#000000" stroke="none" font-family="Arial" font-size="13px" font-style="normal" font-weight="normal" text-decoration="none" x="573.5" y="264.5">4 : sendTargetList</text></g></g><g transform="translate(10,-30) scale(1,1)"><path fill="none" stroke="#000000" d="M 292 264 L 115 264" stroke-miterlimit="10"/></g><g transform="translate(10,-30) scale(1,1)"><path fill="#000000" stroke="none" d="M 125.16267485762415 259.790482243984 L 115 264 L 125.16267485762415 268.209517756016"/></g><g transform="translate(10,-30) scale(1,1)"><path fill="none" stroke="#000000" d="M 125.16267485762415 259.790482243984 L 115 264 L 125.16267485762415 268.209517756016 L 125.16267485762415 259.790482243984" stroke-miterlimit="10"/></g><g transform="translate(10,-30) scale(1,1)"><g><path fill="none" stroke="none"/><text fill="#000000" stroke="none" font-family="Arial" font-size="13px" font-style="normal" font-weight="normal" text-decoration="none" x="116.5" y="280.5">6 : display(annotationTargets)</text></g></g><g transform="translate(10,-30) scale(1,1)"><rect fill="#ffffff" stroke="none" x="102" y="264" width="13" height="256"/></g><g transform="translate(10,-30) scale(1,1)"><path fill="none" stroke="#000000" d="M 102 264 L 115 264 L 115 520 L 102 520 L 102 264 Z Z" stroke-miterlimit="10"/></g><g transform="translate(10,-30) scale(1,1)"><path fill="none" stroke="#000000" d="M 492 256 L 305 256" stroke-miterlimit="10" stroke-dasharray="3"/></g><g transform="translate(10,-30) scale(1,1)"><path fill="none" stroke="#000000" d="M 315.16267485762415 251.790482243984 L 305 256 L 315.16267485762415 260.209517756016" stroke-miterlimit="10"/></g><g transform="translate(10,-30) scale(1,1)"><g><path fill="none" stroke="none"/><text fill="#000000" stroke="none" font-family="Arial" font-size="13px" font-style="normal" font-weight="normal" text-decoration="none" x="348.5" y="272.5">5 : place(targets)</text></g></g><g transform="translate(10,-30) scale(1,1)"><path fill="none" stroke="#000000" d="M 305 232 L 492 232" stroke-miterlimit="10"/></g><g transform="translate(10,-30) scale(1,1)"><path fill="#000000" stroke="none" d="M 481.83732514237585 236.209517756016 L 492 232 L 481.83732514237585 227.790482243984"/></g><g transform="translate(10,-30) scale(1,1)"><path fill="none" stroke="#000000" d="M 481.83732514237585 236.209517756016 L 492 232 L 481.83732514237585 227.790482243984 L 481.83732514237585 236.209517756016" stroke-miterlimit="10"/></g><g transform="translate(10,-30) scale(1,1)"><g><path fill="none" stroke="none"/><text fill="#000000" stroke="none" font-family="Arial" font-size="13px" font-style="normal" font-weight="normal" text-decoration="none" x="317.5" y="228.5">2 : annotationOfPage(page)</text></g></g><g transform="translate(10,-30) scale(1,1)"><rect fill="#ffffff" stroke="none" x="492" y="232" width="13" height="80"/></g><g transform="translate(10,-30) scale(1,1)"><path fill="none" stroke="#000000" d="M 492 232 L 505 232 L 505 312 L 492 312 L 492 232 Z Z" stroke-miterlimit="10"/></g><g transform="translate(10,-30) scale(1,1)"><path fill="none" stroke="#000000" d="M 109 200 L 292 200" stroke-miterlimit="10"/></g><g transform="translate(10,-30) scale(1,1)"><path fill="#000000" stroke="none" d="M 281.83732514237585 204.209517756016 L 292 200 L 281.83732514237585 195.790482243984"/></g><g transform="translate(10,-30) scale(1,1)"><path fill="none" stroke="#000000" d="M 281.83732514237585 204.209517756016 L 292 200 L 281.83732514237585 195.790482243984 L 281.83732514237585 204.209517756016" stroke-miterlimit="10"/></g><g transform="translate(10,-30) scale(1,1)"><g><path fill="none" stroke="none"/><text fill="#000000" stroke="none" font-family="Arial" font-size="13px" font-style="normal" font-weight="normal" text-decoration="none" x="155.732421875" y="186.5">1 : View(page)</text></g></g><g transform="translate(10,-30) scale(1,1)"><rect fill="#ffffff" stroke="none" x="292" y="200" width="13" height="72"/></g><g transform="translate(10,-30) scale(1,1)"><path fill="none" stroke="#000000" d="M 292 200 L 305 200 L 305 272 L 292 272 L 292 200 Z Z" stroke-miterlimit="10"/></g><g transform="translate(10,-30) scale(1,1)"><path fill="none" stroke="#000000" d="M 305 432 L 492 432" stroke-miterlimit="10"/></g><g transform="translate(10,-30) scale(1,1)"><path fill="#000000" stroke="none" d="M 481.83732514237585 436.209517756016 L 492 432 L 481.83732514237585 427.790482243984"/></g><g transform="translate(10,-30) scale(1,1)"><path fill="none" stroke="#000000" d="M 481.83732514237585 436.209517756016 L 492 432 L 481.83732514237585 427.790482243984 L 481.83732514237585 436.209517756016" stroke-miterlimit="10"/></g><g transform="translate(10,-30) scale(1,1)"><g><path fill="none" stroke="none"/><text fill="#000000" stroke="none" font-family="Arial" font-size="13px" font-style="normal" font-weight="normal" text-decoration="none" x="326.114990234375" y="411.5">8 : send(selectedTarget)</text></g></g><g transform="translate(10,-30) scale(1,1)"><rect fill="#ffffff" stroke="none" x="492" y="432" width="13" height="56"/></g><g transform="translate(10,-30) scale(1,1)"><path fill="none" stroke="#000000" d="M 492 432 L 505 432 L 505 488 L 492 488 L 492 432 Z Z" stroke-miterlimit="10"/></g><g transform="translate(10,-30) scale(1,1)"><path fill="none" stroke="#000000" d="M 505 448 L 748 448" stroke-miterlimit="10"/></g><g transform="translate(10,-30) scale(1,1)"><path fill="none" stroke="#000000" d="M 737.8373251423759 452.209517756016 L 748 448 L 737.8373251423758 443.790482243984" stroke-miterlimit="10"/></g><g transform="translate(10,-30) scale(1,1)"><g><path fill="none" stroke="none"/><text fill="#000000" stroke="none" font-family="Arial" font-size="13px" font-style="normal" font-weight="normal" text-decoration="none" x="573.114990234375" y="433.5">9 : send(targetID)</text></g></g><g transform="translate(10,-30) scale(1,1)"><rect fill="#ffffff" stroke="none" x="748" y="448" width="13" height="28"/></g><g transform="translate(10,-30) scale(1,1)"><path fill="none" stroke="#000000" d="M 748 448 L 761 448 L 761 476 L 748 476 L 748 448 Z Z" stroke-miterlimit="10"/></g><g transform="translate(10,-30) scale(1,1)"><path fill="none" stroke="#000000" d="M 748 464 L 505 464" stroke-miterlimit="10" stroke-dasharray="3"/></g><g transform="translate(10,-30) scale(1,1)"><path fill="none" stroke="#000000" d="M 515.1626748576241 459.790482243984 L 505 464 L 515.1626748576241 468.209517756016" stroke-miterlimit="10"/></g><g transform="translate(10,-30) scale(1,1)"><g><path fill="none" stroke="none"/><text fill="#000000" stroke="none" font-family="Arial" font-size="13px" font-style="normal" font-weight="normal" text-decoration="none" x="578.5" y="480.5">10 : send(fields)</text></g></g><g transform="translate(10,-30) scale(1,1)"><path fill="none" stroke="#000000" d="M 292 472 L 115 472" stroke-miterlimit="10" stroke-dasharray="3"/></g><g transform="translate(10,-30) scale(1,1)"><path fill="none" stroke="#000000" d="M 125.16267485762415 467.790482243984 L 115 472 L 125.16267485762415 476.209517756016" stroke-miterlimit="10"/></g><g transform="translate(10,-30) scale(1,1)"><g><path fill="none" stroke="none"/><text fill="#000000" stroke="none" font-family="Arial" font-size="13px" font-style="normal" font-weight="normal" text-decoration="none" x="146.982421875" y="491.5">11 : view(Annotation)</text></g></g><g transform="translate(10,-30) scale(1,1)"><path fill="none" stroke="#000000" d="M 492 472 L 305 472" stroke-miterlimit="10" stroke-dasharray="3"/></g><g transform="translate(10,-30) scale(1,1)"><path fill="none" stroke="#000000" d="M 315.16267485762415 467.790482243984 L 305 472 L 315.16267485762415 476.209517756016" stroke-miterlimit="10"/></g><g transform="translate(10,-30) scale(1,1)"><g><path fill="none" stroke="none"/><text fill="#000000" stroke="none" font-family="Arial" font-size="13px" font-style="normal" font-weight="normal" text-decoration="none" x="318.5" y="492.5">12 : send(annotationBody)</text></g></g><g transform="translate(10,-30) scale(1,1)"><path fill="none" stroke="#000000" d="M 115 416 L 292 416" stroke-miterlimit="10"/></g><g transform="translate(10,-30) scale(1,1)"><path fill="#000000" stroke="none" d="M 281.83732514237585 420.209517756016 L 292 416 L 281.83732514237585 411.790482243984"/></g><g transform="translate(10,-30) scale(1,1)"><path fill="none" stroke="#000000" d="M 281.83732514237585 420.209517756016 L 292 416 L 281.83732514237585 411.790482243984 L 281.83732514237585 420.209517756016" stroke-miterlimit="10"/></g><g transform="translate(10,-30) scale(1,1)"><g><path fill="none" stroke="none"/><text fill="#000000" stroke="none" font-family="Arial" font-size="13px" font-style="normal" font-weight="normal" text-decoration="none" x="156.114990234375" y="412.5">7 : select(target)</text></g></g><g transform="translate(10,-30) scale(1,1)"><rect fill="#ffffff" stroke="none" x="292" y="416" width="13" height="72"/></g><g transform="translate(10,-30) scale(1,1)"><path fill="none" stroke="#000000" d="M 292 416 L 305 416 L 305 488 L 292 488 L 292 416 Z Z" stroke-miterlimit="10"/></g></g></svg>