<svg version="1.1" xmlns="http://www.w3.org/2000/svg" xmlns:xlink="http://www.w3.org/1999/xlink" width="1751" height="1791"><defs/><g><g transform="translate(5,5) scale(1,1)"><path fill="none" stroke="#000000" d="M 5 5 L 1736 5 L 1736 1776 L 5 1776 L 5 5" stroke-miterlimit="10"/></g><g transform="translate(5,5) scale(1,1)"><path fill="#ffffff" stroke="none" d="M 5 5 L 5 27 L 167.66259765625 27 L 178.66259765625 16 L 178.66259765625 5 L 5 5"/></g><g transform="translate(5,5) scale(1,1)"><path fill="none" stroke="#000000" d="M 5 5 L 5 27 L 167.66259765625 27 L 178.66259765625 16 L 178.66259765625 5 L 5 5 L 5 5" stroke-miterlimit="10"/></g><g transform="translate(5,5) scale(1,1)"><g><path fill="none" stroke="none"/><text fill="#000000" stroke="none" font-family="Arial" font-size="13px" font-style="normal" font-weight="normal" text-decoration="none" x="75.97900390625" y="22.5">Activity Stream</text></g></g><g transform="translate(5,5) scale(1,1)"><g><path fill="none" stroke="none"/><text fill="#000000" stroke="none" font-family="Arial" font-size="13px" font-style="normal" font-weight="bold" text-decoration="none" x="10" y="22.5">interaction</text></g></g><g transform="translate(5,5) scale(1,1)"><path fill="none" stroke="#000000" d="M 32 128 L 1712 128 L 1712 423 L 32 423 L 32 128" stroke-miterlimit="10"/></g><g transform="translate(5,5) scale(1,1)"><path fill="#ffffff" stroke="none" d="M 32 128 L 32 150 L 234.43701171875 150 L 245.43701171875 139 L 245.43701171875 128 L 32 128"/></g><g transform="translate(5,5) scale(1,1)"><path fill="none" stroke="#000000" d="M 32 128 L 32 150 L 234.43701171875 150 L 245.43701171875 139 L 245.43701171875 128 L 32 128 L 32 128" stroke-miterlimit="10"/></g><g transform="translate(5,5) scale(1,1)"><g><path fill="none" stroke="none"/><text fill="#000000" stroke="none" font-family="Arial" font-size="13px" font-style="normal" font-weight="normal" text-decoration="none" x="95.03173828125" y="145.5">Subscribe to own posts</text></g></g><g transform="translate(5,5) scale(1,1)"><g><path fill="none" stroke="none"/><text fill="#000000" stroke="none" font-family="Arial" font-size="13px" font-style="normal" font-weight="bold" text-decoration="none" x="37" y="145.5">use case</text></g></g><g transform="translate(5,5) scale(1,1)"><path fill="none" stroke="#000000" d="M 32 464 L 1712 464 L 1712 880 L 32 880 L 32 464" stroke-miterlimit="10"/></g><g transform="translate(5,5) scale(1,1)"><path fill="#ffffff" stroke="none" d="M 32 464 L 32 486 L 292.5625 486 L 303.5625 475 L 303.5625 464 L 32 464"/></g><g transform="translate(5,5) scale(1,1)"><path fill="none" stroke="#000000" d="M 32 464 L 32 486 L 292.5625 486 L 303.5625 475 L 303.5625 464 L 32 464 L 32 464" stroke-miterlimit="10"/></g><g transform="translate(5,5) scale(1,1)"><g><path fill="none" stroke="none"/><text fill="#000000" stroke="none" font-family="Arial" font-size="13px" font-style="normal" font-weight="normal" text-decoration="none" x="95.03173828125" y="481.5">Subscribe to another user's posts</text></g></g><g transform="translate(5,5) scale(1,1)"><g><path fill="none" stroke="none"/><text fill="#000000" stroke="none" font-family="Arial" font-size="13px" font-style="normal" font-weight="bold" text-decoration="none" x="37" y="481.5">use case</text></g></g><g transform="translate(5,5) scale(1,1)"><path fill="none" stroke="#000000" d="M 32 904 L 1712 904 L 1712 1224 L 32 1224 L 32 904" stroke-miterlimit="10"/></g><g transform="translate(5,5) scale(1,1)"><path fill="#ffffff" stroke="none" d="M 32 904 L 32 926 L 273.43701171875 926 L 284.43701171875 915 L 284.43701171875 904 L 32 904"/></g><g transform="translate(5,5) scale(1,1)"><path fill="none" stroke="#000000" d="M 32 904 L 32 926 L 273.43701171875 926 L 284.43701171875 915 L 284.43701171875 904 L 32 904 L 32 904" stroke-miterlimit="10"/></g><g transform="translate(5,5) scale(1,1)"><g><path fill="none" stroke="none"/><text fill="#000000" stroke="none" font-family="Arial" font-size="13px" font-style="normal" font-weight="normal" text-decoration="none" x="95.03173828125" y="921.5">Subscribe to community posts</text></g></g><g transform="translate(5,5) scale(1,1)"><g><path fill="none" stroke="none"/><text fill="#000000" stroke="none" font-family="Arial" font-size="13px" font-style="normal" font-weight="bold" text-decoration="none" x="37" y="921.5">use case</text></g></g><g transform="translate(5,5) scale(1,1)"><path fill="none" stroke="#000000" d="M 32 1248 L 1712 1248 L 1712 1688 L 32 1688 L 32 1248" stroke-miterlimit="10"/></g><g transform="translate(5,5) scale(1,1)"><path fill="#ffffff" stroke="none" d="M 32 1248 L 32 1270 L 347.8759765625 1270 L 358.8759765625 1259 L 358.8759765625 1248 L 32 1248"/></g><g transform="translate(5,5) scale(1,1)"><path fill="none" stroke="#000000" d="M 32 1248 L 32 1270 L 347.8759765625 1270 L 358.8759765625 1259 L 358.8759765625 1248 L 32 1248 L 32 1248" stroke-miterlimit="10"/></g><g transform="translate(5,5) scale(1,1)"><g><path fill="none" stroke="none"/><text fill="#000000" stroke="none" font-family="Arial" font-size="13px" font-style="normal" font-weight="normal" text-decoration="none" x="95.03173828125" y="1265.5">Subscribe to posts with a specific post type</text></g></g><g transform="translate(5,5) scale(1,1)"><g><path fill="none" stroke="none"/><text fill="#000000" stroke="none" font-family="Arial" font-size="13px" font-style="normal" font-weight="bold" text-decoration="none" x="37" y="1265.5">use case</text></g></g><g transform="translate(5,5) scale(1,1)"><path fill="#ffffff" stroke="none" d="M 306.4517684659091 47.3 C 306.4517684659091 43.82060576 309.3301701880909 41 312.880859375 41 C 316.4315485619091 41 319.309950284091 43.82060576 319.309950284091 47.3 C 319.309950284091 50.779394239999995 316.4315485619091 53.6 312.880859375 53.6 C 309.3301701880909 53.6 306.4517684659091 50.779394239999995 306.4517684659091 47.3 Z"/></g><g transform="translate(5,5) scale(1,1)"><path fill="none" stroke="#000000" d="M 306.4517684659091 47.3 C 306.4517684659091 43.82060576 309.3301701880909 41 312.880859375 41 C 316.4315485619091 41 319.309950284091 43.82060576 319.309950284091 47.3 C 319.309950284091 50.779394239999995 316.4315485619091 53.6 312.880859375 53.6 C 309.3301701880909 53.6 306.4517684659091 50.779394239999995 306.4517684659091 47.3 Z" stroke-miterlimit="10"/></g><g transform="translate(5,5) scale(1,1)"><path fill="none" stroke="#000000" d="M 312.880859375 53.6 L 312.880859375 66.4" stroke-miterlimit="10"/></g><g transform="translate(5,5) scale(1,1)"><path fill="none" stroke="#000000" d="M 306.07358664772727 58.4 L 319.6881321022728 58.4" stroke-miterlimit="10"/></g><g transform="translate(5,5) scale(1,1)"><path fill="none" stroke="#000000" d="M 312.880859375 66.4 L 303.42631392045456 79" stroke-miterlimit="10"/></g><g transform="translate(5,5) scale(1,1)"><path fill="none" stroke="#000000" d="M 312.880859375 66.4 L 322.3354048295455 79" stroke-miterlimit="10"/></g><g transform="translate(5,5) scale(1,1)"><g><path fill="none" stroke="none"/><text fill="#000000" stroke="none" font-family="Arial" font-size="13px" font-style="normal" font-weight="bold" text-decoration="none" x="264.476806640625" y="99.5">Subscriber: User</text></g></g><g transform="translate(5,5) scale(1,1)"><path fill="none" stroke="#000000" d="M 313.5 105 L 313.5 1760" stroke-miterlimit="10" stroke-dasharray="3"/></g><g transform="translate(5,5) scale(1,1)"><rect fill="#C0C0C0" stroke="none" x="783" y="47" width="140.3671875" height="39" opacity="0.2"/></g><g transform="translate(5,5) scale(1,1)"><rect fill="#ffffff" stroke="none" x="776" y="40" width="140.3671875" height="39"/></g><g transform="translate(5,5) scale(1,1)"><path fill="none" stroke="#000000" d="M 776 40 L 916.3671875 40 L 916.3671875 79 L 776 79 L 776 40 Z Z" stroke-miterlimit="10"/></g><g transform="translate(5,5) scale(1,1)"><g><path fill="none" stroke="none"/><text fill="#000000" stroke="none" font-family="Arial" font-size="13px" font-style="normal" font-weight="bold" text-decoration="none" x="833.17724609375" y="59.5">Post</text></g></g><g transform="translate(5,5) scale(1,1)"><path fill="none" stroke="#000000" d="M 847.5 80 L 847.5 1760" stroke-miterlimit="10" stroke-dasharray="3"/></g><g transform="translate(5,5) scale(1,1)"><rect fill="#C0C0C0" stroke="none" x="1263" y="47" width="140.3671875" height="39" opacity="0.2"/></g><g transform="translate(5,5) scale(1,1)"><rect fill="#ffffff" stroke="none" x="1256" y="40" width="140.3671875" height="39"/></g><g transform="translate(5,5) scale(1,1)"><path fill="none" stroke="#000000" d="M 1256 40 L 1396.3671875 40 L 1396.3671875 79 L 1256 79 L 1256 40 Z Z" stroke-miterlimit="10"/></g><g transform="translate(5,5) scale(1,1)"><g><path fill="none" stroke="none"/><text fill="#000000" stroke="none" font-family="Arial" font-size="13px" font-style="normal" font-weight="bold" text-decoration="none" x="1270.549560546875" y="59.5">Notification Service</text></g></g><g transform="translate(5,5) scale(1,1)"><path fill="none" stroke="#000000" d="M 1327.5 80 L 1327.5 1760" stroke-miterlimit="10" stroke-dasharray="3"/></g><g transform="translate(5,5) scale(1,1)"><rect fill="#C0C0C0" stroke="none" x="1015" y="47" width="127" height="39" opacity="0.2"/></g><g transform="translate(5,5) scale(1,1)"><rect fill="#ffffff" stroke="none" x="1008" y="40" width="127" height="39"/></g><g transform="translate(5,5) scale(1,1)"><path fill="none" stroke="#000000" d="M 1008 40 L 1135 40 L 1135 79 L 1008 79 L 1008 40 Z Z" stroke-miterlimit="10"/></g><g transform="translate(5,5) scale(1,1)"><g><path fill="none" stroke="none"/><text fill="#000000" stroke="none" font-family="Arial" font-size="13px" font-style="normal" font-weight="bold" text-decoration="none" x="1043.325927734375" y="59.5">Comment</text></g></g><g transform="translate(5,5) scale(1,1)"><path fill="none" stroke="#000000" d="M 1072.5 80 L 1072.5 1760" stroke-miterlimit="10" stroke-dasharray="3"/></g><g transform="translate(5,5) scale(1,1)"><path fill="#ffffff" stroke="none" d="M 473.9686141690341 47.3 C 473.9686141690341 43.82060576 476.8470158912159 41 480.397705078125 41 C 483.9483942650341 41 486.826795987216 43.82060576 486.826795987216 47.3 C 486.826795987216 50.779394239999995 483.9483942650341 53.6 480.397705078125 53.6 C 476.8470158912159 53.6 473.9686141690341 50.779394239999995 473.9686141690341 47.3 Z"/></g><g transform="translate(5,5) scale(1,1)"><path fill="none" stroke="#000000" d="M 473.9686141690341 47.3 C 473.9686141690341 43.82060576 476.8470158912159 41 480.397705078125 41 C 483.9483942650341 41 486.826795987216 43.82060576 486.826795987216 47.3 C 486.826795987216 50.779394239999995 483.9483942650341 53.6 480.397705078125 53.6 C 476.8470158912159 53.6 473.9686141690341 50.779394239999995 473.9686141690341 47.3 Z" stroke-miterlimit="10"/></g><g transform="translate(5,5) scale(1,1)"><path fill="none" stroke="#000000" d="M 480.397705078125 53.6 L 480.397705078125 66.4" stroke-miterlimit="10"/></g><g transform="translate(5,5) scale(1,1)"><path fill="none" stroke="#000000" d="M 473.59043235085227 58.4 L 487.2049778053978 58.4" stroke-miterlimit="10"/></g><g transform="translate(5,5) scale(1,1)"><path fill="none" stroke="#000000" d="M 480.397705078125 66.4 L 470.94315962357956 79" stroke-miterlimit="10"/></g><g transform="translate(5,5) scale(1,1)"><path fill="none" stroke="#000000" d="M 480.397705078125 66.4 L 489.8522505326705 79" stroke-miterlimit="10"/></g><g transform="translate(5,5) scale(1,1)"><g><path fill="none" stroke="none"/><text fill="#000000" stroke="none" font-family="Arial" font-size="13px" font-style="normal" font-weight="bold" text-decoration="none" x="416.81640625" y="99.5">Content Creator: User</text></g></g><g transform="translate(5,5) scale(1,1)"><path fill="none" stroke="#000000" d="M 481.5 105 L 481.5 1760" stroke-miterlimit="10" stroke-dasharray="3"/></g><g transform="translate(5,5) scale(1,1)"><rect fill="#C0C0C0" stroke="none" x="1551" y="47" width="128" height="39" opacity="0.2"/></g><g transform="translate(5,5) scale(1,1)"><rect fill="#ffffff" stroke="none" x="1544" y="40" width="128" height="39"/></g><g transform="translate(5,5) scale(1,1)"><path fill="none" stroke="#000000" d="M 1544 40 L 1672 40 L 1672 79 L 1544 79 L 1544 40 Z Z" stroke-miterlimit="10"/></g><g transform="translate(5,5) scale(1,1)"><g><path fill="none" stroke="none"/><text fill="#000000" stroke="none" font-family="Arial" font-size="13px" font-style="normal" font-weight="bold" text-decoration="none" x="1580.175048828125" y="59.5">Database</text></g></g><g transform="translate(5,5) scale(1,1)"><path fill="none" stroke="#000000" d="M 1609.5 80 L 1609.5 1760" stroke-miterlimit="10" stroke-dasharray="3"/></g><g transform="translate(5,5) scale(1,1)"><rect fill="#C0C0C0" stroke="none" x="583" y="47" width="146.6513671875" height="39" opacity="0.2"/></g><g transform="translate(5,5) scale(1,1)"><rect fill="#ffffff" stroke="none" x="576" y="40" width="146.6513671875" height="39"/></g><g transform="translate(5,5) scale(1,1)"><path fill="none" stroke="#000000" d="M 576 40 L 722.6513671875 40 L 722.6513671875 79 L 576 79 L 576 40 Z Z" stroke-miterlimit="10"/></g><g transform="translate(5,5) scale(1,1)"><g><path fill="none" stroke="none"/><text fill="#000000" stroke="none" font-family="Arial" font-size="13px" font-style="normal" font-weight="bold" text-decoration="none" x="590.206787109375" y="59.5">Activity Stream View</text></g></g><g transform="translate(5,5) scale(1,1)"><path fill="none" stroke="#000000" d="M 650.5 80 L 650.5 1760" stroke-miterlimit="10" stroke-dasharray="3"/></g><g transform="translate(5,5) scale(1,1)"><path fill="none" stroke="#000000" d="M 481 194 L 1065 194" stroke-miterlimit="10"/></g><g transform="translate(5,5) scale(1,1)"><path fill="#000000" stroke="none" d="M 1054.837325142376 198.209517756016 L 1065 194 L 1054.837325142376 189.790482243984"/></g><g transform="translate(5,5) scale(1,1)"><path fill="none" stroke="#000000" d="M 1054.837325142376 198.209517756016 L 1065 194 L 1054.837325142376 189.790482243984 L 1054.837325142376 198.209517756016" stroke-miterlimit="10"/></g><g transform="translate(5,5) scale(1,1)"><g><path fill="none" stroke="none"/><text fill="#000000" stroke="none" font-family="Arial" font-size="13px" font-style="normal" font-weight="normal" text-decoration="none" x="870.5" y="190.5">1 : CreateComment(params)</text></g></g><g transform="translate(5,5) scale(1,1)"><rect fill="#ffffff" stroke="none" x="1065" y="194" width="13" height="28"/></g><g transform="translate(5,5) scale(1,1)"><path fill="none" stroke="#000000" d="M 1065 194 L 1078 194 L 1078 222 L 1065 222 L 1065 194 Z Z" stroke-miterlimit="10"/></g><g transform="translate(5,5) scale(1,1)"><path fill="none" stroke="#000000" d="M 1078 216 L 1320 216" stroke-miterlimit="10"/></g><g transform="translate(5,5) scale(1,1)"><path fill="#000000" stroke="none" d="M 1309.837325142376 220.209517756016 L 1320 216 L 1309.837325142376 211.790482243984"/></g><g transform="translate(5,5) scale(1,1)"><path fill="none" stroke="#000000" d="M 1309.837325142376 220.209517756016 L 1320 216 L 1309.837325142376 211.790482243984 L 1309.837325142376 220.209517756016" stroke-miterlimit="10"/></g><g transform="translate(5,5) scale(1,1)"><g><path fill="none" stroke="none"/><text fill="#000000" stroke="none" font-family="Arial" font-size="13px" font-style="normal" font-weight="normal" text-decoration="none" x="1111.4208984375" y="211.5">2 : NotifyPostOwner(params)</text></g></g><g transform="translate(5,5) scale(1,1)"><rect fill="#ffffff" stroke="none" x="1320" y="216" width="13" height="28"/></g><g transform="translate(5,5) scale(1,1)"><path fill="none" stroke="#000000" d="M 1320 216 L 1333 216 L 1333 244 L 1320 244 L 1320 216 Z Z" stroke-miterlimit="10"/></g><g transform="translate(5,5) scale(1,1)"><path fill="none" stroke="#000000" d="M 1320 240 L 853 240" stroke-miterlimit="10"/></g><g transform="translate(5,5) scale(1,1)"><path fill="#000000" stroke="none" d="M 863.1626748576241 235.790482243984 L 853 240 L 863.1626748576241 244.209517756016"/></g><g transform="translate(5,5) scale(1,1)"><path fill="none" stroke="#000000" d="M 863.1626748576241 235.790482243984 L 853 240 L 863.1626748576241 244.209517756016 L 863.1626748576241 235.790482243984" stroke-miterlimit="10"/></g><g transform="translate(5,5) scale(1,1)"><g><path fill="none" stroke="none"/><text fill="#000000" stroke="none" font-family="Arial" font-size="13px" font-style="normal" font-weight="normal" text-decoration="none" x="911.5" y="235.5">3 : GetOwner(params)</text></g></g><g transform="translate(5,5) scale(1,1)"><rect fill="#ffffff" stroke="none" x="840" y="240" width="13" height="104"/></g><g transform="translate(5,5) scale(1,1)"><path fill="none" stroke="#000000" d="M 840 240 L 853 240 L 853 344 L 840 344 L 840 240 Z Z" stroke-miterlimit="10"/></g><g transform="translate(5,5) scale(1,1)"><path fill="none" stroke="#000000" d="M 853 288 L 1602 288" stroke-miterlimit="10"/></g><g transform="translate(5,5) scale(1,1)"><path fill="#000000" stroke="none" d="M 1591.837325142376 292.209517756016 L 1602 288 L 1591.837325142376 283.790482243984"/></g><g transform="translate(5,5) scale(1,1)"><path fill="none" stroke="#000000" d="M 1591.837325142376 292.209517756016 L 1602 288 L 1591.837325142376 283.790482243984 L 1591.837325142376 292.209517756016" stroke-miterlimit="10"/></g><g transform="translate(5,5) scale(1,1)"><g><path fill="none" stroke="none"/><text fill="#000000" stroke="none" font-family="Arial" font-size="13px" font-style="normal" font-weight="normal" text-decoration="none" x="1146.5" y="282.5">4 : QueryResult(postId)</text></g></g><g transform="translate(5,5) scale(1,1)"><rect fill="#ffffff" stroke="none" x="1602" y="288" width="13" height="28"/></g><g transform="translate(5,5) scale(1,1)"><path fill="none" stroke="#000000" d="M 1602 288 L 1615 288 L 1615 316 L 1602 316 L 1602 288 Z Z" stroke-miterlimit="10"/></g><g transform="translate(5,5) scale(1,1)"><path fill="none" stroke="#000000" d="M 1602 312 L 853 312" stroke-miterlimit="10" stroke-dasharray="3"/></g><g transform="translate(5,5) scale(1,1)"><path fill="none" stroke="#000000" d="M 863.1626748576241 307.790482243984 L 853 312 L 863.1626748576241 316.209517756016" stroke-miterlimit="10"/></g><g transform="translate(5,5) scale(1,1)"><g><path fill="none" stroke="none"/><text fill="#000000" stroke="none" font-family="Arial" font-size="13px" font-style="normal" font-weight="normal" text-decoration="none" x="1175.5" y="328.5">5 : Return(owner)</text></g></g><g transform="translate(5,5) scale(1,1)"><path fill="none" stroke="#000000" d="M 847 344 L 1320 344" stroke-miterlimit="10"/></g><g transform="translate(5,5) scale(1,1)"><path fill="#000000" stroke="none" d="M 1309.837325142376 348.209517756016 L 1320 344 L 1309.837325142376 339.790482243984"/></g><g transform="translate(5,5) scale(1,1)"><path fill="none" stroke="#000000" d="M 1309.837325142376 348.209517756016 L 1320 344 L 1309.837325142376 339.790482243984 L 1309.837325142376 348.209517756016" stroke-miterlimit="10"/></g><g transform="translate(5,5) scale(1,1)"><g><path fill="none" stroke="none"/><text fill="#000000" stroke="none" font-family="Arial" font-size="13px" font-style="normal" font-weight="normal" text-decoration="none" x="959.5" y="339.5">6 : Return(owner)</text></g></g><g transform="translate(5,5) scale(1,1)"><rect fill="#ffffff" stroke="none" x="1320" y="344" width="13" height="28"/></g><g transform="translate(5,5) scale(1,1)"><path fill="none" stroke="#000000" d="M 1320 344 L 1333 344 L 1333 372 L 1320 372 L 1320 344 Z Z" stroke-miterlimit="10"/></g><g transform="translate(5,5) scale(1,1)"><path fill="none" stroke="#000000" d="M 1320 368 L 656 368" stroke-miterlimit="10"/></g><g transform="translate(5,5) scale(1,1)"><path fill="#000000" stroke="none" d="M 666.1626748576241 363.790482243984 L 656 368 L 666.1626748576241 372.209517756016"/></g><g transform="translate(5,5) scale(1,1)"><path fill="none" stroke="#000000" d="M 666.1626748576241 363.790482243984 L 656 368 L 666.1626748576241 372.209517756016 L 666.1626748576241 363.790482243984" stroke-miterlimit="10"/></g><g transform="translate(5,5) scale(1,1)"><g><path fill="none" stroke="none"/><text fill="#000000" stroke="none" font-family="Arial" font-size="13px" font-style="normal" font-weight="normal" text-decoration="none" x="870.5" y="388.5">7 : CreateNotification(params, owner)</text></g></g><g transform="translate(5,5) scale(1,1)"><rect fill="#ffffff" stroke="none" x="643" y="368" width="13" height="28"/></g><g transform="translate(5,5) scale(1,1)"><path fill="none" stroke="#000000" d="M 643 368 L 656 368 L 656 396 L 643 396 L 643 368 Z Z" stroke-miterlimit="10"/></g><g transform="translate(5,5) scale(1,1)"><path fill="none" stroke="#000000" d="M 643 392 L 313 392" stroke-miterlimit="10" stroke-dasharray="3"/></g><g transform="translate(5,5) scale(1,1)"><path fill="none" stroke="#000000" d="M 323.16267485762415 387.790482243984 L 313 392 L 323.16267485762415 396.209517756016" stroke-miterlimit="10"/></g><g transform="translate(5,5) scale(1,1)"><g><path fill="none" stroke="none"/><text fill="#000000" stroke="none" font-family="Arial" font-size="13px" font-style="normal" font-weight="normal" text-decoration="none" x="375.5" y="408.5">8 : Return(Activity Stream View)</text></g></g><g transform="translate(5,5) scale(1,1)"><path fill="none" stroke="#000000" d="M 313 513 L 1320 513" stroke-miterlimit="10"/></g><g transform="translate(5,5) scale(1,1)"><path fill="#000000" stroke="none" d="M 1309.837325142376 517.209517756016 L 1320 513 L 1309.837325142376 508.790482243984"/></g><g transform="translate(5,5) scale(1,1)"><path fill="none" stroke="#000000" d="M 1309.837325142376 517.209517756016 L 1320 513 L 1309.837325142376 508.790482243984 L 1309.837325142376 517.209517756016" stroke-miterlimit="10"/></g><g transform="translate(5,5) scale(1,1)"><g><path fill="none" stroke="none"/><text fill="#000000" stroke="none" font-family="Arial" font-size="13px" font-style="normal" font-weight="normal" text-decoration="none" x="679.5" y="499.5">9 : SubscribeToUser(userId)</text></g></g><g transform="translate(5,5) scale(1,1)"><rect fill="#ffffff" stroke="none" x="1320" y="513" width="13" height="63"/></g><g transform="translate(5,5) scale(1,1)"><path fill="none" stroke="#000000" d="M 1320 513 L 1333 513 L 1333 576 L 1320 576 L 1320 513 Z Z" stroke-miterlimit="10"/></g><g transform="translate(5,5) scale(1,1)"><path fill="none" stroke="#000000" d="M 1333 536 L 1602 536" stroke-miterlimit="10"/></g><g transform="translate(5,5) scale(1,1)"><path fill="#000000" stroke="none" d="M 1591.837325142376 540.209517756016 L 1602 536 L 1591.837325142376 531.790482243984"/></g><g transform="translate(5,5) scale(1,1)"><path fill="none" stroke="#000000" d="M 1591.837325142376 540.209517756016 L 1602 536 L 1591.837325142376 531.790482243984 L 1591.837325142376 540.209517756016" stroke-miterlimit="10"/></g><g transform="translate(5,5) scale(1,1)"><g><path fill="none" stroke="none"/><text fill="#000000" stroke="none" font-family="Arial" font-size="13px" font-style="normal" font-weight="normal" text-decoration="none" x="1389.5" y="532.5">10 : Save(subscriptionInfo)</text></g></g><g transform="translate(5,5) scale(1,1)"><rect fill="#ffffff" stroke="none" x="1602" y="536" width="13" height="28"/></g><g transform="translate(5,5) scale(1,1)"><path fill="none" stroke="#000000" d="M 1602 536 L 1615 536 L 1615 564 L 1602 564 L 1602 536 Z Z" stroke-miterlimit="10"/></g><g transform="translate(5,5) scale(1,1)"><path fill="none" stroke="#000000" d="M 1602 561 L 1333 561" stroke-miterlimit="10" stroke-dasharray="3"/></g><g transform="translate(5,5) scale(1,1)"><path fill="none" stroke="#000000" d="M 1343.162674857624 556.790482243984 L 1333 561 L 1343.162674857624 565.209517756016" stroke-miterlimit="10"/></g><g transform="translate(5,5) scale(1,1)"><g><path fill="none" stroke="none"/><text fill="#000000" stroke="none" font-family="Arial" font-size="13px" font-style="normal" font-weight="normal" text-decoration="none" x="1406.5" y="577.5">11 : Return(success)</text></g></g><g transform="translate(5,5) scale(1,1)"><path fill="none" stroke="#000000" d="M 1320 568 L 313 568" stroke-miterlimit="10" stroke-dasharray="3"/></g><g transform="translate(5,5) scale(1,1)"><path fill="none" stroke="#000000" d="M 323.16267485762415 563.790482243984 L 313 568 L 323.16267485762415 572.209517756016" stroke-miterlimit="10"/></g><g transform="translate(5,5) scale(1,1)"><g><path fill="none" stroke="none"/><text fill="#000000" stroke="none" font-family="Arial" font-size="13px" font-style="normal" font-weight="normal" text-decoration="none" x="670.5" y="584.5">12 : Return(success message)</text></g></g><g transform="translate(5,5) scale(1,1)"><path fill="none" stroke="#000000" d="M 481 640 L 840 640" stroke-miterlimit="10"/></g><g transform="translate(5,5) scale(1,1)"><path fill="#000000" stroke="none" d="M 829.8373251423759 644.209517756016 L 840 640 L 829.8373251423758 635.790482243984"/></g><g transform="translate(5,5) scale(1,1)"><path fill="none" stroke="#000000" d="M 829.8373251423759 644.209517756016 L 840 640 L 829.8373251423758 635.790482243984 L 829.8373251423759 644.209517756016" stroke-miterlimit="10"/></g><g transform="translate(5,5) scale(1,1)"><g><path fill="none" stroke="none"/><text fill="#000000" stroke="none" font-family="Arial" font-size="13px" font-style="normal" font-weight="normal" text-decoration="none" x="583.5" y="636.5">13 : Create-EditPost(params)</text></g></g><g transform="translate(5,5) scale(1,1)"><rect fill="#ffffff" stroke="none" x="840" y="640" width="13" height="28"/></g><g transform="translate(5,5) scale(1,1)"><path fill="none" stroke="#000000" d="M 840 640 L 853 640 L 853 668 L 840 668 L 840 640 Z Z" stroke-miterlimit="10"/></g><g transform="translate(5,5) scale(1,1)"><path fill="none" stroke="#000000" d="M 853 656 L 1320 656" stroke-miterlimit="10"/></g><g transform="translate(5,5) scale(1,1)"><path fill="#000000" stroke="none" d="M 1309.837325142376 660.209517756016 L 1320 656 L 1309.837325142376 651.790482243984"/></g><g transform="translate(5,5) scale(1,1)"><path fill="none" stroke="#000000" d="M 1309.837325142376 660.209517756016 L 1320 656 L 1309.837325142376 651.790482243984 L 1309.837325142376 660.209517756016" stroke-miterlimit="10"/></g><g transform="translate(5,5) scale(1,1)"><g><path fill="none" stroke="none"/><text fill="#000000" stroke="none" font-family="Arial" font-size="13px" font-style="normal" font-weight="normal" text-decoration="none" x="1094.5" y="652.5">14 : NotifyUserSubscribers(params)</text></g></g><g transform="translate(5,5) scale(1,1)"><rect fill="#ffffff" stroke="none" x="1320" y="656" width="13" height="112"/></g><g transform="translate(5,5) scale(1,1)"><path fill="none" stroke="#000000" d="M 1320 656 L 1333 656 L 1333 768 L 1320 768 L 1320 656 Z Z" stroke-miterlimit="10"/></g><g transform="translate(5,5) scale(1,1)"><path fill="none" stroke="#000000" d="M 481 688 L 1065 688" stroke-miterlimit="10"/></g><g transform="translate(5,5) scale(1,1)"><path fill="#000000" stroke="none" d="M 1054.837325142376 692.209517756016 L 1065 688 L 1054.837325142376 683.790482243984"/></g><g transform="translate(5,5) scale(1,1)"><path fill="none" stroke="#000000" d="M 1054.837325142376 692.209517756016 L 1065 688 L 1054.837325142376 683.790482243984 L 1054.837325142376 692.209517756016" stroke-miterlimit="10"/></g><g transform="translate(5,5) scale(1,1)"><g><path fill="none" stroke="none"/><text fill="#000000" stroke="none" font-family="Arial" font-size="13px" font-style="normal" font-weight="normal" text-decoration="none" x="662.5" y="683.5">15 : CreateComment(params)</text></g></g><g transform="translate(5,5) scale(1,1)"><rect fill="#ffffff" stroke="none" x="1065" y="688" width="13" height="28"/></g><g transform="translate(5,5) scale(1,1)"><path fill="none" stroke="#000000" d="M 1065 688 L 1078 688 L 1078 716 L 1065 716 L 1065 688 Z Z" stroke-miterlimit="10"/></g><g transform="translate(5,5) scale(1,1)"><path fill="none" stroke="#000000" d="M 1078 712 L 1327 712" stroke-miterlimit="10"/></g><g transform="translate(5,5) scale(1,1)"><path fill="#000000" stroke="none" d="M 1316.837325142376 716.209517756016 L 1327 712 L 1316.837325142376 707.790482243984"/></g><g transform="translate(5,5) scale(1,1)"><path fill="none" stroke="#000000" d="M 1316.837325142376 716.209517756016 L 1327 712 L 1316.837325142376 707.790482243984 L 1316.837325142376 716.209517756016" stroke-miterlimit="10"/></g><g transform="translate(5,5) scale(1,1)"><g><path fill="none" stroke="none"/><text fill="#000000" stroke="none" font-family="Arial" font-size="13px" font-style="normal" font-weight="normal" text-decoration="none" x="1094.5" y="706.5">16 : NotifyUserSubscribers(params)</text></g></g><g transform="translate(5,5) scale(1,1)"><rect fill="#ffffff" stroke="none" x="1327" y="712" width="13" height="28"/></g><g transform="translate(5,5) scale(1,1)"><path fill="none" stroke="#000000" d="M 1327 712 L 1340 712 L 1340 740 L 1327 740 L 1327 712 Z Z" stroke-miterlimit="10"/></g><g transform="translate(5,5) scale(1,1)"><path fill="none" stroke="#000000" d="M 1333 752 L 1363 752 L 1363 772 L 1333 772" stroke-miterlimit="10"/></g><g transform="translate(5,5) scale(1,1)"><path fill="#000000" stroke="none" d="M 1343.162674857624 767.790482243984 L 1333 772 L 1343.162674857624 776.209517756016"/></g><g transform="translate(5,5) scale(1,1)"><path fill="none" stroke="#000000" d="M 1343.162674857624 767.790482243984 L 1333 772 L 1343.162674857624 776.209517756016 L 1343.162674857624 767.790482243984" stroke-miterlimit="10"/></g><g transform="translate(5,5) scale(1,1)"><g><path fill="none" stroke="none"/><text fill="#000000" stroke="none" font-family="Arial" font-size="13px" font-style="normal" font-weight="normal" text-decoration="none" x="1343.5" y="748.5">17 : GetUserSubscribers(userId)</text></g></g><g transform="translate(5,5) scale(1,1)"><rect fill="#ffffff" stroke="none" x="1320" y="772" width="13" height="52"/></g><g transform="translate(5,5) scale(1,1)"><path fill="none" stroke="#000000" d="M 1320 772 L 1333 772 L 1333 824 L 1320 824 L 1320 772 Z Z" stroke-miterlimit="10"/></g><g transform="translate(5,5) scale(1,1)"><path fill="none" stroke="#000000" d="M 1333 795 L 1602 795" stroke-miterlimit="10"/></g><g transform="translate(5,5) scale(1,1)"><path fill="#000000" stroke="none" d="M 1591.837325142376 799.209517756016 L 1602 795 L 1591.837325142376 790.790482243984"/></g><g transform="translate(5,5) scale(1,1)"><path fill="none" stroke="#000000" d="M 1591.837325142376 799.209517756016 L 1602 795 L 1591.837325142376 790.790482243984 L 1591.837325142376 799.209517756016" stroke-miterlimit="10"/></g><g transform="translate(5,5) scale(1,1)"><g><path fill="none" stroke="none"/><text fill="#000000" stroke="none" font-family="Arial" font-size="13px" font-style="normal" font-weight="normal" text-decoration="none" x="1395.5" y="791.5">18 : QueryResult(userId)</text></g></g><g transform="translate(5,5) scale(1,1)"><rect fill="#ffffff" stroke="none" x="1602" y="795" width="13" height="28"/></g><g transform="translate(5,5) scale(1,1)"><path fill="none" stroke="#000000" d="M 1602 795 L 1615 795 L 1615 823 L 1602 823 L 1602 795 Z Z" stroke-miterlimit="10"/></g><g transform="translate(5,5) scale(1,1)"><path fill="none" stroke="#000000" d="M 1602 815 L 1333 815" stroke-miterlimit="10" stroke-dasharray="3"/></g><g transform="translate(5,5) scale(1,1)"><path fill="none" stroke="#000000" d="M 1343.162674857624 810.790482243984 L 1333 815 L 1343.162674857624 819.209517756016" stroke-miterlimit="10"/></g><g transform="translate(5,5) scale(1,1)"><g><path fill="none" stroke="none"/><text fill="#000000" stroke="none" font-family="Arial" font-size="13px" font-style="normal" font-weight="normal" text-decoration="none" x="1396.5" y="831.5">19 : Return(subscribers)</text></g></g><g transform="translate(5,5) scale(1,1)"><path fill="none" stroke="#000000" d="M 1327 824 L 656 824" stroke-miterlimit="10"/></g><g transform="translate(5,5) scale(1,1)"><path fill="#000000" stroke="none" d="M 666.1626748576241 819.790482243984 L 656 824 L 666.1626748576241 828.209517756016"/></g><g transform="translate(5,5) scale(1,1)"><path fill="none" stroke="#000000" d="M 666.1626748576241 819.790482243984 L 656 824 L 666.1626748576241 828.209517756016 L 666.1626748576241 819.790482243984" stroke-miterlimit="10"/></g><g transform="translate(5,5) scale(1,1)"><g><path fill="none" stroke="none"/><text fill="#000000" stroke="none" font-family="Arial" font-size="13px" font-style="normal" font-weight="normal" text-decoration="none" x="862.5" y="840.5">20 : CreateNotification(params, subscribers)</text></g></g><g transform="translate(5,5) scale(1,1)"><rect fill="#ffffff" stroke="none" x="643" y="824" width="13" height="28"/></g><g transform="translate(5,5) scale(1,1)"><path fill="none" stroke="#000000" d="M 643 824 L 656 824 L 656 852 L 643 852 L 643 824 Z Z" stroke-miterlimit="10"/></g><g transform="translate(5,5) scale(1,1)"><path fill="none" stroke="#000000" d="M 643 848 L 313 848" stroke-miterlimit="10" stroke-dasharray="3"/></g><g transform="translate(5,5) scale(1,1)"><path fill="none" stroke="#000000" d="M 323.16267485762415 843.790482243984 L 313 848 L 323.16267485762415 852.209517756016" stroke-miterlimit="10"/></g><g transform="translate(5,5) scale(1,1)"><g><path fill="none" stroke="none"/><text fill="#000000" stroke="none" font-family="Arial" font-size="13px" font-style="normal" font-weight="normal" text-decoration="none" x="367.5" y="864.5">21 : Return(Activity Stream View)</text></g></g><g transform="translate(5,5) scale(1,1)"><path fill="none" stroke="#000000" d="M 481 968 L 840 968" stroke-miterlimit="10"/></g><g transform="translate(5,5) scale(1,1)"><path fill="#000000" stroke="none" d="M 829.8373251423759 972.209517756016 L 840 968 L 829.8373251423758 963.790482243984"/></g><g transform="translate(5,5) scale(1,1)"><path fill="none" stroke="#000000" d="M 829.8373251423759 972.209517756016 L 840 968 L 829.8373251423758 963.790482243984 L 829.8373251423759 972.209517756016" stroke-miterlimit="10"/></g><g transform="translate(5,5) scale(1,1)"><g><path fill="none" stroke="none"/><text fill="#000000" stroke="none" font-family="Arial" font-size="13px" font-style="normal" font-weight="normal" text-decoration="none" x="583.5" y="964.5">22 : Create-EditPost(params)</text></g></g><g transform="translate(5,5) scale(1,1)"><rect fill="#ffffff" stroke="none" x="840" y="968" width="13" height="28"/></g><g transform="translate(5,5) scale(1,1)"><path fill="none" stroke="#000000" d="M 840 968 L 853 968 L 853 996 L 840 996 L 840 968 Z Z" stroke-miterlimit="10"/></g><g transform="translate(5,5) scale(1,1)"><path fill="none" stroke="#000000" d="M 853 992 L 1320 992" stroke-miterlimit="10"/></g><g transform="translate(5,5) scale(1,1)"><path fill="#000000" stroke="none" d="M 1309.837325142376 996.209517756016 L 1320 992 L 1309.837325142376 987.790482243984"/></g><g transform="translate(5,5) scale(1,1)"><path fill="none" stroke="#000000" d="M 1309.837325142376 996.209517756016 L 1320 992 L 1309.837325142376 987.790482243984 L 1309.837325142376 996.209517756016" stroke-miterlimit="10"/></g><g transform="translate(5,5) scale(1,1)"><g><path fill="none" stroke="none"/><text fill="#000000" stroke="none" font-family="Arial" font-size="13px" font-style="normal" font-weight="normal" text-decoration="none" x="970.5" y="988.5">23 : NotifyCommunityMembers(params)</text></g></g><g transform="translate(5,5) scale(1,1)"><rect fill="#ffffff" stroke="none" x="1320" y="992" width="13" height="104"/></g><g transform="translate(5,5) scale(1,1)"><path fill="none" stroke="#000000" d="M 1320 992 L 1333 992 L 1333 1096 L 1320 1096 L 1320 992 Z Z" stroke-miterlimit="10"/></g><g transform="translate(5,5) scale(1,1)"><path fill="none" stroke="#000000" d="M 481 1019 L 1065 1019" stroke-miterlimit="10"/></g><g transform="translate(5,5) scale(1,1)"><path fill="#000000" stroke="none" d="M 1054.837325142376 1023.209517756016 L 1065 1019 L 1054.837325142376 1014.790482243984"/></g><g transform="translate(5,5) scale(1,1)"><path fill="none" stroke="#000000" d="M 1054.837325142376 1023.209517756016 L 1065 1019 L 1054.837325142376 1014.790482243984 L 1054.837325142376 1023.209517756016" stroke-miterlimit="10"/></g><g transform="translate(5,5) scale(1,1)"><g><path fill="none" stroke="none"/><text fill="#000000" stroke="none" font-family="Arial" font-size="13px" font-style="normal" font-weight="normal" text-decoration="none" x="661.5" y="1011.5">24 : CreateComment(params)</text></g></g><g transform="translate(5,5) scale(1,1)"><rect fill="#ffffff" stroke="none" x="1065" y="1019" width="13" height="28"/></g><g transform="translate(5,5) scale(1,1)"><path fill="none" stroke="#000000" d="M 1065 1019 L 1078 1019 L 1078 1047 L 1065 1047 L 1065 1019 Z Z" stroke-miterlimit="10"/></g><g transform="translate(5,5) scale(1,1)"><path fill="none" stroke="#000000" d="M 1078 1043 L 1327 1043" stroke-miterlimit="10"/></g><g transform="translate(5,5) scale(1,1)"><path fill="#000000" stroke="none" d="M 1316.837325142376 1047.2095177560159 L 1327 1043 L 1316.837325142376 1038.7904822439841"/></g><g transform="translate(5,5) scale(1,1)"><path fill="none" stroke="#000000" d="M 1316.837325142376 1047.2095177560159 L 1327 1043 L 1316.837325142376 1038.7904822439841 L 1316.837325142376 1047.2095177560159" stroke-miterlimit="10"/></g><g transform="translate(5,5) scale(1,1)"><g><path fill="none" stroke="none"/><text fill="#000000" stroke="none" font-family="Arial" font-size="13px" font-style="normal" font-weight="normal" text-decoration="none" x="1086.5" y="1039.5">25 : NotifyCommunityMembers(params)</text></g></g><g transform="translate(5,5) scale(1,1)"><rect fill="#ffffff" stroke="none" x="1327" y="1043" width="13" height="28"/></g><g transform="translate(5,5) scale(1,1)"><path fill="none" stroke="#000000" d="M 1327 1043 L 1340 1043 L 1340 1071 L 1327 1071 L 1327 1043 Z Z" stroke-miterlimit="10"/></g><g transform="translate(5,5) scale(1,1)"><path fill="none" stroke="#000000" d="M 1333 1088 L 1363 1088 L 1363 1108 L 1333 1108" stroke-miterlimit="10"/></g><g transform="translate(5,5) scale(1,1)"><path fill="#000000" stroke="none" d="M 1343.162674857624 1103.7904822439841 L 1333 1108 L 1343.162674857624 1112.2095177560159"/></g><g transform="translate(5,5) scale(1,1)"><path fill="none" stroke="#000000" d="M 1343.162674857624 1103.7904822439841 L 1333 1108 L 1343.162674857624 1112.2095177560159 L 1343.162674857624 1103.7904822439841" stroke-miterlimit="10"/></g><g transform="translate(5,5) scale(1,1)"><g><path fill="none" stroke="none"/><text fill="#000000" stroke="none" font-family="Arial" font-size="13px" font-style="normal" font-weight="normal" text-decoration="none" x="1350.5" y="1084.5">26 : GetCommunityMembers(communityId)</text></g></g><g transform="translate(5,5) scale(1,1)"><rect fill="#ffffff" stroke="none" x="1320" y="1108" width="13" height="60"/></g><g transform="translate(5,5) scale(1,1)"><path fill="none" stroke="#000000" d="M 1320 1108 L 1333 1108 L 1333 1168 L 1320 1168 L 1320 1108 Z Z" stroke-miterlimit="10"/></g><g transform="translate(5,5) scale(1,1)"><path fill="none" stroke="#000000" d="M 1333 1129 L 1602 1129" stroke-miterlimit="10"/></g><g transform="translate(5,5) scale(1,1)"><path fill="#000000" stroke="none" d="M 1591.837325142376 1133.2095177560159 L 1602 1129 L 1591.837325142376 1124.7904822439841"/></g><g transform="translate(5,5) scale(1,1)"><path fill="none" stroke="#000000" d="M 1591.837325142376 1133.2095177560159 L 1602 1129 L 1591.837325142376 1124.7904822439841 L 1591.837325142376 1133.2095177560159" stroke-miterlimit="10"/></g><g transform="translate(5,5) scale(1,1)"><g><path fill="none" stroke="none"/><text fill="#000000" stroke="none" font-family="Arial" font-size="13px" font-style="normal" font-weight="normal" text-decoration="none" x="1377.5" y="1125.5">27 : QueryResult(communityId)</text></g></g><g transform="translate(5,5) scale(1,1)"><rect fill="#ffffff" stroke="none" x="1602" y="1129" width="13" height="28"/></g><g transform="translate(5,5) scale(1,1)"><path fill="none" stroke="#000000" d="M 1602 1129 L 1615 1129 L 1615 1157 L 1602 1157 L 1602 1129 Z Z" stroke-miterlimit="10"/></g><g transform="translate(5,5) scale(1,1)"><path fill="none" stroke="#000000" d="M 1602 1149 L 1333 1149" stroke-miterlimit="10" stroke-dasharray="3"/></g><g transform="translate(5,5) scale(1,1)"><path fill="none" stroke="#000000" d="M 1343.162674857624 1144.7904822439841 L 1333 1149 L 1343.162674857624 1153.2095177560159" stroke-miterlimit="10"/></g><g transform="translate(5,5) scale(1,1)"><g><path fill="none" stroke="none"/><text fill="#000000" stroke="none" font-family="Arial" font-size="13px" font-style="normal" font-weight="normal" text-decoration="none" x="1375.5" y="1171.5">28 : Return(communityMembers)</text></g></g><g transform="translate(5,5) scale(1,1)"><path fill="none" stroke="#000000" d="M 1320 1163 L 656 1163" stroke-miterlimit="10"/></g><g transform="translate(5,5) scale(1,1)"><path fill="#000000" stroke="none" d="M 666.1626748576241 1158.7904822439841 L 656 1163 L 666.1626748576241 1167.2095177560159"/></g><g transform="translate(5,5) scale(1,1)"><path fill="none" stroke="#000000" d="M 666.1626748576241 1158.7904822439841 L 656 1163 L 666.1626748576241 1167.2095177560159 L 666.1626748576241 1158.7904822439841" stroke-miterlimit="10"/></g><g transform="translate(5,5) scale(1,1)"><g><path fill="none" stroke="none"/><text fill="#000000" stroke="none" font-family="Arial" font-size="13px" font-style="normal" font-weight="normal" text-decoration="none" x="837.5" y="1179.5">29 : CreateNotification(params, communityMembers)</text></g></g><g transform="translate(5,5) scale(1,1)"><rect fill="#ffffff" stroke="none" x="643" y="1163" width="13" height="28"/></g><g transform="translate(5,5) scale(1,1)"><path fill="none" stroke="#000000" d="M 643 1163 L 656 1163 L 656 1191 L 643 1191 L 643 1163 Z Z" stroke-miterlimit="10"/></g><g transform="translate(5,5) scale(1,1)"><path fill="none" stroke="#000000" d="M 643 1190 L 313 1190" stroke-miterlimit="10" stroke-dasharray="3"/></g><g transform="translate(5,5) scale(1,1)"><path fill="none" stroke="#000000" d="M 323.16267485762415 1185.7904822439841 L 313 1190 L 323.16267485762415 1194.2095177560159" stroke-miterlimit="10"/></g><g transform="translate(5,5) scale(1,1)"><g><path fill="none" stroke="none"/><text fill="#000000" stroke="none" font-family="Arial" font-size="13px" font-style="normal" font-weight="normal" text-decoration="none" x="367.5" y="1206.5">30 : Return(Activity Stream View)</text></g></g><g transform="translate(5,5) scale(1,1)"><path fill="none" stroke="#000000" d="M 481 1296 L 840 1296" stroke-miterlimit="10"/></g><g transform="translate(5,5) scale(1,1)"><path fill="#000000" stroke="none" d="M 829.8373251423759 1300.2095177560159 L 840 1296 L 829.8373251423758 1291.7904822439841"/></g><g transform="translate(5,5) scale(1,1)"><path fill="none" stroke="#000000" d="M 829.8373251423759 1300.2095177560159 L 840 1296 L 829.8373251423758 1291.7904822439841 L 829.8373251423759 1300.2095177560159" stroke-miterlimit="10"/></g><g transform="translate(5,5) scale(1,1)"><g><path fill="none" stroke="none"/><text fill="#000000" stroke="none" font-family="Arial" font-size="13px" font-style="normal" font-weight="normal" text-decoration="none" x="583.5" y="1292.5">31 : Create-EditPost(params)</text></g></g><g transform="translate(5,5) scale(1,1)"><rect fill="#ffffff" stroke="none" x="840" y="1296" width="13" height="28"/></g><g transform="translate(5,5) scale(1,1)"><path fill="none" stroke="#000000" d="M 840 1296 L 853 1296 L 853 1324 L 840 1324 L 840 1296 Z Z" stroke-miterlimit="10"/></g><g transform="translate(5,5) scale(1,1)"><path fill="none" stroke="#000000" d="M 853 1320 L 1320 1320" stroke-miterlimit="10"/></g><g transform="translate(5,5) scale(1,1)"><path fill="#000000" stroke="none" d="M 1309.837325142376 1324.2095177560159 L 1320 1320 L 1309.837325142376 1315.7904822439841"/></g><g transform="translate(5,5) scale(1,1)"><path fill="none" stroke="#000000" d="M 1309.837325142376 1324.2095177560159 L 1320 1320 L 1309.837325142376 1315.7904822439841 L 1309.837325142376 1324.2095177560159" stroke-miterlimit="10"/></g><g transform="translate(5,5) scale(1,1)"><g><path fill="none" stroke="none"/><text fill="#000000" stroke="none" font-family="Arial" font-size="13px" font-style="normal" font-weight="normal" text-decoration="none" x="967.5" y="1316.5">32 : NotifiyPostTypeSubscribers(params)</text></g></g><g transform="translate(5,5) scale(1,1)"><rect fill="#ffffff" stroke="none" x="1320" y="1320" width="13" height="112"/></g><g transform="translate(5,5) scale(1,1)"><path fill="none" stroke="#000000" d="M 1320 1320 L 1333 1320 L 1333 1432 L 1320 1432 L 1320 1320 Z Z" stroke-miterlimit="10"/></g><g transform="translate(5,5) scale(1,1)"><path fill="none" stroke="#000000" d="M 481 1364 L 1065 1364" stroke-miterlimit="10"/></g><g transform="translate(5,5) scale(1,1)"><path fill="#000000" stroke="none" d="M 1054.837325142376 1368.2095177560159 L 1065 1364 L 1054.837325142376 1359.7904822439841"/></g><g transform="translate(5,5) scale(1,1)"><path fill="none" stroke="#000000" d="M 1054.837325142376 1368.2095177560159 L 1065 1364 L 1054.837325142376 1359.7904822439841 L 1054.837325142376 1368.2095177560159" stroke-miterlimit="10"/></g><g transform="translate(5,5) scale(1,1)"><g><path fill="none" stroke="none"/><text fill="#000000" stroke="none" font-family="Arial" font-size="13px" font-style="normal" font-weight="normal" text-decoration="none" x="662.5" y="1359.5">33 : CreateComment(params)</text></g></g><g transform="translate(5,5) scale(1,1)"><rect fill="#ffffff" stroke="none" x="1065" y="1364" width="13" height="28"/></g><g transform="translate(5,5) scale(1,1)"><path fill="none" stroke="#000000" d="M 1065 1364 L 1078 1364 L 1078 1392 L 1065 1392 L 1065 1364 Z Z" stroke-miterlimit="10"/></g><g transform="translate(5,5) scale(1,1)"><path fill="none" stroke="#000000" d="M 1078 1387 L 1327 1387" stroke-miterlimit="10"/></g><g transform="translate(5,5) scale(1,1)"><path fill="#000000" stroke="none" d="M 1316.837325142376 1391.2095177560159 L 1327 1387 L 1316.837325142376 1382.7904822439841"/></g><g transform="translate(5,5) scale(1,1)"><path fill="none" stroke="#000000" d="M 1316.837325142376 1391.2095177560159 L 1327 1387 L 1316.837325142376 1382.7904822439841 L 1316.837325142376 1391.2095177560159" stroke-miterlimit="10"/></g><g transform="translate(5,5) scale(1,1)"><g><path fill="none" stroke="none"/><text fill="#000000" stroke="none" font-family="Arial" font-size="13px" font-style="normal" font-weight="normal" text-decoration="none" x="1078.5" y="1381.5">34 : NotifiyPostTypeSubscribers(params)</text></g></g><g transform="translate(5,5) scale(1,1)"><rect fill="#ffffff" stroke="none" x="1327" y="1387" width="13" height="28"/></g><g transform="translate(5,5) scale(1,1)"><path fill="none" stroke="#000000" d="M 1327 1387 L 1340 1387 L 1340 1415 L 1327 1415 L 1327 1387 Z Z" stroke-miterlimit="10"/></g><g transform="translate(5,5) scale(1,1)"><path fill="none" stroke="#000000" d="M 1327 1432 L 1357 1432 L 1357 1452 L 1333 1452" stroke-miterlimit="10"/></g><g transform="translate(5,5) scale(1,1)"><path fill="#000000" stroke="none" d="M 1343.162674857624 1447.7904822439841 L 1333 1452 L 1343.162674857624 1456.2095177560159"/></g><g transform="translate(5,5) scale(1,1)"><path fill="none" stroke="#000000" d="M 1343.162674857624 1447.7904822439841 L 1333 1452 L 1343.162674857624 1456.2095177560159 L 1343.162674857624 1447.7904822439841" stroke-miterlimit="10"/></g><g transform="translate(5,5) scale(1,1)"><g><path fill="none" stroke="none"/><text fill="#000000" stroke="none" font-family="Arial" font-size="13px" font-style="normal" font-weight="normal" text-decoration="none" x="1359.5" y="1447.5">35 : GetPostTypeSubscribers(postTypeId)</text></g></g><g transform="translate(5,5) scale(1,1)"><rect fill="#ffffff" stroke="none" x="1320" y="1452" width="13" height="68"/></g><g transform="translate(5,5) scale(1,1)"><path fill="none" stroke="#000000" d="M 1320 1452 L 1333 1452 L 1333 1520 L 1320 1520 L 1320 1452 Z Z" stroke-miterlimit="10"/></g><g transform="translate(5,5) scale(1,1)"><path fill="none" stroke="#000000" d="M 1333 1480 L 1602 1480" stroke-miterlimit="10"/></g><g transform="translate(5,5) scale(1,1)"><path fill="#000000" stroke="none" d="M 1591.837325142376 1484.2095177560159 L 1602 1480 L 1591.837325142376 1475.7904822439841"/></g><g transform="translate(5,5) scale(1,1)"><path fill="none" stroke="#000000" d="M 1591.837325142376 1484.2095177560159 L 1602 1480 L 1591.837325142376 1475.7904822439841 L 1591.837325142376 1484.2095177560159" stroke-miterlimit="10"/></g><g transform="translate(5,5) scale(1,1)"><g><path fill="none" stroke="none"/><text fill="#000000" stroke="none" font-family="Arial" font-size="13px" font-style="normal" font-weight="normal" text-decoration="none" x="1382.5" y="1476.5">36 : QueryResult(postTypeId)</text></g></g><g transform="translate(5,5) scale(1,1)"><rect fill="#ffffff" stroke="none" x="1602" y="1480" width="13" height="28"/></g><g transform="translate(5,5) scale(1,1)"><path fill="none" stroke="#000000" d="M 1602 1480 L 1615 1480 L 1615 1508 L 1602 1508 L 1602 1480 Z Z" stroke-miterlimit="10"/></g><g transform="translate(5,5) scale(1,1)"><path fill="none" stroke="#000000" d="M 1602 1500 L 1333 1500" stroke-miterlimit="10" stroke-dasharray="3"/></g><g transform="translate(5,5) scale(1,1)"><path fill="none" stroke="#000000" d="M 1343.162674857624 1495.7904822439841 L 1333 1500 L 1343.162674857624 1504.2095177560159" stroke-miterlimit="10"/></g><g transform="translate(5,5) scale(1,1)"><g><path fill="none" stroke="none"/><text fill="#000000" stroke="none" font-family="Arial" font-size="13px" font-style="normal" font-weight="normal" text-decoration="none" x="1368.5" y="1516.5">37 : Return(postTypeSubscribers)</text></g></g><g transform="translate(5,5) scale(1,1)"><path fill="none" stroke="#000000" d="M 1320 1514 L 656 1514" stroke-miterlimit="10"/></g><g transform="translate(5,5) scale(1,1)"><path fill="#000000" stroke="none" d="M 666.1626748576241 1509.7904822439841 L 656 1514 L 666.1626748576241 1518.2095177560159"/></g><g transform="translate(5,5) scale(1,1)"><path fill="none" stroke="#000000" d="M 666.1626748576241 1509.7904822439841 L 656 1514 L 666.1626748576241 1518.2095177560159 L 666.1626748576241 1509.7904822439841" stroke-miterlimit="10"/></g><g transform="translate(5,5) scale(1,1)"><g><path fill="none" stroke="none"/><text fill="#000000" stroke="none" font-family="Arial" font-size="13px" font-style="normal" font-weight="normal" text-decoration="none" x="832.5" y="1530.5">38 : CreateNotification(params, postTypeSubscribers)</text></g></g><g transform="translate(5,5) scale(1,1)"><rect fill="#ffffff" stroke="none" x="643" y="1514" width="13" height="28"/></g><g transform="translate(5,5) scale(1,1)"><path fill="none" stroke="#000000" d="M 643 1514 L 656 1514 L 656 1542 L 643 1542 L 643 1514 Z Z" stroke-miterlimit="10"/></g><g transform="translate(5,5) scale(1,1)"><path fill="none" stroke="#000000" d="M 643 1536 L 313 1536" stroke-miterlimit="10" stroke-dasharray="3"/></g><g transform="translate(5,5) scale(1,1)"><path fill="none" stroke="#000000" d="M 323.16267485762415 1531.7904822439841 L 313 1536 L 323.16267485762415 1540.2095177560159" stroke-miterlimit="10"/></g><g transform="translate(5,5) scale(1,1)"><g><path fill="none" stroke="none"/><text fill="#000000" stroke="none" font-family="Arial" font-size="13px" font-style="normal" font-weight="normal" text-decoration="none" x="367.5" y="1552.5">39 : Return(Activity Stream View)</text></g></g></g></svg>